<svg width="370" height="490" viewBox="0 0 370 490" fill="none" xmlns="http://www.w3.org/2000/svg">
<path d="M228.669 109.99C216.464 96.0922 202.969 88.2334 180.515 90.3383C153.474 93.0136 139.711 104.256 132.282 116.905C126.334 127.035 124.954 154.634 124.954 154.634C124.954 154.634 125.182 168.001 129.75 182.981C138.31 203.98 165.649 213.177 192.79 209.026C229.215 203.449 242.204 178.821 243.446 166.044C245.889 142.891 239.116 125.088 228.679 109.99H228.669Z" fill="#FFD3A6"/>
<path d="M163.05 190.122C158.752 179.772 143.633 169.953 129 181C130.5 185.5 133 190 137 194C146.634 203.635 154.444 206.4 163 208C165.285 202.205 165.767 195.672 163.058 190.116L163.05 190.122Z" fill="url(#paint0_radial_660_24253)"/>
<path d="M216.984 200.924C232.184 193.324 244.58 177.49 244 159.5C240.97 158.68 224.234 159.404 216.094 172.144C209.814 181.974 211.274 193.984 216.984 200.924Z" fill="url(#paint1_radial_660_24253)"/>
<g style="mix-blend-mode:multiply" opacity="0.44">
<path d="M228.44 109.324C216.15 95.1939 202.56 87.2039 179.95 89.3439C152.72 92.0639 138.86 103.494 131.38 116.354C125.39 126.654 124 154.714 124 154.714C124 154.714 124.07 159.084 124.97 165.634C128.4 161.384 129.4 152.754 131.83 147.864C136.63 138.774 140.41 126.604 149.61 121.054C148.2 125.024 144.5 130.544 147.77 132.094C151.04 133.644 155.71 127.574 158.97 125.434C157 134.304 165.5 131.324 173.5 125.944C185.84 117.174 192.81 108.234 193.1 105.034C198.43 114.304 211.42 125.254 223.05 124.374C224.19 122.264 224.07 121.144 222.83 118.554C232.04 125.384 235.51 139.424 241.02 148.034C242.05 148.654 242.13 146.324 243.17 146.534C241.35 132.174 235.8 120.084 228.45 109.334L228.44 109.324Z" fill="#ECA5AA"/>
</g>
<path d="M110.368 114.347C108.789 115.95 106.526 118.873 105.812 117.663C103.71 114.085 118.273 85.7146 134.305 74.4772C150.86 62.8769 180.67 58.6439 186.443 64.6003C184.673 60.8914 183.798 59.0269 181.736 56.3964C184.492 54.4614 194.69 59.9743 197.506 65.0437C201.348 61.1938 215.338 58.8657 216.606 63.3606C217.299 65.8097 213.92 68.037 210.43 68.4603C225.225 73.2678 235.634 83.3764 244.314 95.4504C246.969 99.1391 253.979 110.971 252.672 115.738C250.68 117.038 251.364 114.176 247.824 110.961C254.955 123.227 254.492 134.766 253.305 143.958C253.305 143.958 249.846 162.18 243.7 166.987C243.7 166.987 242.926 127.953 220.719 112.695C222.71 117.724 221.172 120.364 217.822 119.77C209.565 118.308 200.453 110.901 192.568 101.427C191.633 104.017 182.43 118.661 167.404 125.746C158.252 130.06 159.952 122.501 161.591 117.2C158.111 122.239 154.762 126.804 150.226 129.243C147.862 130.513 150.347 122.017 151.574 118.218C138.318 117.452 127 153 126 165.5C126 165.5 121.447 166.335 118.5 169.5C118.5 169.5 108.598 151.073 110.268 141.459C108.638 144.25 107.844 143.968 106.365 143.454C104.756 142.9 103.177 124.033 110.358 114.347H110.368Z" fill="#3C2415"/>
<g style="mix-blend-mode:screen" opacity="0.4">
<path d="M164.347 67.4525C167.987 67.13 174.384 66.7268 176.717 68.5107C171.709 69.8109 167.414 70.7381 163.653 73.4492C167.877 73.8725 174.887 72.2297 178.598 75.6765C175.219 76.5029 172 78.0248 169.174 80.111C178.829 79.597 186.483 79.7583 195.032 84.4347C188.615 83.4167 176.114 84.1021 167.384 85.6542C152.871 88.2242 138.237 97.1234 133.53 100.52C134.305 96.9219 145.268 89.6654 155.074 85.3216C149.985 85.4224 144.171 87.4481 139.645 89.7359C142.331 84.5758 150.689 81.008 155.275 79.3854C148.416 80.232 141.385 82.288 135.27 85.1301C139.303 80.6956 145.237 77.4503 152.781 74.8601C150.055 74.7291 139.002 77.7426 132.927 82.1569C138.992 73.7314 155.647 68.2185 164.347 67.4525Z" fill="#673A1C"/>
</g>
<g style="mix-blend-mode:screen" opacity="0.4">
<path d="M224.269 85.4023C224.269 85.4023 247.643 96.539 247.834 129.425C247.834 129.425 244.948 103.544 224.269 85.4023Z" fill="#673A1C"/>
</g>
<g style="mix-blend-mode:screen" opacity="0.4">
<path d="M225.456 95.1582C225.456 95.1582 245.883 106.124 246.617 137.316C246.617 137.316 243.67 112.725 225.456 95.1582Z" fill="#673A1C"/>
</g>
<path d="M242.049 166.847C244.78 167.201 253.161 164.26 253.936 156.982C254.859 148.228 245.654 143.527 239.963 150.038C239.963 150.038 242.347 158.428 242.049 166.847Z" fill="#FFD3A6"/>
<g style="mix-blend-mode:multiply" opacity="0.6">
<path d="M247.907 153.884C245.862 151.74 242.902 152.379 240.956 154.425C241.413 156.844 241.89 160.041 242.029 163.434C244.273 163.316 246.12 162.333 247.56 160.926C249.367 159.156 250.003 156.313 247.907 153.894V153.884Z" fill="#FAD0B0"/>
</g>
<path d="M130.386 182.489C127.903 183.679 119.015 183.493 115.976 176.814C112.322 168.788 119.571 161.461 127.039 165.877C127.039 165.877 127.436 174.581 130.396 182.489H130.386Z" fill="#FFD3A6"/>
<g style="mix-blend-mode:multiply" opacity="0.6">
<path d="M120.713 172.004C121.974 169.339 124.993 169.014 127.486 170.352C127.814 172.791 128.38 175.968 129.323 179.233C127.158 179.814 125.083 179.46 123.275 178.574C120.991 177.453 119.492 174.955 120.713 172.004Z" fill="#FAD0B0"/>
</g>
<g clip-path="url(#clip0_660_24253)">
<path style="mix-blend-mode:multiply" d="M228.786 151.846C228.503 157.219 223.812 161.352 218.294 161.077C212.775 160.801 208.53 156.233 208.813 150.86C209.096 145.487 213.787 141.354 219.306 141.63C224.824 141.905 229.069 146.473 228.786 151.846Z" fill="url(#paint2_radial_660_24253)"/>
<path d="M226.789 153.626C226.55 158.151 222.599 161.638 217.94 161.415C213.282 161.193 209.711 157.335 209.94 152.799C210.179 148.274 214.131 144.787 218.789 145.01C223.437 145.243 227.018 149.09 226.789 153.626Z" fill="white"/>
<path d="M218.834 145.446C222.97 145.647 226.257 148.614 226.779 152.334C226.779 152.303 226.779 152.26 226.79 152.228C227.008 147.936 223.481 144.28 218.91 144.057C214.338 143.835 210.442 147.131 210.224 151.412C210.224 151.444 210.224 151.486 210.224 151.518C211.127 147.873 214.708 145.244 218.834 145.446Z" fill="#3C2415"/>
<path d="M224.792 153.462C224.618 156.853 221.646 159.46 218.163 159.291C214.68 159.121 212.002 156.228 212.176 152.837C212.351 149.445 215.322 146.838 218.805 147.008C222.288 147.177 224.966 150.07 224.792 153.462Z" fill="black"/>
<path d="M215.436 149.348C215.403 150.058 214.783 150.609 214.054 150.567C213.325 150.535 212.759 149.931 212.802 149.221C212.835 148.511 213.455 147.96 214.184 148.002C214.914 148.034 215.48 148.638 215.436 149.348Z" fill="white"/>
<path style="mix-blend-mode:multiply" d="M160.052 152.574C159.769 157.95 155.078 162.086 149.559 161.81C144.041 161.534 139.796 156.964 140.079 151.588C140.362 146.212 145.053 142.077 150.572 142.352C156.09 142.628 160.335 147.198 160.052 152.574Z" fill="url(#paint3_radial_660_24253)"/>
<path d="M158.789 154.631C158.55 159.159 154.599 162.647 149.94 162.425C145.282 162.202 141.712 158.342 141.94 153.804C142.18 149.276 146.131 145.788 150.789 146.01C155.437 146.243 159.018 150.093 158.789 154.631Z" fill="white"/>
<path d="M150.834 146.17C154.97 146.371 158.257 149.34 158.779 153.062C158.779 153.03 158.779 152.988 158.79 152.956C159.008 148.662 155.481 145.003 150.91 144.781C146.338 144.558 142.442 147.856 142.224 152.14C142.224 152.171 142.224 152.214 142.224 152.246C143.127 148.598 146.708 145.968 150.834 146.17Z" fill="#3C2415"/>
<path d="M156.792 154.466C156.618 157.859 153.646 160.467 150.163 160.298C146.68 160.128 144.002 157.233 144.177 153.84C144.351 150.447 147.322 147.838 150.805 148.008C154.288 148.178 156.966 151.073 156.792 154.466Z" fill="black"/>
<path d="M147.436 150.349C147.403 151.06 146.783 151.611 146.054 151.568C145.325 151.537 144.758 150.932 144.802 150.222C144.835 149.511 145.455 148.96 146.184 149.002C146.914 149.034 147.48 149.639 147.436 150.349Z" fill="white"/>
<path d="M212.918 182.535C213.648 181.757 214.064 181.046 213.601 180.911C213.312 180.956 213.023 181.001 211.668 182.163C204.435 188.345 194.91 190.364 185.293 190.15C176.485 189.958 165.572 186.946 160.19 181.836C159.901 181.452 161 180.933 161.533 180.561C162.077 180.166 161.776 179.399 161.093 179.433C158.547 179.535 156.764 181.881 156.637 183.223C156.579 183.878 156.51 184.013 157.181 184.081C157.864 184.148 158.061 183.517 158.524 182.998C158.674 182.829 158.848 182.75 158.998 182.558C165.931 189.405 176.381 192.203 186.242 191.989C197.815 191.729 207.907 187.882 212.93 182.547L212.918 182.535Z" fill="#923732"/>
<path style="mix-blend-mode:multiply" d="M187.817 167.677L187.223 166.545C190.246 165.446 191.73 161.722 191.346 160.211C191.259 159.885 190.997 159.834 189.145 160.074C187.782 160.246 185.93 160.486 183.886 160.16C178.226 159.284 178.401 151.166 178.401 150.823H179.886C179.886 150.926 179.746 158.255 184.166 158.958C185.965 159.233 187.608 159.027 188.935 158.855C190.647 158.632 192.412 158.409 192.814 159.954C193.355 162.082 191.451 166.356 187.835 167.677H187.817Z" fill="url(#paint4_linear_660_24253)"/>
<g filter="url(#filter0_d_660_24253)">
<path d="M142.143 138.85C144.73 137.523 147.66 136.444 151.679 137.915C152.836 138.337 154.094 137.485 153.519 136.391C152.632 134.716 150.186 132.298 146.398 132.579C142.984 132.836 141.278 135.269 140.525 136.838C140.002 137.944 141.069 139.401 142.143 138.85Z" fill="#603913"/>
</g>
<g filter="url(#filter1_d_660_24253)">
<path d="M224.814 138.85C222.226 137.523 219.296 136.444 215.277 137.915C214.12 138.337 212.862 137.485 213.438 136.391C214.325 134.716 216.77 132.298 220.558 132.579C223.972 132.836 225.678 135.269 226.431 136.838C226.954 137.944 225.887 139.401 224.814 138.85Z" fill="#603913"/>
</g>
</g>
<defs>
<filter id="filter0_d_660_24253" x="140.028" y="132.556" width="13.6349" height="7.13418" filterUnits="userSpaceOnUse" color-interpolation-filters="sRGB">
<feFlood flood-opacity="0" result="BackgroundImageFix"/>
<feColorMatrix in="SourceAlpha" type="matrix" values="0 0 0 0 0 0 0 0 0 0 0 0 0 0 0 0 0 0 127 0" result="hardAlpha"/>
<feOffset dx="-0.36" dy="0.719999"/>
<feComposite in2="hardAlpha" operator="out"/>
<feColorMatrix type="matrix" values="0 0 0 0 0.945098 0 0 0 0 0.756863 0 0 0 0 0.658824 0 0 0 0.5 0"/>
<feBlend mode="normal" in2="BackgroundImageFix" result="effect1_dropShadow_660_24253"/>
<feBlend mode="normal" in="SourceGraphic" in2="effect1_dropShadow_660_24253" result="shape"/>
</filter>
<filter id="filter1_d_660_24253" x="212.933" y="132.556" width="13.6349" height="7.13418" filterUnits="userSpaceOnUse" color-interpolation-filters="sRGB">
<feFlood flood-opacity="0" result="BackgroundImageFix"/>
<feColorMatrix in="SourceAlpha" type="matrix" values="0 0 0 0 0 0 0 0 0 0 0 0 0 0 0 0 0 0 127 0" result="hardAlpha"/>
<feOffset dx="-0.36" dy="0.719999"/>
<feComposite in2="hardAlpha" operator="out"/>
<feColorMatrix type="matrix" values="0 0 0 0 0.945098 0 0 0 0 0.756863 0 0 0 0 0.658824 0 0 0 0.5 0"/>
<feBlend mode="normal" in2="BackgroundImageFix" result="effect1_dropShadow_660_24253"/>
<feBlend mode="normal" in="SourceGraphic" in2="effect1_dropShadow_660_24253" result="shape"/>
</filter>
<radialGradient id="paint0_radial_660_24253" cx="0" cy="0" r="1" gradientUnits="userSpaceOnUse" gradientTransform="translate(138.015 200.23) rotate(-41.9816) scale(21.76 21.76)">
<stop stop-color="#FFA993"/>
<stop offset="0.3" stop-color="#FFAD95"/>
<stop offset="0.63" stop-color="#FFBB9B"/>
<stop offset="0.98" stop-color="#FFD1A5"/>
<stop offset="1" stop-color="#FFD3A6"/>
</radialGradient>
<radialGradient id="paint1_radial_660_24253" cx="0" cy="0" r="1" gradientUnits="userSpaceOnUse" gradientTransform="translate(237.187 186.273) rotate(-7.9) scale(23.32 23.32)">
<stop stop-color="#FFA993"/>
<stop offset="0.3" stop-color="#FFAD95"/>
<stop offset="0.63" stop-color="#FFBB9B"/>
<stop offset="0.98" stop-color="#FFD1A5"/>
<stop offset="1" stop-color="#FFD3A6"/>
</radialGradient>
<radialGradient id="paint2_radial_660_24253" cx="0" cy="0" r="1" gradientUnits="userSpaceOnUse" gradientTransform="translate(218.679 151.434) rotate(2.81398) scale(10.0023 9.74004)">
<stop stop-color="#9D4B57"/>
<stop offset="0.22" stop-color="#9E4D59"/>
<stop offset="0.37" stop-color="#A35662"/>
<stop offset="0.5" stop-color="#AB6670"/>
<stop offset="0.62" stop-color="#B77C84"/>
<stop offset="0.73" stop-color="#C7989F"/>
<stop offset="0.84" stop-color="#D9BABF"/>
<stop offset="0.94" stop-color="#EFE3E5"/>
<stop offset="1" stop-color="white"/>
</radialGradient>
<radialGradient id="paint3_radial_660_24253" cx="0" cy="0" r="1" gradientUnits="userSpaceOnUse" gradientTransform="translate(149.947 152.158) rotate(2.81551) scale(10.0023 9.74534)">
<stop stop-color="#9D4B57"/>
<stop offset="0.22" stop-color="#9E4D59"/>
<stop offset="0.37" stop-color="#A35662"/>
<stop offset="0.5" stop-color="#AB6670"/>
<stop offset="0.62" stop-color="#B77C84"/>
<stop offset="0.73" stop-color="#C7989F"/>
<stop offset="0.84" stop-color="#D9BABF"/>
<stop offset="0.94" stop-color="#EFE3E5"/>
<stop offset="1" stop-color="white"/>
</radialGradient>
<linearGradient id="paint4_linear_660_24253" x1="185.652" y1="150.823" x2="185.652" y2="167.677" gradientUnits="userSpaceOnUse">
<stop offset="0.0619263" stop-color="#B5515E" stop-opacity="0"/>
<stop offset="0.265081" stop-color="#B5515E"/>
<stop offset="0.541667" stop-color="#B5515E" stop-opacity="0.910296"/>
<stop offset="0.967886" stop-color="#B5515E" stop-opacity="0"/>
</linearGradient>
<clipPath id="clip0_660_24253">
<rect width="88.7998" height="60" fill="white" transform="translate(140 132)"/>
</clipPath>
</defs>
</svg>
