<svg width="370" height="490" viewBox="0 0 370 490" fill="none" xmlns="http://www.w3.org/2000/svg">
<path d="M228.669 109.99C216.464 96.0922 202.969 88.2334 180.515 90.3383C153.474 93.0136 139.711 104.256 132.282 116.905C126.334 127.035 124.954 154.634 124.954 154.634C124.954 154.634 125.182 168.001 129.75 182.981C138.31 203.98 165.649 213.177 192.79 209.026C229.215 203.449 242.204 178.821 243.446 166.044C245.889 142.891 239.116 125.088 228.679 109.99H228.669Z" fill="#FFD3A6"/>
<path d="M163.05 190.122C158.752 179.772 143.633 169.953 129 181C130.5 185.5 133 190 137 194C146.634 203.635 154.444 206.4 163 208C165.285 202.205 165.767 195.672 163.058 190.116L163.05 190.122Z" fill="url(#paint0_radial_660_24253)"/>
<path d="M216.984 200.924C232.184 193.324 244.58 177.49 244 159.5C240.97 158.68 224.234 159.404 216.094 172.144C209.814 181.974 211.274 193.984 216.984 200.924Z" fill="url(#paint1_radial_660_24253)"/>
<g style="mix-blend-mode:multiply" opacity="0.44">
<path d="M138.958 129.477C140.839 133.6 136.97 137.856 137.85 141.605C148.844 136.589 156.465 126.561 161.575 115.928C170.715 125.041 186.096 134.535 198.972 133.641C195.089 128.771 189.459 125.529 185.576 120.659C193.088 128.024 202.347 133.761 212.848 133.121C208.592 129.252 207.084 124.128 202.828 120.259C212.505 130.222 226.102 132.038 238.608 128.989C238.133 127.694 237.625 126.49 237.076 125.395C225.459 102.154 208.369 91.1558 175.678 91.9592C175.678 91.9592 150.233 94.5449 132.407 117.921C123.65 129.405 119.635 149.809 125.281 168.552C127.605 154.54 133.131 142.397 138.968 129.481L138.958 129.477Z" fill="#ECA5AA"/>
</g>
<path d="M142.058 125.571C141.405 129.398 140.598 132.688 139.935 136.511C149.109 132.001 155.642 126.322 160.785 113.066C167.625 123.145 187.292 130.967 194.708 130.372C190.737 125.036 180.557 115.261 179.811 110.57C184.214 119.237 196.748 128.512 206.199 130.775C202.005 126.096 199.508 118.004 198.296 113.618C204.721 122.914 222.513 128.885 229.619 128.083C236.714 129.113 245.373 153.35 243.5 162C252.924 154.47 255.907 123.543 251.073 115.969C256.953 117.902 264.227 116.559 264.608 115.082C259.919 114.723 254.089 112.535 251.963 108.457C245.911 96.8143 240.085 90.0668 226.928 80.5369C213.313 70.6765 193.157 63.6183 176.485 65.7626C167.599 66.903 153.234 69.099 146.901 76.1978C136.107 76.9221 131.538 84.3034 126.724 90.5099C118.995 100.462 113.52 113.172 110.951 125.518C108.236 138.563 110.084 151.966 116.168 163.826C118.535 168.449 124.569 180.591 129.5 182.5C127.235 174.916 125.5 162 128.987 152.091C130.556 141.902 135.746 133.773 142.04 125.587L142.058 125.571Z" fill="#3C2415"/>
<g style="mix-blend-mode:multiply" opacity="0.4">
<path d="M126.319 141.188C123.902 132.486 129.865 124.087 132.264 115.77C124.424 117.802 124.508 127.046 117.909 129.542C113.867 130.872 113.089 123.489 113.62 120.142C113.932 117.351 114.382 114.589 114.97 111.855C113.268 116.351 111.918 120.943 110.972 125.493C108.257 138.537 110.105 151.94 116.189 163.8C118.556 168.424 124.077 180.59 129.008 182.5C126.743 174.916 126 162 129.008 152.065C130.56 141.984 135.653 133.932 141.849 125.825C143.36 123.641 144.099 121.967 144.923 120.371C145.667 118.927 144.056 117.379 142.671 118.219C134.793 123.042 131.35 132.417 126.307 141.16L126.319 141.188Z" fill="#3C2415"/>
</g>
<g style="mix-blend-mode:multiply" opacity="0.4">
<path d="M238.611 107.999C242.191 113.589 247.72 117.774 248.73 124.536C246.637 124.461 245.693 121.281 243.6 121.206C245.781 124.86 247.657 131.227 244.471 132.158C239.808 133.256 236.381 123.471 231.023 126.43C230.391 126.719 230.296 127.401 230.439 128.299C237.238 130.917 245.307 153.679 243.5 162C252.478 154.84 255.461 126.479 251.715 117.213C246.996 115.132 242.59 112.153 238.611 107.999Z" fill="#3C2415"/>
</g>
<g style="mix-blend-mode:screen" opacity="0.4">
<path d="M209.912 74.5954C211.838 75.759 214.885 77.7061 216.338 79.5255C216.648 79.9151 216.22 80.4508 215.763 80.269C213.222 79.2287 210.925 78.3257 208.483 77.9954C207.985 77.9236 207.739 78.5841 208.144 78.8723C210.438 80.5154 213.609 82.3148 214.764 84.901C214.936 85.2958 214.562 85.7152 214.162 85.5657C212.544 84.9842 210.85 84.6029 209.146 84.434C208.651 84.386 208.428 85.0439 208.837 85.3221C213.485 88.4483 217.197 91.4534 220.024 96.0662C220.305 96.5358 219.716 97.0455 219.299 96.6961C215.276 93.3927 208.873 89.3488 203.821 86.847C195.289 82.6125 184.698 81.0525 179.008 80.6269C178.422 80.579 178.404 79.7402 178.982 79.6593C182.113 79.2435 187.354 79.6498 192.423 80.5164C192.991 80.6143 193.232 79.8151 192.7 79.5933C190.602 78.7075 188.195 77.7633 186.508 77.2132C186.03 77.0576 186.082 76.3699 186.575 76.2692C189.482 75.69 193.085 76.6361 196.292 77.2404C196.846 77.3446 197.1 76.5728 196.598 76.3285C193.502 74.819 190.209 73.5899 186.931 72.7195C186.402 72.579 186.481 71.7875 187.026 71.7629C189.291 71.6509 191.72 71.8963 194.303 72.4276C194.897 72.5468 195.134 71.7 194.569 71.5008C192.457 70.7463 189.958 70.0185 187.569 69.6056C187.002 69.5077 187.038 68.6775 187.611 68.6404C195.041 68.1309 205.052 71.6408 209.922 74.5991L209.912 74.5954Z" fill="#A0784C"/>
</g>
<path d="M242.049 166.847C244.78 167.201 253.161 164.26 253.936 156.982C254.859 148.228 245.654 143.527 239.963 150.038C239.963 150.038 242.347 158.428 242.049 166.847Z" fill="#FFD3A6"/>
<g style="mix-blend-mode:multiply" opacity="0.6">
<path d="M247.907 153.884C245.862 151.74 242.902 152.379 240.956 154.425C241.413 156.844 241.89 160.041 242.029 163.434C244.273 163.316 246.12 162.333 247.56 160.926C249.367 159.156 250.003 156.313 247.907 153.894V153.884Z" fill="#FAD0B0"/>
</g>
<path d="M130.386 182.489C127.903 183.679 119.015 183.493 115.976 176.814C112.322 168.788 119.571 161.461 127.039 165.877C127.039 165.877 127.436 174.581 130.396 182.489H130.386Z" fill="#FFD3A6"/>
<g style="mix-blend-mode:multiply" opacity="0.6">
<path d="M120.713 172.004C121.974 169.339 124.993 169.014 127.486 170.352C127.814 172.791 128.38 175.968 129.323 179.233C127.158 179.814 125.083 179.46 123.275 178.574C120.991 177.453 119.492 174.955 120.713 172.004Z" fill="#FAD0B0"/>
</g>
<g filter="url(#filter0_d_660_24253)">
<path d="M145.915 136.743C148.178 134.918 150.828 133.266 155.062 133.89C156.281 134.068 157.34 132.978 156.554 132.024C155.345 130.565 152.459 128.694 148.807 129.738C145.517 130.683 144.341 133.412 143.922 135.101C143.635 136.291 144.976 137.5 145.915 136.743Z" fill="#381C0A"/>
</g>
<g filter="url(#filter1_d_660_24253)">
<path d="M224.814 135.85C222.226 134.523 219.296 133.444 215.277 134.915C214.12 135.337 212.862 134.485 213.438 133.391C214.325 131.716 216.77 129.298 220.558 129.579C223.972 129.836 225.678 132.269 226.431 133.838C226.954 134.944 225.887 136.401 224.814 135.85Z" fill="#381C0A"/>
</g>
<path style="mix-blend-mode:multiply" d="M187.095 171.132L186.816 170.051C189.503 169.638 191.412 166.693 191.375 165.325C191.363 165.028 191.157 164.938 189.591 164.818C188.439 164.726 186.872 164.606 185.252 163.965C180.761 162.213 182.404 155.253 182.468 154.958L183.688 155.219C183.669 155.308 182.201 161.594 185.704 162.98C187.132 163.533 188.52 163.646 189.643 163.732C191.092 163.842 192.584 163.961 192.629 165.362C192.681 167.29 190.326 170.634 187.109 171.135L187.095 171.132Z" fill="url(#paint2_linear_660_24253)"/>
<path d="M145.916 153.564C145.916 153.564 145.701 147.013 151.766 144.678C155.219 143.34 157.828 144.289 159.845 145.487C162.563 147.111 163.936 150.809 163.121 151.36C162.466 151.808 161.687 152.081 161.198 151.172C160.435 149.768 158.324 145.218 152.923 146.553C147.522 147.888 147.865 152.995 147.865 152.995C147.865 152.995 146.771 154.538 145.942 153.577L145.916 153.564Z" fill="#3C2415"/>
<path d="M207.537 151.469C207.537 151.469 208.091 144.935 214.374 143.344C217.953 142.444 220.437 143.691 222.289 145.137C224.793 147.081 225.712 150.933 224.852 151.379C224.157 151.743 223.345 151.919 222.958 150.961C222.361 149.475 220.792 144.683 215.276 145.356C209.761 146.029 209.513 151.143 209.513 151.143C209.513 151.143 208.245 152.552 207.531 151.482L207.537 151.469Z" fill="#3C2415"/>
<path d="M206.565 176.209C199.598 179.08 194.063 180.581 185.42 179.475C177.644 178.47 168.862 175.982 164.108 172.473C158.718 168.484 154.577 177.977 158.807 186.331C162.184 192.996 171.417 199.502 183.082 201.135C200.378 203.569 210.416 196.292 215.309 188.48C220.46 180.251 214.702 172.854 206.551 176.204L206.565 176.209Z" fill="#923732"/>
<g style="mix-blend-mode:multiply" opacity="0.4">
<path d="M164.137 172.404C168.899 175.915 177.682 178.424 185.455 179.454C194.089 180.6 199.606 179.107 206.57 176.281C214.703 172.976 220.486 180.348 215.363 188.534C214.773 189.486 214.098 190.42 213.356 191.328C207.127 187.387 199.091 185.013 184.364 182.806C178.83 181.977 161.761 182.9 158.868 183.827C158.598 183.94 158.314 184.047 158.043 184.16C155.331 176.426 159.194 168.76 164.159 172.428L164.137 172.404Z" fill="#842339"/>
</g>
<path d="M200.676 182.761C197.735 184.88 189.925 185.435 182.516 184.717C175.79 183.845 173.101 183.407 169.342 180.938C166.621 179.152 166.131 175.391 166.269 173.783C171.254 176.588 178.734 178.591 185.482 179.487C192.771 180.453 197.848 179.536 203.442 177.531C203.257 179.819 202.082 181.584 200.684 182.78L200.676 182.761Z" fill="white"/>
<g style="mix-blend-mode:multiply" opacity="0.5">
<path d="M166.29 173.746C171.272 176.546 178.747 178.546 185.49 179.441C192.774 180.407 197.847 179.493 203.437 177.493C203.366 178.364 203.157 179.151 202.838 179.864C202.784 179.843 202.73 179.822 202.663 179.796C196.616 181.2 190.177 181.492 180.24 180.039C172.376 178.818 167.577 174.881 167.01 176.783C166.856 176.785 166.717 176.747 166.588 176.681C166.287 175.527 166.224 174.434 166.285 173.76L166.29 173.746Z" fill="#D5DBE6"/>
</g>
<path d="M178.185 192.198C186.696 193.592 191.62 191.451 198.553 191.286C202.526 191.602 206.169 192.659 209.498 195.131C203.793 199.809 195.231 202.867 183.051 201.119C177.243 200.293 172.04 198.258 167.848 195.591C169.936 192.784 174.285 191.553 178.185 192.198Z" fill="#F3807C"/>
<defs>
<filter id="filter0_d_660_24253" x="143.522" y="129.435" width="13.3019" height="8.26394" filterUnits="userSpaceOnUse" color-interpolation-filters="sRGB">
<feFlood flood-opacity="0" result="BackgroundImageFix"/>
<feColorMatrix in="SourceAlpha" type="matrix" values="0 0 0 0 0 0 0 0 0 0 0 0 0 0 0 0 0 0 127 0" result="hardAlpha"/>
<feOffset dx="-0.36" dy="0.719999"/>
<feComposite in2="hardAlpha" operator="out"/>
<feColorMatrix type="matrix" values="0 0 0 0 0.945098 0 0 0 0 0.756863 0 0 0 0 0.658824 0 0 0 0.5 0"/>
<feBlend mode="normal" in2="BackgroundImageFix" result="effect1_dropShadow_660_24253"/>
<feBlend mode="normal" in="SourceGraphic" in2="effect1_dropShadow_660_24253" result="shape"/>
</filter>
<filter id="filter1_d_660_24253" x="212.933" y="129.556" width="13.6349" height="7.13418" filterUnits="userSpaceOnUse" color-interpolation-filters="sRGB">
<feFlood flood-opacity="0" result="BackgroundImageFix"/>
<feColorMatrix in="SourceAlpha" type="matrix" values="0 0 0 0 0 0 0 0 0 0 0 0 0 0 0 0 0 0 127 0" result="hardAlpha"/>
<feOffset dx="-0.36" dy="0.719999"/>
<feComposite in2="hardAlpha" operator="out"/>
<feColorMatrix type="matrix" values="0 0 0 0 0.945098 0 0 0 0 0.756863 0 0 0 0 0.658824 0 0 0 0.5 0"/>
<feBlend mode="normal" in2="BackgroundImageFix" result="effect1_dropShadow_660_24253"/>
<feBlend mode="normal" in="SourceGraphic" in2="effect1_dropShadow_660_24253" result="shape"/>
</filter>
<radialGradient id="paint0_radial_660_24253" cx="0" cy="0" r="1" gradientUnits="userSpaceOnUse" gradientTransform="translate(138.015 200.23) rotate(-41.9816) scale(21.76 21.76)">
<stop stop-color="#FFA993"/>
<stop offset="0.3" stop-color="#FFAD95"/>
<stop offset="0.63" stop-color="#FFBB9B"/>
<stop offset="0.98" stop-color="#FFD1A5"/>
<stop offset="1" stop-color="#FFD3A6"/>
</radialGradient>
<radialGradient id="paint1_radial_660_24253" cx="0" cy="0" r="1" gradientUnits="userSpaceOnUse" gradientTransform="translate(237.187 186.273) rotate(-7.9) scale(23.32 23.32)">
<stop stop-color="#FFA993"/>
<stop offset="0.3" stop-color="#FFAD95"/>
<stop offset="0.63" stop-color="#FFBB9B"/>
<stop offset="0.98" stop-color="#FFD1A5"/>
<stop offset="1" stop-color="#FFD3A6"/>
</radialGradient>
<linearGradient id="paint2_linear_660_24253" x1="188.428" y1="156.236" x2="185.315" y2="170.75" gradientUnits="userSpaceOnUse">
<stop offset="0.0619263" stop-color="#B5515E" stop-opacity="0"/>
<stop offset="0.265081" stop-color="#B5515E"/>
<stop offset="0.541667" stop-color="#B5515E" stop-opacity="0.910296"/>
<stop offset="0.967886" stop-color="#B5515E" stop-opacity="0"/>
</linearGradient>
</defs>
</svg>
