<svg width="370" height="490" viewBox="0 0 370 490" fill="none" xmlns="http://www.w3.org/2000/svg">
<g clip-path="url(#clip0_660_24253)">
<path d="M133 271.5C133 271.5 159 273 148 210.5C148 210.5 155.21 208.541 159 208.5C159 208.5 174.5 277 132 277L133 271.5Z" fill="#3C2415"/>
<path d="M236.257 270.5C236.257 270.5 210.257 272 221.257 209.5C221.257 209.5 214.048 207.541 210.257 207.5C210.257 207.5 194.757 276 237.257 276L236.257 270.5Z" fill="#3C2415"/>
<path fill-rule="evenodd" clip-rule="evenodd" d="M234.044 217.63C232.838 216.597 231.475 215.529 229.931 214.436C217 206.5 185 201.5 147.5 211C142.538 212.406 138.129 214.978 134.458 217.937L134.479 217.519C136.529 205.291 142.909 200.755 152.163 200.644L212.294 198.5C222.207 198.843 232.526 205.878 234.044 217.63Z" fill="#ED1C24"/>
</g>
<defs>
<clipPath id="clip0_660_24253">
<rect width="107.5" height="78.5" fill="white" transform="translate(131 198.5)"/>
</clipPath>
</defs>
</svg>
