<svg width="204" height="34" viewBox="0 0 204 34" fill="none" xmlns="http://www.w3.org/2000/svg">
<path d="M152.898 20.6681C156.512 20.5089 156.344 21.066 157.52 20.8272C157.688 20.8272 157.857 20.9864 157.857 21.1456C158.025 20.9068 157.436 21.7027 157.52 21.5435C157.016 21.4639 156.512 21.4639 156.007 21.7027C155.839 21.7823 155.839 21.9414 155.671 22.1802C157.268 22.4189 161.05 22.1802 161.639 22.976C161.555 23.6127 161.219 23.5331 159.706 23.6923C159.706 23.8515 159.538 23.7719 160.63 24.0106C160.882 24.329 160.714 24.329 158.613 24.329C157.604 24.329 157.352 23.7719 156.26 23.8515C155.671 23.9311 155.167 23.5331 154.579 23.6923L152.898 20.6681ZM157.268 17.0867C157.52 17.0867 157.688 17.0072 157.857 17.3255C157.857 17.4051 157.773 17.4847 157.688 17.4847L157.268 17.0867ZM153.318 11.8341C155.587 12.0729 157.773 11.9137 160.042 12.0729C160.798 12.1525 160.714 12.1525 160.63 12.7891C162.227 13.5054 166.009 13.1075 168.279 13.585C167.438 13.6646 166.934 13.9033 166.514 13.8237C165.841 13.6646 165.253 13.9033 164.833 14.4604C163.488 14.4604 162.984 14.1421 161.723 14.3013C161.555 14.3013 161.387 14.3013 161.219 14.2217C159.958 13.585 157.436 13.9829 156.596 13.7442C155.503 13.4258 154.411 13.6646 153.318 13.585V11.8341ZM19.006 25.3636C19.0901 25.4432 19.3422 25.1248 19.3422 25.0453C19.3422 24.8861 19.1741 24.6473 19.006 24.5677C18.922 24.5677 19.006 24.5677 18.5858 24.5677C18.4177 24.4086 18.0815 23.8515 17.325 23.8515C15.3078 23.9311 13.2906 23.4536 11.2734 23.7719C10.4329 23.8515 10.2648 23.2944 8.75195 24.0106C6.90285 23.2148 4.88565 23.374 2.70035 23.4536C2.4482 23.4536 2.36415 23.4536 1.7758 22.8965C2.4482 22.4985 3.2887 22.8965 3.87705 22.6577C4.38135 22.021 3.6249 21.1456 4.71755 20.9864C5.05375 20.9068 4.6335 20.9864 6.90285 20.8272C7.3231 20.2701 7.155 19.2355 6.4826 19.156C4.71755 18.9172 6.56665 19.3151 0.430999 18.5989C0.0107492 18.5193 -0.157351 17.8826 0.178849 17.803C0.935299 17.5642 1.18745 17.6438 2.7844 17.6438C2.70035 17.3255 2.36415 17.4051 2.19605 17.2459C2.02795 17.0867 2.02795 16.9276 2.19605 16.6888C6.06235 16.2909 4.8016 16.1317 7.4912 16.1317C8.75195 16.1317 10.0127 15.7338 11.2734 15.495C13.7949 14.9379 13.2906 15.7338 14.2992 15.4154C15.3078 15.0971 15.7281 16.0521 16.8207 15.2563L16.9048 15.3359C16.6526 15.2563 16.5686 15.0175 16.4005 14.9379C15.9802 14.8584 14.8035 15.1767 13.2906 14.6992C11.9458 14.2217 11.0213 14.6992 10.601 14.3013C11.0213 13.9829 11.5256 14.2217 11.9458 14.1421C12.3661 14.0625 12.7023 13.9829 13.1225 13.9829C13.3747 12.7096 11.7777 13.0279 11.4415 12.8687C10.0967 12.3116 9.34029 12.63 7.3231 12.7096C6.73475 12.1525 7.155 12.3116 5.22185 12.232C4.54945 12.232 4.88565 11.5158 5.1378 11.4362C6.8188 10.8791 6.1464 11.6749 6.90285 10.6403C7.8274 9.84449 16.3164 11.0383 18.0815 10.0037C18.5017 9.7649 18.7539 9.92407 22.8723 10.0832C24.5533 10.1628 24.5533 10.5608 25.9822 10.4812C29.6804 10.2424 29.092 10.4812 29.5123 9.7649C31.6976 8.80988 32.7902 9.60573 35.732 8.80988C36.0682 8.73029 36.4044 8.73029 36.7406 8.65071C36.7406 8.33237 36.5725 8.33237 36.4884 8.33237C33.2945 8.09361 26.5705 8.73029 25.3098 8.25278C25.3938 8.09361 25.3938 7.93444 25.4779 7.93444C26.0662 7.77527 26.7386 7.53651 27.327 7.6161C28.9239 7.85486 28.9239 7.69569 35.816 7.53652C38.0013 7.53652 37.1608 6.89983 39.2621 7.13859C42.54 7.45693 53.5506 6.82025 56.3242 7.53652C56.7445 7.6161 57.2488 7.69569 57.669 7.6161C58.1733 7.53651 58.6776 7.69569 59.35 7.77527C60.8629 7.29776 61.4513 7.059 62.1237 7.37735C62.4599 7.53652 62.7961 7.13859 63.6366 7.29776C67.0826 7.69569 68.0912 7.21817 68.5955 7.29776C69.6882 7.6161 70.6968 7.29776 70.8649 7.37735C71.7894 7.93444 74.395 6.89983 77.4208 7.77527C85.5736 5.70606 68.6796 6.58149 31.0252 6.82025C29.8485 6.82025 26.5705 7.13859 24.9736 7.059C23.3766 6.97942 17.4091 6.97942 15.3078 7.37735C15.1397 7.53652 14.9716 7.6161 14.8876 7.69569C13.2906 7.13859 10.8532 7.69569 9.17219 7.37735C9.25624 7.29776 9.34029 7.13859 9.34029 7.13859C10.7691 7.21817 12.198 6.74066 13.6268 6.74066C14.4673 6.74066 14.3833 6.18357 16.3164 6.26315C18.3336 6.42232 18.3336 6.0244 22.1999 6.10398C24.4693 6.18357 23.965 6.26315 25.646 5.14896C26.6546 5.14896 26.4024 4.98979 26.9908 5.78564C30.3528 5.94481 77.757 5.38772 77.757 5.38772C79.0177 5.38772 78.5975 4.9102 80.6147 4.9102C84.7331 4.9102 92.7178 4.9102 99.1057 4.9102C99.694 4.9102 100.282 4.67145 100.787 4.75103C101.375 4.83062 101.963 4.75103 102.468 4.67145C103.728 4.51228 103.728 4.9102 105.073 4.9102C115.495 4.9102 115.159 5.06937 115.243 4.35311C114.739 4.11435 114.235 4.27352 113.73 4.27352C111.881 4.11435 113.31 4.75103 110.62 4.19394C110.536 4.19394 110.452 4.03477 110.284 4.03477C110.368 3.95518 110.368 3.8756 110.452 3.8756C115.411 3.55726 115.748 4.11435 118.773 4.11435C122.219 4.11435 122.219 4.03477 122.64 4.67145C124.321 4.83062 123.564 4.83062 124.405 5.06937C126.254 5.62647 126.002 5.38772 128.355 5.4673C130.036 5.4673 129.784 5.70606 130.877 5.86523C131.381 5.94481 131.885 5.86523 132.389 5.94481C134.743 6.58149 135.415 5.78564 139.534 6.34274C140.122 6.0244 140.794 5.78564 141.467 6.26315C141.383 6.10398 141.551 6.42232 141.551 6.58149C141.719 7.85486 145.837 6.34274 147.35 7.21817C148.275 7.77527 149.283 7.21817 150.88 6.89983C151.637 6.82025 153.15 6.97942 152.814 7.77527C152.057 8.1732 151.637 7.77527 146.93 7.93444C147.182 8.33237 146.846 8.01403 152.982 8.25278C159.622 8.49154 159.706 8.1732 161.471 8.49154C161.891 8.57112 160.546 8.49154 167.018 8.49154C174.919 8.57112 176.936 9.92407 184.753 9.28739C185.593 8.25278 185.677 8.41195 187.022 8.41195C187.862 9.12822 187.862 9.12822 188.703 9.2078C189.712 9.36697 192.821 9.2078 192.821 9.2078C194.334 9.04863 193.662 9.44656 199.545 9.36697C204.168 9.28739 203.328 9.36697 204 9.52614C204 9.7649 204 10.0037 203.832 10.0037C202.739 10.1628 197.276 10.2424 195.931 10.4016C195.763 10.4016 195.679 10.6403 195.595 10.7199C195.679 11.4362 196.267 11.4362 196.94 11.7545C186.434 11.9137 189.627 11.7545 189.375 12.5504C188.535 12.9483 187.442 12.63 187.694 14.0625C187.946 14.1421 188.199 14.3013 188.451 14.3808C188.703 14.9379 187.778 14.8584 187.526 15.3359C188.115 15.495 188.619 15.7338 189.039 16.2113C189.375 16.6092 190.048 16.6092 190.132 17.4847C190.3 17.1663 190.468 16.9276 190.552 16.6888C190.888 17.5642 190.552 17.0867 191.981 17.9622C192.233 18.1213 192.401 18.3601 192.401 18.758C192.485 18.6784 192.737 18.6784 190.72 18.9968C190.468 19.156 190.132 19.3151 190.132 19.8722C190.972 20.4293 190.552 20.4293 193.242 20.3497C193.41 20.3497 193.494 20.2701 193.746 20.111C193.662 19.713 193.578 19.3947 193.494 19.156C193.494 19.156 197.444 19.2355 197.948 19.3947C198.117 19.3947 198.285 19.6335 198.201 19.7926C198.032 20.1906 198.032 20.111 196.099 20.3497C195.343 20.4293 195.427 20.3497 195.427 21.3048C195.007 21.7027 194.502 21.1456 193.998 21.4639C194.082 21.6231 194.166 21.7823 194.25 21.8618C195.175 22.4189 194.923 21.9414 195.175 22.6577C193.494 23.1352 192.233 22.1802 192.149 23.1352C192.149 23.8515 192.149 23.8515 191.561 24.1698C190.132 23.0556 190.636 23.2148 189.459 23.374C189.123 24.2494 189.123 24.5677 188.283 24.4882C181.895 23.7719 184.08 23.2944 181.138 23.8515C180.97 24.1698 181.054 24.329 181.307 24.4882V24.4086L19.006 25.3636ZM13.0385 27.592C13.1225 27.5124 13.2066 27.5124 12.0299 27.592V27.6716C11.2734 26.4778 5.72615 27.9899 3.4568 26.637C3.6249 26.3186 3.6249 26.239 3.793 26.1594C8.75195 25.8411 9.42435 26.4778 11.0213 25.9207C11.0213 25.6819 11.0213 25.5228 10.9372 25.284C11.5256 24.9657 12.198 25.2044 12.7863 25.284L13.0385 27.592ZM155.755 24.4882C156.764 24.4882 156.007 24.4086 159.033 24.8861C159.369 25.1248 159.454 25.5228 159.538 25.8411C159.454 26.239 159.201 26.3982 158.949 26.4778C156.26 26.7165 155.923 26.4778 157.604 26.8757C157.688 27.1941 157.604 27.2736 157.436 27.2736C156.092 27.2736 154.747 27.1941 153.486 26.8757C152.225 27.3532 153.402 27.1941 147.266 27.3532C147.434 27.6716 147.687 27.592 147.855 27.6716C150.04 28.1491 149.956 28.2287 150.04 28.3082L155.755 24.4882ZM54.8954 9.28739C54.9794 9.36697 55.0635 9.44656 55.1475 9.44656C55.6518 9.44656 55.5678 9.12822 55.7359 9.04863C55.5678 9.28739 55.2316 9.04863 54.8954 9.28739ZM116.336 4.67145V4.51228C116.756 5.06937 117.765 4.83062 118.185 4.75103C117.513 4.67145 116.924 4.59186 116.336 4.67145ZM12.7023 18.5193C12.4501 18.4397 12.282 18.1213 11.9458 18.4397C12.282 18.5989 12.5342 18.5193 12.7023 18.5193C12.6182 19.5539 14.9716 19.4743 14.9716 20.0314C14.9716 20.4293 15.1397 20.7477 15.4759 20.7477C16.6526 20.9068 17.7453 21.066 18.922 20.8272C19.006 20.8272 19.0901 20.6681 19.1741 20.5885C18.4177 19.8722 18.5017 20.111 18.8379 19.7926C19.2582 19.4743 19.2582 19.3947 19.006 18.758C15.0557 18.2009 14.0471 18.0418 12.7023 18.5193ZM179.457 25.0453V25.1248C179.121 24.7269 179.878 24.4882 179.794 24.0902C179.205 23.8515 178.701 23.5331 178.197 23.2944C177.356 23.2148 176.095 23.6127 174.751 23.1352C174.498 23.0556 172.481 23.0556 170.968 23.0556C170.884 23.0556 170.8 23.1352 170.716 23.2148C170.8 23.4536 170.8 23.6923 170.884 24.0106C169.287 24.4882 168.951 23.374 165.589 23.374C163.488 23.374 161.303 23.5331 159.201 23.0556C157.688 23.0556 156.176 23.0556 154.747 23.2148C156.344 23.374 157.604 23.2148 158.025 23.4536C158.865 23.8515 159.454 23.7719 163.32 23.8515C165.001 23.8515 163.824 24.2494 166.43 24.1698C168.531 24.0902 168.279 24.8861 170.128 24.9657C170.464 24.9657 172.313 25.2044 172.481 24.6473C172.733 23.6127 173.406 23.6923 174.246 23.9311C173.91 24.5677 173.994 24.4086 173.658 24.6473C173.574 24.7269 173.406 24.7269 173.406 24.9657C173.742 24.9657 174.078 25.0453 174.498 25.0453C177.104 25.0453 178.113 26.1594 179.457 25.0453ZM83.2202 9.36697C83.3043 9.12822 83.1362 8.96905 82.9681 8.96905C82.5478 8.88946 82.0435 8.80988 81.6233 8.88946C80.8668 9.04863 78.0091 8.65071 76.076 8.88946C73.3864 9.2078 72.6299 8.88946 71.033 9.28739C73.9747 9.84449 74.479 9.36697 75.8238 9.84449C76.9165 10.1628 78.5134 9.84449 80.7828 9.92407C81.7073 9.92407 82.4638 9.7649 83.2202 9.36697ZM166.682 12.7096C173.826 12.9483 166.178 12.63 176.6 12.7891C179.121 12.8687 178.113 12.5504 179.626 12.3912C179.794 12.3912 179.794 12.3912 180.046 12.0729C179.794 12.0729 179.541 11.9933 179.373 11.9933C169.708 12.0729 169.792 11.8341 166.682 12.7096ZM182.567 18.758C183.156 19.6335 183.996 19.156 184.753 19.6335C185.341 20.4293 184.921 20.2701 186.686 20.5089C187.106 20.111 187.442 19.8722 187.862 19.5539C187.862 19.3947 187.694 18.758 187.274 18.6784C185.677 18.4397 184.164 18.5193 182.567 18.758ZM182.231 13.1871C181.979 13.1871 181.727 13.585 181.811 13.9033C181.895 14.3808 181.895 14.3013 186.097 14.3808C186.181 14.3808 186.265 14.3013 186.434 14.2217C186.097 13.0279 186.602 13.1871 182.231 13.1871ZM179.962 13.9033C179.794 13.6646 179.626 13.4258 179.373 13.4258C178.197 13.3462 177.104 13.3462 176.011 13.585C175.759 13.6646 175.675 13.8237 175.591 14.1421C175.507 14.54 179.626 14.2217 179.626 14.2217C179.71 14.2217 179.878 14.0625 179.962 13.9033ZM42.2038 9.68531C40.3547 9.52614 38.5897 9.92407 36.8246 9.92407C30.0166 9.92407 33.6307 10.8791 41.7836 9.92407C41.9517 9.92407 42.0357 9.7649 42.2038 9.68531ZM151.301 26.0003C152.645 26.239 152.73 26.0003 153.318 26.1594C154.326 26.3982 155.251 26.239 156.176 26.0799C156.26 26.0799 156.26 26.0003 156.344 25.9207L151.301 26.0003ZM64.393 9.28739C63.2163 8.96905 63.0482 9.28739 61.5353 9.12822C59.35 8.96905 59.266 9.28739 58.0893 8.96905C57.585 8.88946 57.0807 8.88946 56.5764 9.04863C56.5764 9.04863 56.4923 9.12822 56.4923 9.2078C56.7445 9.60573 56.4923 9.52614 63.8047 9.44656C63.9728 9.44656 64.1409 9.36697 64.393 9.28739ZM30.1006 24.0106C29.5123 23.9311 28.9239 23.7719 28.5877 24.4882C28.4196 24.8065 28.1675 24.5677 28.1675 25.2044C28.1675 25.4432 29.5123 25.4432 30.1847 25.3636C30.1847 24.329 30.1847 24.7269 30.1006 24.0106ZM34.2191 13.5054C36.2363 13.6646 38.3375 13.7442 40.3547 13.4258C38.2535 13.2666 36.2363 13.2666 34.2191 13.5054ZM18.3336 13.9033C17.325 13.4258 16.7367 12.9483 15.8121 13.2666C15.56 13.3462 15.3919 13.585 15.3919 13.8237C15.3919 14.1421 15.4759 14.1421 17.8293 14.0625C17.9974 14.0625 18.0815 13.9829 18.3336 13.9033ZM18.3336 17.1663C17.9974 17.0072 18.5858 17.0072 15.1397 16.848C13.7949 16.7684 14.2992 17.4051 14.2992 17.4051C15.1397 17.4847 17.241 17.4051 18.3336 17.1663ZM160.798 19.0764C160.966 20.1906 162.059 19.713 162.984 19.5539C163.152 19.5539 162.984 19.1559 162.9 19.0764C162.143 18.9968 161.471 18.9968 160.798 19.0764ZM19.1741 13.9829C20.0146 13.9033 21.0232 14.0625 20.4349 12.9483C19.7625 12.9483 20.1827 12.7891 19.1741 13.9829ZM54.1389 9.28739C49.9364 9.2078 49.9364 9.44656 53.5506 9.52614C53.6346 9.52614 53.8027 9.44656 54.1389 9.28739ZM28.9239 23.2944C29.8485 23.4536 29.8485 23.4536 30.3528 23.2148C30.0166 22.8169 29.5963 22.7373 29.092 22.8965C29.008 22.8965 29.008 23.1352 28.9239 23.2944ZM163.74 12.7096C163.068 12.7096 162.479 12.4708 161.891 12.7096C162.479 12.7096 163.068 12.7096 163.74 12.7096ZM90.7007 6.42232C90.7847 6.50191 90.6166 6.50191 92.2135 6.50191C92.2135 6.42232 92.4657 6.42232 90.7007 6.42232ZM135.079 7.21817C135.583 7.37734 136.172 7.29776 136.676 7.29776C136.592 7.21817 136.76 7.21817 135.079 7.21817ZM26.0662 15.1767C26.6546 15.3359 27.1589 15.4154 27.7472 15.2563C27.8313 15.2563 27.8313 15.0971 27.9153 15.0175C27.9994 14.8584 27.1589 14.6992 26.3184 14.9379C26.2343 14.9379 26.1503 15.0175 26.0662 15.1767ZM32.5381 23.2944C32.454 22.8169 32.37 22.7373 32.0338 22.6577C31.8657 22.6577 31.6976 22.6577 31.6135 22.8965C31.4454 23.2148 32.1178 23.6127 32.5381 23.2944ZM191.224 21.3048C192.737 21.3843 192.485 21.4639 192.653 21.2252C192.149 21.066 191.645 20.9864 191.224 21.3048ZM122.303 6.42232C122.724 6.50191 123.144 6.89983 123.48 6.42232C123.06 6.42232 122.64 6.42232 122.303 6.42232ZM142.223 8.1732C142.644 8.09361 142.98 8.33237 143.4 8.01403C143.064 8.01403 142.728 7.93444 142.223 8.1732ZM94.5669 6.82025C94.2308 6.26315 93.9786 6.82025 94.0627 6.89983C94.3988 6.97942 94.3988 6.89983 94.5669 6.82025ZM171.052 19.6335C170.884 19.4743 170.632 19.3947 170.38 19.6335C170.632 19.6335 170.884 19.6335 171.052 19.6335ZM35.9001 11.9137C35.732 11.6749 35.4798 11.5954 35.1436 11.8341C35.4798 11.9137 35.732 11.9137 35.9001 11.9137ZM10.8532 17.1663C10.8532 17.0867 10.7691 16.848 10.4329 16.848C10.0127 16.7684 10.0967 17.1663 10.3489 17.1663C10.517 17.1663 10.6851 17.1663 10.8532 17.1663ZM174.583 18.8376C174.835 18.9172 175.087 18.9968 175.339 18.8376C175.087 18.6784 174.835 18.6784 174.583 18.8376ZM43.6327 9.7649C43.2124 9.68532 43.2965 9.68531 43.1284 9.68531C43.2965 9.84449 43.3805 9.92407 43.6327 9.7649ZM167.186 19.156C167.018 19.156 167.102 19.156 167.186 19.156C167.018 19.156 167.102 19.156 167.186 19.156ZM25.0576 11.9933C25.0576 12.0729 24.9736 12.0729 24.9736 12.1525C24.8895 12.8687 25.3098 12.4708 25.0576 11.9933ZM158.949 24.8861C158.529 24.8065 158.697 24.8065 158.529 24.8861C158.697 24.8861 158.865 24.8861 158.949 24.8861ZM160.294 24.8861C160.126 24.8861 160.21 24.8861 160.294 24.8861C160.126 24.8861 160.21 24.8861 160.294 24.8861ZM89.692 6.50191C89.5239 6.50191 89.5239 6.50191 89.692 6.50191V6.50191ZM38.4216 8.57112C38.2535 8.49154 38.3375 8.49154 38.3375 8.57112H38.4216ZM47.6671 9.36697C47.583 9.36697 47.583 9.36697 47.6671 9.36697V9.36697ZM143.652 9.36697C143.82 9.36697 143.82 9.36697 143.652 9.36697V9.36697ZM23.1245 13.9033V13.8237C22.9564 13.8237 22.9564 13.9033 23.0404 13.9829C23.0404 13.9829 23.0404 13.9033 23.1245 13.9033ZM11.6937 17.0867C11.5256 17.1663 11.5256 17.1663 11.6937 17.1663V17.0867ZM34.5553 18.2805C34.3872 18.2805 34.3872 18.3601 34.4712 18.4397C34.4712 18.4397 34.5553 18.4397 34.6393 18.4397C34.6393 18.3601 34.6393 18.3601 34.5553 18.2805ZM35.816 18.2805V18.3601C35.9841 18.4397 36.1522 18.2805 35.9001 18.2009C35.9001 18.2805 35.9001 18.2805 35.816 18.2805ZM180.802 18.8376C180.97 18.758 180.97 18.8376 180.802 18.8376V18.8376ZM165.925 19.2355C165.925 19.2355 165.925 19.156 165.841 19.156C165.673 19.156 165.673 19.2355 165.757 19.2355C165.841 19.2355 165.925 19.2355 165.925 19.2355ZM168.447 19.6335C168.279 19.5539 168.279 19.5539 168.279 19.6335H168.447ZM181.391 19.5539C181.559 19.6335 181.559 19.6335 181.559 19.5539H181.391ZM187.19 23.374C187.19 23.2944 187.19 23.2148 187.022 23.2148L186.938 23.2944C187.022 23.2944 187.106 23.2944 187.19 23.374ZM189.627 17.4051C189.543 17.5642 189.543 17.4847 189.712 17.4847L189.627 17.4051ZM25.73 12.1525C25.646 12.3116 25.646 12.232 25.73 12.232V12.1525Z" fill="#ECB942"/>
<path d="M41.1113 24.9658C41.3634 24.4883 41.4475 24.4883 47.0788 24.4883C47.8353 24.4883 49.8525 24.5679 49.8525 24.5679C52.0378 25.2046 54.8955 24.727 56.1562 25.125C56.0722 25.6025 55.5679 25.2841 55.3998 25.6821C55.5679 25.7617 55.6519 25.8412 55.82 25.8412C57.8372 25.7617 58.4256 25.5229 58.8458 26.0004C58.5096 26.3188 58.0894 26.2392 57.6691 26.2392C56.1562 26.08 54.5593 26.3983 53.0464 26.2392C51.2813 26.0004 50.6089 26.7167 48.0874 26.7167C46.1543 26.7167 45.4819 26.7167 44.5573 27.2738C44.3892 27.5125 44.3052 28.0696 43.8009 27.99C41.6996 27.6717 39.5984 28.3084 39.1781 28.0696C39.01 27.5921 39.3462 27.1942 39.5143 26.7167C39.7665 26.4779 40.1027 26.1596 40.4389 25.9208C40.691 25.6821 40.8591 25.2046 41.1113 24.9658C41.1953 25.2046 41.1113 25.4433 41.3634 25.6025C41.6156 25.6025 41.8677 25.7617 42.1199 25.6025C41.7837 25.3637 41.4475 25.125 41.1113 24.9658ZM43.2966 25.6025C44.6414 25.5229 44.9776 26.0004 46.5745 25.3637C46.6586 25.3637 46.6586 25.2046 46.6586 25.0454C43.0444 24.9658 43.5487 25.0454 43.2966 25.6025Z" fill="#ECB942"/>
<path d="M130.624 24.3295C132.474 24.0111 132.39 24.4886 133.146 24.409C134.155 24.2499 135.92 24.807 136.34 24.7274C136.844 24.5682 137.348 24.9661 137.853 24.807C138.357 24.6478 139.282 25.1253 140.038 25.2049C140.542 25.2049 141.047 25.4436 141.551 25.6028C141.635 25.6824 141.719 25.8416 141.803 26.0803C140.29 27.1149 138.525 25.8416 136.004 26.1599C132.137 26.6374 120.118 25.762 118.437 25.3641C118.437 25.2049 118.437 25.0457 118.521 24.8866C119.446 24.6478 122.556 24.5682 125.077 24.9661C127.767 25.4436 128.523 25.3641 129.448 24.807C129.364 24.6478 129.532 25.1253 129.868 25.2049C131.297 25.2845 130.54 25.0457 131.045 25.3641C131.045 25.3641 131.129 25.3641 131.129 25.2845C130.793 25.0457 130.877 25.2049 130.624 24.3295Z" fill="#ECB942"/>
<path d="M29.3442 4.831C29.6804 4.59213 30.1007 4.67175 30.5209 4.67175C33.8829 4.831 46.8266 3.87552 54.3911 3.7959C54.7273 3.7959 55.0635 3.7959 55.3997 4.03477C55.3157 4.11439 55.3157 4.11439 55.2316 4.19401C49.2641 5.30873 48.8438 4.27364 47.3309 4.91062C28.7559 5.5476 29.7645 5.5476 29.3442 4.831Z" fill="#ECB942"/>
<path d="M72.7981 3.95488C72.714 4.19375 72.63 4.43262 72.5459 4.43262C72.2938 4.51224 71.9576 4.67149 71.7054 4.59186C70.1925 4.27337 68.6797 4.59186 67.2508 4.51224C65.822 4.43262 64.3931 4.51224 62.9643 4.51224C61.9557 4.51224 61.1992 4.11413 59.0139 4.51224C58.8458 4.51224 58.0894 4.43262 58.0894 4.27337C58.0894 3.07904 59.0139 3.39753 68.0913 3.47715C70.7809 3.55677 71.5373 3.31791 72.7981 3.95488Z" fill="#ECB942"/>
<path d="M98.3491 22.897C100.03 23.0561 101.795 23.3745 103.476 23.852C103.644 23.852 103.728 24.0907 103.896 24.1703C103.98 24.0907 104.149 24.0907 102.636 24.3295C103.14 25.0458 103.812 24.8866 104.401 25.1253C104.989 25.3641 105.577 25.3641 106.166 25.4437C106.25 25.8416 106.082 26.0008 105.914 26.1599C105.409 27.1946 106.922 27.5925 101.039 25.8416C100.534 25.6824 100.03 25.4437 99.5258 25.2845C99.3577 24.4887 99.5258 24.7274 98.8534 24.3295C98.8534 24.0907 98.6013 24.1703 100.282 24.0111C99.778 23.3745 99.2737 23.4541 98.4332 23.1357C98.4332 23.1357 98.4332 22.7378 98.3491 22.897Z" fill="#ECB942"/>
<path d="M191.813 6.50192C191.14 6.89985 187.778 7.1386 187.778 7.1386C187.526 7.37736 187.358 7.53653 187.19 7.6957C186.854 7.6957 186.686 7.29778 186.265 7.1386C183.24 7.05902 182.651 7.29777 180.802 6.50192C180.802 6.104 180.886 6.02441 181.138 6.02441C181.475 6.02441 189.375 6.02441 189.375 6.02441C191.308 6.02441 191.645 6.42234 191.813 6.50192Z" fill="#ECB942"/>
<path d="M94.9031 23.6129C94.0626 23.6924 93.2221 23.772 92.2975 23.8516C92.3816 24.6475 94.3147 24.17 94.9871 24.8066C93.9785 25.2842 89.9441 25.0454 88.5153 24.6475C87.2545 24.3291 87.3386 24.8066 86.7502 24.0904C86.0778 23.2945 88.9355 23.2945 89.9441 23.2149C91.6251 23.2149 93.3061 23.1353 94.9031 23.6129ZM89.0196 23.9312C89.3558 24.3291 89.776 24.17 90.1122 24.0108C89.776 23.6924 89.4398 23.6129 89.0196 23.9312Z" fill="#ECB942"/>
<path d="M195.007 15.7334C194.671 15.4947 194.334 15.1763 193.998 15.0968C193.494 15.0172 193.242 15.813 192.737 15.6539C192.569 15.5743 192.569 15.5743 192.569 15.0172C191.897 14.9376 191.309 14.9376 190.804 15.4151C189.88 15.0172 189.459 15.0172 189.796 14.4601C192.906 14.2213 196.772 14.3805 197.612 14.4601C197.696 14.6193 197.78 14.6988 197.78 14.858C197.864 15.2559 196.688 15.0968 197.444 16.0518C197.276 15.8926 197.612 16.211 196.772 16.6089C196.099 16.5293 195.343 16.3701 194.671 16.2905C194.923 15.9722 195.175 15.3355 195.007 15.7334Z" fill="#ECB942"/>
<path d="M93.3061 4.67174C92.6337 4.35325 92.6337 4.35325 92.4656 3.87552C93.3061 3.7959 105.073 3.71628 106.838 3.95514C104.485 4.59212 105.745 4.35325 103.896 4.27363C98.5172 4.11439 97.1724 4.43287 94.903 4.27363C94.3147 4.35325 93.8104 4.43287 93.3061 4.67174Z" fill="#ECB942"/>
<path d="M28.6716 24.2499C28.4195 23.4537 27.4949 23.2148 35.4797 23.613C35.6478 23.8518 35.4797 24.0111 35.3116 24.0111C34.1349 24.2499 29.6802 24.4888 28.6716 24.2499Z" fill="#ECB942"/>
<path d="M77.1685 25.3638C78.9335 24.8064 79.1857 25.6026 79.6059 25.3638C80.6145 24.886 82.3796 25.2841 84.4808 25.6026C84.5649 25.6026 84.5648 25.7619 84.6489 25.9211C84.3967 26.16 78.8495 26.0007 77.3366 25.6026C77.3366 25.6823 77.2525 25.523 77.1685 25.3638Z" fill="#ECB942"/>
<path d="M28.0835 27.3535C28.5037 27.2738 28.8399 27.1942 29.2602 27.1146C29.2602 27.1146 29.9326 25.761 30.3528 26.9553C30.9412 27.1146 31.5295 27.035 32.0338 26.9553C33.3786 26.7165 36.1523 26.6369 36.9087 26.9553C33.967 27.5127 31.0252 27.8312 28.0835 27.3535Z" fill="#ECB942"/>
<path d="M111.377 1.01074C113.898 1.64802 116.42 1.64802 103.56 1.64802C103.897 1.32938 104.149 1.4887 104.401 1.4887C110.452 1.40904 109.024 1.64802 111.377 1.01074Z" fill="#ECB942"/>
<path d="M109.023 25.2846C108.939 26.0808 108.603 25.9216 106.166 25.4438C103.812 25.0457 103.644 24.8865 103.392 24.568C103.644 24.0903 103.644 24.4884 107.258 24.7272C107.847 24.8068 108.435 24.9661 109.023 25.2846Z" fill="#ECB942"/>
<path d="M73.6387 4.43297C74.0589 4.1941 74.4792 4.35335 74.9835 4.27372C75.3197 4.11447 75.824 3.87559 76.1602 3.63672C80.0265 3.87559 80.0265 3.79597 79.9424 4.1941C79.9424 4.27372 79.6062 4.43297 79.5222 4.43297C77.2528 4.27372 77.2528 4.99035 75.6559 4.75147C75.0675 4.59222 74.3951 4.59222 73.6387 4.43297Z" fill="#ECB942"/>
<path d="M76.4963 25.6025C75.992 26.2398 75.6558 25.5228 74.4791 25.6822C74.0589 25.7618 73.5546 25.9212 73.1343 25.8415C72.2938 25.6822 71.4533 25.7618 70.6128 25.5228C69.4361 25.1245 73.2184 25.0449 76.4123 25.2838C76.4123 25.4432 76.4123 25.5228 76.4963 25.6025Z" fill="#ECB942"/>
<path d="M100.955 26.7959C103.224 26.3978 103.56 26.4774 104.485 26.8755C104.485 27.0348 104.485 27.2737 104.401 27.4329C104.233 27.9903 103.476 27.7514 103.392 27.6718C102.72 27.0348 101.963 27.0348 100.955 26.7959Z" fill="#ECB942"/>
<path d="M97.5088 1.64723C97.929 0.53205 98.3493 1.3286 102.3 1.48791C100.535 1.72688 98.6014 1.80654 97.5088 1.64723Z" fill="#ECB942"/>
<path d="M146.846 6.50217C146.342 6.98014 145.837 6.18353 145.165 6.50217C144.829 6.6615 144.409 6.42251 143.988 6.58183C143.988 6.58183 143.736 6.26319 143.988 6.18353C144.661 6.02421 146.846 5.70556 146.846 6.50217Z" fill="#ECB942"/>
<path d="M47.1628 29.5814C47.6671 28.9448 49.5162 29.7406 51.1132 29.0243C51.2813 28.9448 51.3653 29.5018 50.861 29.661C50.1886 29.8202 49.5162 29.5018 47.9193 29.8202C47.7512 29.8202 47.415 29.8202 47.1628 29.5814Z" fill="#ECB942"/>
<path d="M150.376 6.3435C150.881 5.86553 152.141 5.94519 152.814 6.18418C152.898 6.18418 153.066 6.42317 153.15 6.58249C152.73 6.82148 152.309 6.66215 151.973 6.74182C151.637 6.82148 151.301 6.50283 151.049 6.42317C150.796 6.26384 150.544 6.26384 150.376 6.3435Z" fill="#ECB942"/>
<path d="M21.9477 27.9901C21.4434 28.3882 20.0986 28.0697 19.3422 27.6716C19.2581 27.6716 19.09 27.3531 19.3422 27.2735C19.9305 27.1142 20.6029 27.592 21.1913 27.3531C21.4434 27.5124 21.8637 27.5124 21.9477 27.9901Z" fill="#ECB942"/>
<path d="M119.95 1.64749C121.295 0.0550972 122.724 1.40863 122.22 1.56787C121.715 1.80673 122.136 1.72711 119.95 1.64749Z" fill="#ECB942"/>
<path d="M167.186 27.1148C166.682 27.3538 166.262 27.1148 165.757 26.7962C166.766 26.4776 166.85 26.4776 167.186 27.1148Z" fill="#ECB942"/>
<path d="M58.2573 27.433C57.3328 28.07 57.4168 28.1496 56.9966 27.5923C56.9966 27.3534 57.0806 27.1146 57.0806 26.7961C57.0806 26.5572 57.3328 26.4776 57.4168 26.5572C57.753 26.7961 58.0052 27.1146 58.2573 27.433Z" fill="#ECB942"/>
<path d="M92.1295 29.8998C92.7178 29.6609 92.4657 29.5016 93.6423 30.5367C93.054 30.696 92.5497 30.696 92.0454 30.5367C91.9614 30.5367 91.8773 30.3775 91.7933 30.2979C91.7933 30.2979 91.6252 30.4571 92.1295 29.8998Z" fill="#ECB942"/>
<path d="M164.665 26.7961C164.581 27.274 164.581 27.274 164.329 27.3537C163.908 27.3537 163.572 27.1147 163.404 26.7164C163.824 26.6368 164.245 26.4775 164.665 26.7961Z" fill="#ECB942"/>
<path d="M31.6136 25.4433C29.5124 25.5229 29.7645 25.6024 29.6805 25.2842C29.5964 25.1251 30.1007 25.2047 31.6136 25.2842C31.6136 25.2842 31.6136 25.3638 31.6136 25.4433Z" fill="#ECB942"/>
<path d="M141.635 6.26374C142.391 5.86543 142.476 5.86543 142.98 6.42306C142.223 6.98069 141.467 6.02475 141.635 6.26374Z" fill="#ECB942"/>
<path d="M172.061 6.18344C172.565 5.86478 173.406 6.10377 173.07 6.2631C172.902 6.34276 172.733 6.58176 172.481 6.58176C172.313 6.58176 172.061 6.50209 172.061 6.18344Z" fill="#ECB942"/>
<path d="M15.0557 27.7514C15.3919 27.4327 15.8121 27.592 16.1483 27.7514C16.2324 28.7073 15.7281 28.3887 15.0557 27.7514Z" fill="#ECB942"/>
<path d="M82.6319 24.1685C80.8668 24.1685 81.203 24.1685 81.0349 24.0894C81.203 23.9311 80.8668 23.9311 82.6319 24.0894V24.1685Z" fill="#ECB942"/>
<path d="M46.9946 23.8523C46.3222 24.2506 46.1541 24.4896 45.8179 23.693C46.8265 23.0556 46.9105 24.0913 46.9946 23.8523Z" fill="#ECB942"/>
<path d="M56.7444 28.706C56.9965 28.3875 57.3327 28.3875 57.5849 28.4671C57.6689 28.4671 57.6689 28.6263 57.753 28.706C57.837 28.8652 57.1646 28.8652 56.9965 28.8652C56.9125 28.8652 56.8284 28.706 56.7444 28.706Z" fill="#ECB942"/>
<path d="M23.7969 8.17311C23.3767 8.17311 22.7883 8.33235 22.9564 7.93425C23.1245 7.61577 23.6288 7.69539 23.7969 8.17311Z" fill="#ECB942"/>
<path d="M38.7577 23.7721C38.5896 24.1703 37.9172 24.2499 37.9172 24.011C37.9172 23.9314 37.9172 23.8517 38.0013 23.8517C38.2534 23.6129 38.2534 23.6129 38.7577 23.7721Z" fill="#ECB942"/>
<path d="M93.8105 29.661C93.9786 29.1833 94.3989 29.2629 94.3989 29.4221C94.3989 29.5017 94.3989 29.661 94.3148 29.7406C94.1467 29.8202 93.9786 29.8202 93.8105 29.661Z" fill="#ECB942"/>
<path d="M172.565 4.90981C172.229 5.0682 171.977 5.0682 171.641 4.90981C171.977 4.75142 172.313 4.75142 172.565 4.90981Z" fill="#ECB942"/>
<path d="M116.588 1.6471C115.916 1.56836 116 1.56836 116 1.56836C116.672 1.56836 116.588 1.56836 116.588 1.6471Z" fill="#ECB942"/>
<path d="M85.7416 26C85.9937 26.0795 85.9097 26.3181 85.7416 26.2385C85.5735 26.2385 85.4895 26.159 85.5735 26C85.5735 26.0795 85.6575 26.0795 85.7416 26Z" fill="#ECB942"/>
<path d="M193.662 19.3947C193.746 19.2355 193.073 19.4743 192.653 18.917C192.401 19.1559 193.326 18.8374 193.662 19.3947Z" fill="#ECB942"/>
<path d="M164.665 6.58135C164.496 6.58135 164.412 6.26333 164.665 6.34284C164.749 6.34284 164.833 6.42234 164.917 6.50184C164.917 6.50184 164.749 6.58135 164.665 6.58135Z" fill="#ECB942"/>
<path d="M15.8963 5.62577C15.6442 5.78407 15.8123 5.86322 15.4761 5.62577C15.8123 5.54662 15.7282 5.54662 15.8963 5.62577Z" fill="#ECB942"/>
<path d="M173.658 5.06934C174.246 5.30788 173.322 5.4669 173.49 5.14885C173.574 5.14885 173.658 5.14885 173.658 5.06934Z" fill="#ECB942"/>
<path d="M87.4228 3.875C87.5909 3.95469 87.759 4.03439 87.6749 4.11408C87.4228 4.51255 86.9185 4.11408 87.0866 3.95469C87.1706 3.95469 87.3387 3.875 87.4228 3.875Z" fill="#ECB942"/>
<path d="M72.4619 27.5924C72.4619 27.8312 72.2938 27.9109 72.1257 27.5128C72.1257 27.5128 72.2098 27.4331 72.2098 27.3535C72.2938 27.5128 72.3779 27.5924 72.4619 27.5924Z" fill="#ECB942"/>
<path d="M88.5994 4.11414L88.5154 4.03461C88.5994 4.03461 88.5994 3.95508 88.6835 3.95508C88.7675 4.03461 88.7675 4.11414 88.5994 4.11414Z" fill="#ECB942"/>
<path d="M3.96118 10.9581C4.04523 10.9581 4.04523 10.8789 4.12927 10.8789C4.38141 10.9581 4.21332 11.1955 4.04523 11.0372C3.96118 11.0372 3.96118 11.0372 3.96118 10.9581Z" fill="#ECB942"/>
<path d="M195.595 33.0833C195.763 33.0833 195.763 33.0041 195.763 33.1624L195.595 33.0833Z" fill="#ECB942"/>
<path d="M196.772 33.1635C196.688 33.1635 196.688 33.2431 196.604 33.1635C196.52 33.084 196.52 33.084 196.688 33.084C196.772 33.084 196.772 33.084 196.772 33.1635Z" fill="#ECB942"/>
<path d="M96.3322 24.7266C96.3322 24.8053 96.3322 24.8053 96.1641 24.8053L96.3322 24.7266Z" fill="#ECB942"/>
<path d="M36.9926 23.6924C36.9926 23.6924 36.9926 23.7718 37.0766 23.7718C36.9926 23.7718 36.9926 23.8512 36.9085 23.8512C36.7404 23.7718 36.8245 23.6924 36.9926 23.6924Z" fill="#ECB942"/>
<path d="M58.8458 26.6364C58.6777 26.6364 58.7617 26.6364 58.7617 26.5576L58.8458 26.6364Z" fill="#ECB942"/>
<path d="M52.2059 28.7052C52.0378 28.6269 52.0378 28.6269 52.2059 28.7052V28.7052Z" fill="#ECB942"/>
<path d="M71.8735 23.6924V23.7719C71.7054 23.8513 71.7054 23.7719 71.6213 23.6924C71.7894 23.6129 71.7054 23.6129 71.8735 23.6924Z" fill="#ECB942"/>
<path d="M59.5182 30.0583C59.3501 29.9793 59.3501 29.9793 59.5182 30.0583V30.0583Z" fill="#ECB942"/>
<path d="M85.2374 22.2588C85.0694 22.2588 84.9853 22.2588 85.0693 22.1006H85.1534C85.2374 22.2588 85.1534 22.3379 85.2374 22.2588Z" fill="#ECB942"/>
<path d="M25.3096 26.9551C25.3096 27.1132 25.3937 27.0342 25.2256 27.0342L25.3096 26.9551Z" fill="#ECB942"/>
<path d="M13.0383 27.5918C13.1236 27.6709 13.1236 27.75 13.0383 27.5918V27.5918Z" fill="#ECB942"/>
<path d="M12.0307 27.5127C11.9455 27.6718 11.9455 27.6718 12.0307 27.5127V27.5127Z" fill="#ECB942"/>
<path d="M181.475 24.7265C181.475 24.6469 181.559 24.5674 181.559 24.5674C181.643 24.5674 181.643 24.6469 181.475 24.7265Z" fill="#ECB942"/>
<path d="M197.444 16.131C197.53 16.0527 197.53 16.0527 197.444 16.131V16.131Z" fill="#ECB942"/>
<path d="M150.292 6.26367C150.207 6.4216 150.377 6.26367 150.292 6.26367V6.26367Z" fill="#ECB942"/>
<path d="M148.359 6.50189C148.359 6.34283 148.275 6.34283 148.443 6.42236L148.359 6.50189Z" fill="#ECB942"/>
<path d="M120.37 31.8096C120.454 31.7299 120.454 31.5707 120.538 31.4911C120.791 31.2522 120.959 31.8892 120.623 31.8892C120.538 31.9688 120.454 31.8892 120.37 31.8096Z" fill="#ECB942"/>
<path d="M65.8218 24.6478C67.6709 24.3295 67.5868 24.807 68.3433 24.7274C69.3519 24.5682 71.1169 25.1253 71.5372 25.0458C72.0415 24.8866 72.5458 25.2845 73.0501 25.1253C73.5544 24.9662 74.4789 25.4437 75.2354 25.5233C75.7397 25.5233 76.2439 25.762 76.7482 25.9212C76.8323 26.0008 76.9164 26.16 77.0004 26.3987C75.4875 27.4333 73.7225 26.16 71.201 26.4783C67.3347 26.9558 55.3155 26.0804 53.6345 25.6824C53.6345 25.5233 53.6345 25.3641 53.7186 25.2049C54.6431 24.9662 57.753 24.8866 60.2745 25.2845C62.9641 25.762 63.7205 25.6824 64.6451 25.1253C64.561 24.9662 64.7291 25.4437 65.0653 25.5233C66.4942 25.6029 65.7377 25.3641 66.242 25.6824C66.242 25.6824 66.3261 25.6824 66.3261 25.6029C65.9899 25.3641 66.0739 25.5233 65.8218 24.6478Z" fill="#ECB942"/>
<path d="M88.7676 26.9557C89.1878 25.204 89.6081 26.478 93.5584 26.7168C91.7934 27.1149 89.8602 27.1946 88.7676 26.9557Z" fill="#ECB942"/>
<path d="M103.98 26.0009C104.317 25.762 104.737 25.8417 105.157 25.8417C108.519 26.0009 121.463 25.0454 129.027 24.9658C129.364 24.9658 129.7 24.9658 130.036 25.2047C129.952 25.2843 129.952 25.2843 129.868 25.3639C123.9 26.4786 123.48 25.4436 121.967 26.0805C103.308 26.7175 104.317 26.7175 103.98 26.0009Z" fill="#ECB942"/>
</svg>
