<svg width="220" height="77" viewBox="0 0 220 77" fill="none" xmlns="http://www.w3.org/2000/svg">
<g clip-path="url(#clip0_268_3243)">
<path fill-rule="evenodd" clip-rule="evenodd" d="M28.3875 25.9429V76.9998C27.4511 74.4554 25.1258 72.2914 21.9324 70.8445L18.5715 69.4039V19.9561L28.3875 25.9429Z" fill="#00A5BF"/>
<path fill-rule="evenodd" clip-rule="evenodd" d="M28.3876 35.2789C27.4513 32.7283 25.1259 30.5643 21.9325 29.1237L4.86776 21.428C1.76734 20.0311 -0.00610352 17.6052 -0.00610352 14.8425V0C0.334943 2.40099 2.05258 4.47145 4.82436 5.72495L21.9635 13.4518C27.011 15.728 28.3814 18.2662 28.3814 23.2678V35.2789H28.3876Z" fill="#26B6C7"/>
<path fill-rule="evenodd" clip-rule="evenodd" d="M32.6102 77.0001C33.5465 74.4557 35.8719 72.2855 39.0653 70.8449L56.13 63.1492C59.2305 61.7523 60.9977 59.3264 60.9977 56.5637V41.7212C60.6567 44.1222 58.939 46.1926 56.1672 47.4461L39.0281 55.173C33.9806 57.4492 32.604 59.9812 32.604 64.9889V77.0001H32.6102Z" fill="#00A5BF"/>
<path fill-rule="evenodd" clip-rule="evenodd" d="M32.6104 56.4015C33.5405 53.8508 35.872 51.6868 39.0654 50.2462L56.1302 42.5506C59.2306 41.1537 60.9979 38.7277 60.9979 35.965V21.1226C60.6568 23.5235 58.9392 25.594 56.1674 26.8413L39.0282 34.5681C33.9807 36.8444 32.6104 39.3825 32.6104 44.3903V56.4015Z" fill="#26B6C7"/>
<path fill-rule="evenodd" clip-rule="evenodd" d="M32.6104 35.2789C33.5467 32.7283 35.872 30.5643 39.0654 29.1237L56.1302 21.428C59.2306 20.0311 61.004 17.6052 61.004 14.8425V0C60.663 2.40099 58.9454 4.47145 56.1736 5.72495L39.0344 13.4518C33.9869 15.728 32.6166 18.2662 32.6166 23.2678V35.2789H32.6104Z" fill="#84CBDA"/>
<path d="M93.5708 49.0425C93.5894 51.7678 93.5894 54.7301 93.5894 57.4865V58.659H67.9985V33.4268H93.5894V35.1979C93.5956 37.5802 93.6019 40.6235 93.5708 43.0432L90.2224 46.0803L93.5771 49.0363L93.5708 49.0425ZM72.7298 53.963H88.8272V48.4438H72.7298V53.963ZM72.7422 43.6481H88.821V38.1102H72.7422V43.6481Z" fill="#00A5BF"/>
<path d="M162.301 58.6714V43.6855H183.068V38.0853H162.313V33.4268H187.78V58.6777H162.301V58.6714ZM167.02 53.963H183.068V48.4127H167.02V53.963Z" fill="#00A5BF"/>
<path d="M99.4431 58.6714V43.7354H120.235V38.0853H99.4555V33.4268H124.91V58.6714H99.4431ZM104.174 53.963H120.235V48.4438H104.174V53.963Z" fill="#00A5BF"/>
<path d="M138.062 60.5549V58.6528H130.875V54.0441H151.673V48.4314H130.9V33.4019H156.398V38.023H135.6V43.6856H156.392V58.6528H150.675V60.5549H138.062Z" fill="#00A5BF"/>
<path d="M218.375 58.7148C217.129 58.7148 215.901 58.7148 214.674 58.6899L214.543 58.5153C213.632 57.0497 212.727 55.5842 211.821 54.1187C210.841 52.5346 209.868 50.9506 208.882 49.3728C208.746 49.1483 208.237 48.4249 207.493 48.4124C205.924 48.3875 204.355 48.3812 202.774 48.3812H198.434V58.6525H193.74V33.4016H198.396V43.6977H204.461C205.341 43.6977 206.216 43.6977 207.096 43.7102C207.952 43.7102 208.516 43.3859 208.932 42.6937C209.762 41.303 210.606 39.9185 211.449 38.5341C212.441 36.9001 213.433 35.2725 214.413 33.6261C214.562 33.3766 214.618 33.3579 214.891 33.3579C215.846 33.3766 216.769 33.3766 217.7 33.3766H219.82C219.572 33.8319 219.337 34.2809 219.095 34.7174L217.948 36.8004C216.428 39.5693 214.853 42.4318 213.278 45.2256C212.72 46.2172 212.993 46.9344 213.34 47.5081C215.256 50.7074 217.16 53.9191 219.064 57.1308L220.006 58.7211H218.382L218.375 58.7148Z" fill="#00A5BF"/>
<path d="M99.4246 25.5751V0.324219H124.947V15.2852H104.143V20.9291H124.947V25.5814H99.4246V25.5751ZM104.143 10.5643H120.216V5.0077H104.143V10.5643Z" fill="#00A5BF"/>
<path d="M68.011 25.5937V20.9726H88.7591V15.3163H67.9924V0.317871H72.6555V10.5579H88.8087V0.330344H93.4655V25.5937H68.011Z" fill="#00A5BF"/>
<path d="M130.85 25.5813V10.6577H135.501V20.8915H151.629V4.99512H130.844V0.317871H156.342V25.5813H130.85Z" fill="#00A5BF"/>
<path d="M166.908 8.63086H162.295V25.5874H166.908V8.63086Z" fill="#00A5BF"/>
<path d="M166.902 0.342773H162.276V4.92024H166.902V0.342773Z" fill="#00A5BF"/>
<path d="M70.2433 68.1758H69.1458V75.7654H70.2433V68.1758Z" fill="#1D1D1B"/>
<path d="M70.2433 66.2485H69.1458V67.3648H70.2433V66.2485Z" fill="#1D1D1B"/>
<path d="M133.467 68.1758H132.37V75.7654H133.467V68.1758Z" fill="#1D1D1B"/>
<path d="M133.467 66.2485H132.37V67.3648H133.467V66.2485Z" fill="#1D1D1B"/>
<path d="M84.5547 68.1758V75.7592H83.6556L79.0546 70.1028V75.7592H77.957V68.1758H78.8562L83.4572 73.8321V68.1758H84.5547Z" fill="#1D1D1B"/>
<path d="M91.568 74.8922L91.971 74.0503C92.5415 74.5555 93.515 74.9296 94.501 74.9296C95.8279 74.9296 96.3922 74.4183 96.3922 73.7572C96.3922 71.905 91.7478 73.0774 91.7478 70.2586C91.7478 69.0862 92.6655 68.0884 94.6808 68.0884C95.5799 68.0884 96.51 68.3254 97.1425 68.7619L96.7829 69.6288C96.1132 69.2047 95.3567 69.0114 94.6808 69.0114C93.3786 69.0114 92.8205 69.5539 92.8205 70.215C92.8205 72.0672 97.465 70.9072 97.465 73.6948C97.465 74.8548 96.5224 75.8526 94.4948 75.8526C93.3228 75.8526 92.1757 75.4597 91.5618 74.8985" fill="#1D1D1B"/>
<path d="M109.377 73.8632H105.303L104.46 75.7591H103.331L106.804 68.1694H107.889L111.374 75.7591H110.22L109.377 73.8632ZM108.992 72.9964L107.337 69.2795L105.681 72.9964H108.992Z" fill="#1D1D1B"/>
<path d="M124.519 68.1758V75.7592H123.626L119.025 70.1028V75.7592H117.928V68.1758H118.827L123.428 73.8321V68.1758H124.519Z" fill="#1D1D1B"/>
<path d="M152.355 73.1337V75.7592H151.27V73.115L148.225 68.1758H149.397L151.853 72.1733L154.321 68.1758H155.399L152.355 73.1337Z" fill="#1D1D1B"/>
<path d="M166.35 73.8632H162.276L161.433 75.7591H160.304L163.777 68.1694H164.862L168.347 75.7591H167.194L166.35 73.8632ZM165.966 72.9964L164.31 69.2795L162.655 72.9964H165.966Z" fill="#1D1D1B"/>
<path d="M180.029 75.7591L178.374 73.4267C178.219 73.4391 178.057 73.4454 177.89 73.4454H175.999V75.7528H174.901V68.1694H177.89C179.887 68.1694 181.09 69.1672 181.09 70.8136C181.09 71.9861 180.476 72.828 179.403 73.2084L181.22 75.7528H180.029V75.7591ZM179.998 70.8199C179.998 69.7348 179.267 69.1174 177.865 69.1174H176.005V72.5286H177.865C179.267 72.5286 179.998 71.8988 179.998 70.8136" fill="#1D1D1B"/>
<path d="M188.283 68.1693H191.513C193.975 68.1693 195.656 69.7097 195.656 71.961C195.656 74.2123 193.981 75.7527 191.513 75.7527H188.283V68.1631V68.1693ZM191.445 74.811C193.343 74.811 194.558 73.6635 194.558 71.961C194.558 70.2585 193.343 69.111 191.445 69.111H189.374V74.811H191.445Z" fill="#1D1D1B"/>
<path d="M203.847 68.1758H202.749V75.7654H203.847V68.1758Z" fill="#1D1D1B"/>
<path d="M218.673 75.7591L218.661 70.2337L215.889 74.8361H215.387L212.615 70.2648V75.7591H211.567V68.1694H212.46L215.659 73.5015L218.816 68.1694H219.715L219.727 75.7591H218.673Z" fill="#1D1D1B"/>
</g>
<defs>
<clipPath id="clip0_268_3243">
<rect width="220" height="77" fill="white"/>
</clipPath>
</defs>
</svg>
