<svg width="370" height="490" viewBox="0 0 370 490" fill="none" xmlns="http://www.w3.org/2000/svg">
<g clip-path="url(#clip0_660_24253)">
<path d="M120.391 253.231C120.391 253.231 119.555 271.772 125.142 285.094C134.691 307.834 156.326 315.404 156.326 315.404C156.326 315.404 156.496 303.206 168.196 300.53L150.553 279.017L149.594 253.334C149.594 253.334 135.294 246.858 120.391 253.231Z" fill="#FFD3A6"/>
<path d="M148.851 303.768C139.814 297.085 135.527 290.017 131.271 279.623C128.981 273.502 128.501 264.645 128.315 257.164C133.639 253.038 141.764 253.186 149.641 254.221L149.563 253.334C149.563 253.334 135.264 246.858 120.36 253.231C120.36 253.231 119.525 271.772 125.112 285.094C134.66 307.834 156.295 315.404 156.295 315.404C156.295 315.404 156.466 303.206 168.165 300.53C168.165 300.53 163.337 298.874 158.121 299.584C154.454 300.086 150.616 301.935 148.82 303.768H148.851Z" fill="#FBC08F"/>
<path d="M251.285 252.876C251.285 252.876 251.982 273.029 245.281 287.031C234.603 309.313 214.174 313.571 214.174 313.571C214.174 313.571 214.701 302.586 202.97 300.072L221.85 278.5C221.85 278.5 222.56 263.366 223.723 251.738C223.723 251.738 236.305 246.696 251.301 252.861L251.285 252.876Z" fill="#FFD3A6"/>
<path d="M251.285 252.876C236.289 246.71 223.707 251.752 223.707 251.752L223.491 253.556C231.956 253.408 238.456 255.981 243.439 259.825C242.263 277.331 233.566 297.677 223.104 302.053C222.253 300.442 216.666 299.17 213.385 298.638C205.957 297.44 202.954 300.087 202.954 300.087C214.7 302.585 214.159 313.586 214.159 313.586C214.159 313.586 234.587 309.328 245.265 287.046C251.966 273.044 251.27 252.891 251.27 252.891L251.285 252.876Z" fill="#FBC08F"/>
<g style="mix-blend-mode:multiply" opacity="0.74">
<path d="M223.583 251.989L222.701 266.227L218.74 256.765L220.241 235L223.583 251.989Z" fill="#CDCEDE"/>
</g>
<g style="mix-blend-mode:multiply" opacity="0.74">
<path d="M149.594 253.334L153.726 235.399L152.782 256.543L150.352 270.959L149.594 253.334Z" fill="#CDCEDE"/>
</g>
<path d="M251.698 293.646C250.038 304.083 221.666 312.55 184.982 312.55C148.298 312.55 119.903 303.926 118.288 293.484C114.519 269.119 148.298 274.332 184.982 274.332C221.666 274.332 255.567 269.283 251.698 293.646Z" fill="#5E4944"/>
<path d="M251.635 286.162C251.635 296.716 221.899 305.271 185.215 305.271C148.532 305.271 118.795 296.716 118.795 286.162C118.795 275.607 148.532 267.051 185.215 267.051C221.899 267.051 251.635 275.607 251.635 286.162Z" fill="#856E69"/>
<path d="M245.795 286.162H244.735C244.733 287.029 244.415 287.899 243.709 288.825C243.093 289.632 242.178 290.459 240.98 291.27C238.885 292.692 235.933 294.056 232.296 295.276C226.84 297.109 219.843 298.628 211.826 299.684C203.809 300.74 194.77 301.335 185.209 301.335C168.56 301.337 153.485 299.528 142.652 296.632C137.239 295.188 132.886 293.464 129.967 291.617C128.507 290.696 127.412 289.747 126.708 288.825C126.002 287.899 125.683 287.029 125.681 286.162C125.683 285.294 126.002 284.424 126.708 283.498C127.324 282.691 128.239 281.864 129.437 281.053C131.532 279.631 134.484 278.267 138.121 277.047C143.577 275.214 150.574 273.694 158.591 272.639C166.608 271.582 175.647 270.988 185.209 270.988C201.857 270.986 216.932 272.795 227.765 275.691C233.178 277.135 237.531 278.859 240.45 280.706C241.91 281.627 243.005 282.576 243.709 283.498C244.415 284.424 244.733 285.294 244.735 286.162H245.795H246.854C246.856 284.794 246.327 283.482 245.419 282.301C244.623 281.263 243.539 280.304 242.205 279.399C239.87 277.819 236.761 276.401 232.998 275.136C227.356 273.241 220.24 271.703 212.116 270.632C203.992 269.561 194.862 268.961 185.209 268.961C168.396 268.963 153.177 270.777 142.082 273.74C136.532 275.225 132.013 276.989 128.799 279.016C127.193 280.031 125.908 281.115 124.998 282.301C124.09 283.482 123.561 284.794 123.563 286.162C123.561 287.529 124.09 288.841 124.998 290.022C125.794 291.06 126.878 292.019 128.212 292.924C130.547 294.504 133.656 295.922 137.419 297.187C143.062 299.082 150.177 300.621 158.302 301.691C166.425 302.762 175.555 303.361 185.209 303.361C202.021 303.36 217.24 301.546 228.335 298.583C233.885 297.098 238.404 295.334 241.618 293.308C243.224 292.292 244.509 291.208 245.419 290.022C246.327 288.841 246.856 287.529 246.854 286.162H245.795Z" fill="#5E4944"/>
<path d="M145.405 315.356C145.984 317.775 148.985 319.888 151.973 317.31C154.598 321.643 158.812 318 158.812 318C158.812 318 162.246 320.571 164.059 317.135C164.059 317.135 166.547 307.833 162.686 306.858C160.599 306.335 159.662 309.978 159.2 314.437C159.2 314.437 161.917 304.706 157.954 304.054C154.648 303.507 152.663 313.981 152.663 313.981C152.663 313.981 156.236 302.401 152.856 301.76C148.454 300.929 146.581 312.107 146.581 312.107C146.581 312.107 149.24 301.662 145.929 301.191C142.618 300.719 139.704 308.651 139.704 308.651C139.704 308.651 138.553 312.902 139.394 314.387C140.32 315.991 143.012 316.804 145.404 315.368L145.405 315.356Z" fill="#FFD3A6"/>
<path d="M223.977 314.187C223.444 316.612 220.126 319.079 216.933 316.564C214.342 320.956 210.113 317.135 210.113 317.135C210.113 317.135 207.193 320.08 204.767 316.391C204.767 316.391 202.029 307.396 205.735 306.093C207.969 305.317 209.114 309.102 209.597 313.57C209.597 313.57 207.136 303.73 210.571 303.182C214.004 302.622 215.604 313.135 215.604 313.135C215.604 313.135 212.39 302.209 215.835 301.293C219.28 300.377 222.245 309.887 222.245 309.887C222.245 309.887 218.613 300.997 222.047 300.437C225.48 299.877 229.685 307.316 229.685 307.316C229.685 307.316 232.627 311.309 230.277 313.108C228.827 314.219 226.49 315.535 223.96 314.15L223.977 314.187Z" fill="#FFD3A6"/>
<g clip-path="url(#clip1_660_24253)">
<path d="M203.989 288.249V285.241L187.116 283.075L170.242 285.42V288.243C170.242 288.243 170.1 289.606 175.217 291.402C182.214 293.862 193.586 293.054 199.009 291.402C204.193 289.826 203.983 288.243 203.983 288.243L203.989 288.249Z" fill="#D3B594"/>
<path d="M199.003 291.408C204.187 289.832 203.978 288.249 203.978 288.249V285.241L196.244 284.247C196.244 284.247 196.221 284.265 196.21 284.271C195.32 284.819 194.47 285.31 194.402 286.43C194.334 287.614 194.963 289.046 194.459 290.172C194.147 290.865 193.337 291.142 192.606 291.31C187.019 292.58 181.172 291.801 175.614 290.426C173.874 289.999 172.112 289.497 170.65 288.446C170.531 288.359 170.384 288.272 170.236 288.215V288.238C170.236 288.238 170.095 289.601 175.211 291.397C182.209 293.857 193.581 293.048 199.003 291.397V291.408Z" fill="#BFA388"/>
<path d="M221.492 254.196H152.74C152.74 254.196 152.213 261.385 156.156 270.065C162.072 283.081 170.248 285.425 170.248 285.425L186.951 285.755L203.655 285.425C203.655 285.425 211.831 283.081 217.746 270.065C221.69 261.385 221.497 254.196 221.497 254.196H221.492Z" fill="#D3B594"/>
<path d="M221.48 254.196H209.213C209.213 254.196 210.805 261.501 206.46 269.972C201.649 279.35 197.088 281.961 191.507 283.895C184.583 286.297 176.48 285.691 176.48 285.691C176.48 285.691 184.606 287.585 191.122 287.585C197.638 287.585 203.638 285.425 203.638 285.425C203.638 285.425 211.814 283.081 217.729 270.065C221.673 261.385 221.48 254.196 221.48 254.196Z" fill="#BFA388"/>
<path d="M152.74 254.196C153.04 259.428 165.687 264.001 187.116 264.001C208.545 264.001 221.316 260.525 221.492 254.196C221.667 247.867 209.684 243.224 187.637 243.316C169.075 243.397 153.527 244.743 152.74 254.196Z" fill="#F7D3B0"/>
<path d="M154.23 254.138C154.519 258.804 166.616 262.887 187.116 262.887C207.615 262.887 219.837 259.786 220.001 254.138C220.171 248.49 208.703 244.35 187.614 244.437C169.851 244.512 154.978 245.707 154.224 254.138H154.23Z" fill="#E2BFA3"/>
<path opacity="0.38" d="M161.001 265.22C160.644 266.184 160.95 267.258 161.301 268.228C162.276 270.873 163.636 273.35 165.177 275.701C166.287 277.387 167.67 279.131 169.63 279.512C170.316 279.645 171.058 279.587 171.67 279.241C172.282 278.894 172.741 278.236 172.758 277.526C172.775 276.798 172.361 276.145 171.987 275.533C171.075 274.026 170.299 272.403 169.914 270.677C169.659 269.528 169.562 268.309 168.984 267.287C167.993 265.537 162.117 262.205 161.001 265.231V265.22Z" fill="white"/>
<path opacity="0.38" d="M172.837 286.569C172.673 286.569 172.509 286.592 172.373 286.679C172.089 286.863 172.05 287.296 172.214 287.597C172.378 287.897 172.679 288.088 172.979 288.249C174.22 288.908 175.602 289.243 176.973 289.497C177.5 289.595 178.067 289.676 178.56 289.468C179.053 289.254 179.416 288.63 179.172 288.145C178.934 287.683 178.339 287.603 177.829 287.551C176.175 287.395 174.458 286.517 172.837 286.569Z" fill="white"/>
<path d="M154.23 254.15C154.462 257.892 162.281 261.258 175.937 262.442C175.206 261.934 174.492 261.397 173.801 260.831C169.574 257.366 166.185 252.839 164.055 247.751C163.874 247.324 163.681 246.874 163.494 246.417C158.066 247.821 154.587 250.182 154.236 254.15H154.23Z" fill="#CEAD97"/>
<path d="M218.857 256.812C215.554 252.735 204.754 249.992 187.552 250.061C172.395 250.125 159.341 251.008 155.369 256.5C158.921 260.098 170.117 262.881 187.048 262.881C203.978 262.881 215.525 260.75 218.851 256.812H218.857Z" fill="#DD9F3C"/>
<path d="M171.766 254.837C172.067 254.675 172.407 254.6 172.718 254.461C173.171 254.265 173.557 253.942 173.982 253.676C174.917 253.093 176.027 252.798 177.121 252.845C177.387 252.856 177.665 252.891 177.886 253.041C178.265 253.289 178.39 253.786 178.639 254.167C179.07 254.831 179.857 255.149 180.464 255.651C181.229 256.286 181.716 257.251 181.773 258.255C181.784 258.434 181.773 258.625 181.688 258.787C181.535 259.058 181.189 259.139 180.883 259.191C179.625 259.405 178.373 259.618 177.115 259.832C176.367 259.959 175.614 260.086 174.854 260.103C173.953 260.121 173.041 259.965 172.237 259.555C171.494 259.174 170.418 258.307 170.406 257.383C170.395 256.477 170.979 255.264 171.766 254.837Z" fill="#FFB83B"/>
<path d="M186.277 250.754C186.09 250.858 185.897 250.968 185.801 251.158C185.727 251.303 185.722 251.476 185.716 251.643C185.705 252.14 185.699 252.637 185.688 253.133C185.688 253.295 185.688 253.474 185.773 253.607C185.863 253.745 186.028 253.809 186.181 253.867C186.923 254.15 187.665 254.433 188.413 254.721C189.252 255.045 190.107 255.368 191.003 255.437C192.612 255.564 194.164 254.871 195.632 254.19C195.785 253.514 195.824 252.816 195.762 252.129C195.728 251.753 195.654 251.366 195.439 251.054C195.246 250.771 194.957 250.581 194.668 250.402C193.768 249.842 192.816 249.362 191.83 248.976C191.371 248.797 190.765 248.531 190.26 248.589C189.864 248.635 189.569 248.918 189.218 249.114C188.243 249.663 187.263 250.2 186.283 250.743L186.277 250.754Z" fill="#FFB83B"/>
<path d="M201.456 256.898C201.054 256.991 200.635 257.1 200.318 257.366C200.108 257.545 199.955 257.782 199.802 258.019C199.434 258.59 199.071 259.168 198.703 259.74C198.652 259.82 198.595 259.907 198.595 260.005C198.589 260.196 198.765 260.329 198.929 260.415C199.966 260.97 201.19 260.987 202.357 260.987C203.185 260.987 204.012 260.981 204.845 260.964C205.264 260.958 205.689 260.941 206.086 260.819C206.539 260.675 208.08 260.456 208.482 260.207C209.406 259.636 210.528 259.347 210.313 258.873C210.313 258.873 208.811 257.28 208.613 257.141C207.938 256.667 207.168 256.315 206.369 256.136C205.638 255.969 205.156 256.153 204.454 256.321C203.462 256.558 202.448 256.679 201.456 256.91V256.898Z" fill="#FFB83B"/>
<path d="M158.995 253.647C158.802 254.254 158.893 254.952 159.233 255.489C159.307 255.605 159.392 255.715 159.505 255.79C159.675 255.905 159.879 255.94 160.083 255.969C161.471 256.171 162.865 256.373 164.253 256.575C164.418 256.598 164.588 256.621 164.746 256.575C164.933 256.523 165.086 256.39 165.228 256.252C165.806 255.691 166.316 255.05 166.729 254.358C166.786 254.259 166.843 254.155 166.831 254.046C166.82 253.919 166.724 253.82 166.633 253.728C166.163 253.278 165.67 252.856 165.154 252.463C164.644 252.077 164.072 251.707 163.432 251.69C163.114 251.684 162.808 251.765 162.502 251.846C161.182 252.192 159.545 252.146 158.995 253.641V253.647Z" fill="#FFB83B"/>
<path d="M201.451 250.327C201.961 250.067 202.539 249.998 203.105 249.951C204.131 249.876 205.162 249.882 206.188 249.98C206.369 249.998 206.562 250.021 206.715 250.113C206.834 250.182 206.924 250.286 207.009 250.39C207.508 250.968 207.99 251.563 208.449 252.169C208.551 252.308 208.664 252.458 208.653 252.631C208.641 252.816 208.5 252.96 208.347 253.064C207.82 253.428 207.151 253.486 206.516 253.514C205.134 253.578 203.751 253.543 202.375 253.41C201.865 253.364 201.326 253.289 200.913 252.983C199.91 252.244 200.533 250.783 201.445 250.321L201.451 250.327Z" fill="#FFB83B"/>
<path opacity="0.38" d="M175.806 253.347C175.517 253.434 175.285 253.665 175.087 253.896C174.888 254.132 174.707 254.386 174.458 254.56C174.067 254.837 173.568 254.883 173.109 254.987C172.644 255.091 172.152 255.305 171.959 255.744C171.891 255.899 171.868 256.078 171.874 256.252C171.874 256.39 171.897 256.529 171.959 256.65C172.055 256.829 172.231 256.945 172.401 257.049C172.905 257.366 173.404 257.684 173.908 258.001C174.027 258.076 174.152 258.152 174.288 258.175C174.571 258.215 174.832 258.019 175.024 257.805C175.206 257.609 175.37 257.378 175.41 257.112C175.472 256.685 175.206 256.269 175.234 255.836C175.279 255.201 175.891 254.854 176.259 254.41C176.656 253.93 176.735 253.058 175.812 253.335L175.806 253.347Z" fill="white"/>
<path opacity="0.38" d="M160.06 253.116C159.873 253.249 159.692 253.445 159.709 253.676C159.726 253.907 159.924 254.069 160.105 254.207C160.298 254.352 160.53 254.496 160.751 254.415C160.893 254.363 160.984 254.231 161.097 254.132C161.618 253.67 162.491 253.959 163.069 253.566C163.329 253.393 163.494 253.087 163.505 252.77C163.505 252.666 163.494 252.55 163.431 252.464C163.38 252.388 163.301 252.342 163.216 252.313C162.933 252.209 162.616 252.296 162.321 252.383C161.635 252.591 160.615 252.654 160.055 253.116H160.06Z" fill="white"/>
<path opacity="0.38" d="M186.884 251.314C186.85 251.372 186.816 251.436 186.821 251.499C186.833 251.62 186.951 251.69 187.059 251.736C187.756 252.019 188.544 251.955 189.269 252.163C189.694 252.284 190.09 252.498 190.504 252.66C190.918 252.822 191.371 252.931 191.802 252.839C192.232 252.746 192.64 252.394 192.686 251.944C192.748 251.32 192.164 250.841 191.955 250.252C191.898 250.084 191.87 249.911 191.785 249.755C191.184 248.681 190.051 249.49 189.343 249.819C188.487 250.217 187.416 250.442 186.878 251.309L186.884 251.314Z" fill="white"/>
<path opacity="0.38" d="M201.74 258.065C202.799 258.025 203.814 258.44 204.845 258.683C205.417 258.816 206.074 258.879 206.55 258.521C206.879 258.273 207.055 257.851 207.077 257.435C207.089 257.262 207.077 257.089 206.998 256.933C206.862 256.662 206.556 256.517 206.261 256.5C205.967 256.477 205.672 256.558 205.383 256.633C204.199 256.927 203.015 257.043 201.808 257.176C201.564 257.204 201.015 257.204 200.913 257.499C200.737 258.007 201.445 258.076 201.746 258.065H201.74Z" fill="white"/>
<path opacity="0.38" d="M201.451 252.336C201.553 252.423 201.7 252.492 201.813 252.423C201.87 252.383 201.904 252.319 201.944 252.256C202.312 251.615 203.15 251.407 203.876 251.488C204.601 251.563 205.298 251.857 206.023 251.944C206.369 251.984 206.799 251.932 206.941 251.609C207.02 251.418 206.969 251.199 206.873 251.02C206.652 250.61 206.227 250.356 205.779 250.252C205.338 250.148 204.873 250.177 204.42 250.223C203.672 250.298 202.924 250.413 202.193 250.575C201.745 250.673 201.405 250.743 201.23 251.199C201.082 251.58 201.139 252.059 201.456 252.342L201.451 252.336Z" fill="white"/>
<path d="M183.099 258.59C183.025 259.122 182.645 259.561 182.192 259.832C181.739 260.103 181.217 260.225 180.707 260.34C180.09 260.485 179.472 260.629 178.86 260.773C178.69 260.814 178.498 260.871 178.435 261.039C178.379 261.195 178.469 261.368 178.605 261.46C178.741 261.547 178.906 261.564 179.07 261.582C180.645 261.709 182.243 261.507 183.739 260.998C184.158 260.854 184.572 260.687 184.917 260.404C185.263 260.121 185.524 259.716 185.552 259.266C185.58 258.729 185.274 258.238 184.946 257.822C184.713 257.522 184.458 257.233 184.13 257.049C183.716 256.818 183.235 256.766 182.764 256.731C182.543 256.714 182.294 256.708 182.141 256.87C181.795 257.239 182.464 257.372 182.64 257.493C182.98 257.724 183.155 258.18 183.104 258.59H183.099Z" fill="#CE8111"/>
<path d="M163.522 257.112C164.361 257.118 165.222 257.054 165.964 256.656C166.259 256.494 166.531 256.286 166.848 256.182C167.165 256.084 167.562 256.125 167.76 256.402C167.942 256.656 167.885 257.031 167.692 257.28C167.5 257.528 167.205 257.666 166.91 257.759C166.406 257.915 165.879 257.949 165.358 257.99C163.907 258.094 162.406 258.192 161.04 257.672C160.785 257.574 160.519 257.435 160.423 257.181C160.4 257.129 160.389 257.066 160.412 257.014C160.44 256.945 160.508 256.91 160.576 256.887C161.046 256.708 161.341 256.864 161.771 256.985C162.321 257.141 162.961 257.112 163.528 257.118L163.522 257.112Z" fill="#CE8111"/>
<path d="M184.526 252.856C184.441 253.243 184.566 253.67 184.844 253.953C185.286 254.404 186.016 254.444 186.47 254.877C185.274 255.218 184.005 254.802 182.86 254.323C182.526 254.184 182.181 254.028 181.931 253.757C181.682 253.486 181.546 253.076 181.705 252.741C181.869 252.377 182.294 252.232 182.674 252.134C183.467 251.932 184.283 251.805 185.099 251.736C185.49 251.707 185.586 251.926 185.32 252.105C185.201 252.181 185.019 252.129 184.872 252.244C184.696 252.383 184.583 252.637 184.538 252.85L184.526 252.856Z" fill="#CE8111"/>
<path d="M196.555 254.421C196.85 254.138 197.06 253.653 196.822 253.318C196.691 253.128 196.442 253.024 196.38 252.804C197.082 252.573 197.853 252.856 198.499 253.22C198.765 253.37 199.054 253.566 199.122 253.873C199.179 254.127 199.065 254.392 198.89 254.577C198.714 254.762 198.482 254.877 198.244 254.981C197.383 255.357 196.465 255.582 195.53 255.651C194.924 255.697 193.824 255.819 193.292 255.472C193.626 255.241 194.176 255.247 194.567 255.183C195.281 255.068 196 254.958 196.55 254.427L196.555 254.421Z" fill="#CE8111"/>
<path d="M197.405 259.301C197.218 259.48 197.043 259.682 196.969 259.93C196.895 260.178 196.963 260.485 197.179 260.623C197.354 260.733 197.575 260.71 197.779 260.756C197.978 260.802 198.187 260.999 198.108 261.195C198.074 261.27 198.012 261.322 197.944 261.368C197.094 261.934 195.983 261.842 194.98 261.674C194.346 261.564 193.722 261.437 193.099 261.281C192.816 261.212 192.516 261.12 192.34 260.883C192.164 260.64 192.181 260.288 192.323 260.023C192.465 259.757 192.703 259.561 192.957 259.405C193.541 259.052 194.21 258.891 194.867 258.729C196.074 258.435 197.694 257.886 198.93 258.209C198.601 258.648 197.825 258.902 197.405 259.307V259.301Z" fill="#CE8111"/>
<path d="M209.434 253.37C209.304 253.526 209.106 253.601 208.907 253.653C208.307 253.815 207.644 253.838 207.128 254.196C207.055 254.248 206.975 254.317 206.958 254.404C206.924 254.571 207.106 254.698 207.264 254.75C207.446 254.802 207.644 254.814 207.831 254.82C208.845 254.86 209.882 254.9 210.856 254.623C211.213 254.525 211.604 254.329 211.689 253.959C211.78 253.555 211.434 253.179 211.077 252.972C210.653 252.712 210.165 252.556 209.672 252.515C209.57 252.51 209.463 252.504 209.383 252.573C209.225 252.712 209.684 253.064 209.429 253.376L209.434 253.37Z" fill="#CE8111"/>
<path d="M169.222 253.301C169.058 253.301 168.865 253.272 168.775 253.133C168.678 252.983 168.746 252.775 168.877 252.66C169.007 252.544 169.188 252.498 169.358 252.463C169.137 252.446 168.922 252.394 168.718 252.302C168.656 252.273 168.593 252.244 168.554 252.186C168.469 252.065 168.525 251.886 168.644 251.794C168.758 251.701 168.911 251.678 169.058 251.655C168.786 251.626 168.582 251.309 168.661 251.043C168.741 250.777 169.086 250.633 169.33 250.766C169.149 250.587 169.069 250.281 169.2 250.061C169.33 249.836 169.681 249.772 169.846 249.975C169.902 249.663 170.044 249.27 170.355 249.27C170.695 249.27 170.831 249.749 171.143 249.894C171.16 249.634 171.245 249.368 171.426 249.183C171.608 248.999 171.891 248.906 172.129 248.999C172.367 249.091 172.526 249.391 172.424 249.634C172.645 249.484 172.877 249.334 173.137 249.287C173.398 249.241 173.693 249.31 173.857 249.524C173.999 249.715 174.01 249.98 173.942 250.211C173.874 250.442 173.738 250.639 173.602 250.835C173.976 250.714 174.429 250.61 174.735 250.864C175.058 251.135 174.956 251.759 174.565 251.909C174.883 251.799 175.33 251.742 175.466 252.053C175.563 252.267 175.421 252.521 175.234 252.66C174.99 252.839 174.684 252.897 174.39 252.949C173.46 253.099 172.458 253.278 171.517 253.214C170.746 253.162 170.004 253.33 169.234 253.312L169.222 253.301Z" fill="#629B4B"/>
<path d="M186.872 260.352C186.77 260.433 186.662 260.583 186.753 260.675C186.793 260.716 186.861 260.721 186.917 260.721C187.348 260.721 187.773 260.64 188.17 260.467C187.909 260.571 187.966 261.016 188.209 261.149C188.453 261.287 188.765 261.201 189.008 261.068C189.337 260.895 189.62 260.64 189.835 260.334C189.903 260.571 190.136 260.739 190.374 260.773C190.612 260.814 190.861 260.744 191.088 260.652C191.507 260.479 191.881 260.207 192.181 259.867C192.81 260.103 193.564 259.971 194.074 259.526C194.283 259.341 194.465 259.047 194.357 258.787C194.221 258.475 193.802 258.458 193.467 258.498C193.626 258.354 193.836 258.302 194.023 258.198C194.21 258.094 194.38 257.892 194.329 257.684C194.278 257.482 194.051 257.389 193.853 257.36C193.36 257.291 192.844 257.464 192.481 257.811C192.527 257.436 192.158 257.101 191.785 257.101C191.411 257.101 191.076 257.36 190.884 257.678C190.674 257.308 190.175 257.187 189.784 257.326C189.393 257.47 189.104 257.828 188.94 258.221C188.736 258.723 188.872 259.266 188.374 259.514C187.847 259.768 187.342 259.994 186.878 260.358L186.872 260.352Z" fill="#629B4B"/>
<path d="M196.006 248.398C196.34 247.763 196.924 247.266 197.598 247.047C197.626 247.307 197.575 247.572 197.451 247.803C197.876 247.578 198.346 247.439 198.822 247.399C198.935 247.387 199.071 247.399 199.116 247.503C199.139 247.561 199.128 247.624 199.111 247.682C199.031 247.959 198.884 248.213 198.686 248.421C199.06 248.236 199.507 248.225 199.887 248.398C200.108 248.496 200.329 248.704 200.295 248.952C200.272 249.137 200.119 249.27 199.972 249.38C199.66 249.611 199.32 249.807 198.963 249.969C199.264 249.98 199.558 250.078 199.808 250.252C199.887 250.309 199.972 250.396 199.944 250.488C199.927 250.54 199.887 250.575 199.842 250.604C199.643 250.737 199.4 250.789 199.162 250.76C199.337 250.806 199.502 250.904 199.632 251.031C199.666 251.066 199.7 251.101 199.706 251.147C199.723 251.262 199.587 251.326 199.473 251.349C198.85 251.464 198.227 251.349 197.621 251.205C197.145 251.089 196.533 251.02 196.108 250.766C195.371 250.321 195.671 249.016 196.011 248.404L196.006 248.398Z" fill="#629B4B"/>
<path d="M211.667 257.793C211.57 257.857 211.474 257.915 211.361 257.932C211.264 257.944 211.168 257.915 211.083 257.874C210.704 257.695 210.511 257.181 210.681 256.789C210.845 256.396 211.344 256.188 211.735 256.344C211.61 255.928 211.542 255.461 211.735 255.074C211.927 254.687 212.477 254.473 212.8 254.756C212.953 254.375 213.129 253.971 213.469 253.745C213.809 253.52 214.364 253.59 214.5 253.976C214.715 253.676 214.993 253.347 215.355 253.364C215.673 253.376 215.928 253.682 215.967 254.005C216.001 254.329 215.854 254.646 215.639 254.883C215.423 255.12 215.151 255.293 214.879 255.461C215.214 255.541 215.474 255.876 215.463 256.229C215.457 256.581 215.185 256.904 214.845 256.968C215.083 257.072 215.219 257.383 215.123 257.632C215.032 257.88 214.726 258.024 214.483 257.938C214.358 257.892 214.251 257.799 214.149 257.713C213.865 257.453 213.429 256.858 213.027 256.945C212.602 257.031 212.041 257.563 211.672 257.799L211.667 257.793Z" fill="#629B4B"/>
</g>
</g>
<defs>
<clipPath id="clip0_660_24253">
<rect width="134" height="85.0002" fill="white" transform="translate(118 235)"/>
</clipPath>
<clipPath id="clip1_660_24253">
<rect width="91.1598" height="49.7656" fill="white" transform="translate(140.102 243.316)"/>
</clipPath>
</defs>
</svg>
