<svg width="370" height="490" viewBox="0 0 370 490" fill="none" xmlns="http://www.w3.org/2000/svg">
<path d="M119.5 253C119.5 253 118.739 271.59 124.296 284.974C133.794 307.822 155.313 315.428 155.313 315.428C155.313 315.428 155.482 303.172 167.119 300.483L149.571 278.869L148.617 253.065C148.617 253.065 134.323 246.597 119.5 253Z" fill="#FFD3A6"/>
<path d="M119.551 257.896C119.551 254.896 119.691 253.906 120.051 251.896L139.211 259.288C139.211 259.288 130.943 296.628 130.711 296.396C130.479 296.164 128.211 292.896 127.211 290.896C131.833 275.389 133.394 266.379 119.551 257.896Z" fill="#FBC08F"/>
<path d="M250 253C250 253 250.749 273.343 244.084 287.411C233.463 309.798 213.144 314.076 213.144 314.076C213.144 314.076 213.668 303.038 202 300.513L220.779 278.839L222.642 251.951C222.642 251.951 235.084 246.805 250 253Z" fill="#FFD3A6"/>
<path d="M250 257C250 254 250.36 252.51 250 250.5L231 257.892C231 257.892 239.268 295.232 239.5 295C239.732 294.768 242 291.5 243 289.5C238.378 273.992 236.157 265.483 250 257Z" fill="#FBC08F"/>
<path d="M221.009 385.611C221.009 385.611 217.702 434.585 216.87 437.976C216.049 441.378 224.169 445.631 228.937 450.502C231.67 453.296 223.741 456.113 218.523 454.555C211.652 452.501 203.882 451.297 200.913 450.104C197.944 448.911 198.517 443.742 201.149 440.108C203.139 437.347 191.331 394.005 191.714 382.717L221.009 385.611Z" fill="#F3EEF4"/>
<path d="M147.35 385.611C147.35 385.611 150.656 434.585 151.488 437.976C152.309 441.378 144.19 445.631 139.421 450.502C136.689 453.296 144.617 456.113 149.835 454.555C156.706 452.501 164.477 451.297 167.446 450.104C170.414 448.911 169.841 443.742 167.209 440.108C165.219 437.347 177.027 394.005 176.645 382.717L147.35 385.611Z" fill="#FFD3A6"/>
<path d="M221.375 399.372L216.397 439.75C216.397 439.75 206.757 444.861 199.828 440.581L198.435 399.142C206.125 400.114 214.057 399.955 221.375 399.372Z" fill="#F3EEF4"/>
<path d="M216.639 439.131C216.639 439.131 243.145 445.392 239.021 451.123C237.257 453.581 231.833 454.66 223.623 455.049C214.893 455.456 206.088 454.766 201.11 453.546C196.931 452.149 197.116 445.516 199.698 439.733C199.698 439.733 207.63 442.474 216.639 439.149V439.131Z" fill="black"/>
<path d="M221.004 440.281C219.89 439.962 218.905 439.697 218.162 439.52C218.014 440.652 216.379 443.959 218.199 444.384C219.964 444.808 220.447 441.554 221.004 440.281Z" fill="#E5EEEF"/>
<path d="M222.378 445.462C224.161 446.152 224.923 444.171 225.722 441.731C224.719 441.395 223.734 441.094 222.806 440.829C222.285 442.597 221.097 444.985 222.378 445.48V445.462Z" fill="#E5EEEF"/>
<path d="M151.322 397C150.616 425.988 149.502 441.641 150.003 436.954C150.003 436.954 155.631 440.297 166.888 437.715C166.888 437.715 170.138 417.534 173.166 397.761C165.922 397.654 158.529 397.336 151.322 397Z" fill="#F3EEF4"/>
<path d="M150.022 436.953C150.022 436.953 137.707 442.171 130.964 447.053C125.912 450.749 124.946 454.41 135.682 455.082C145.638 455.701 158.307 454.233 168.913 450.608C172.126 449.511 167.037 436.582 167.037 436.582C163.935 438.828 153.496 437.856 150.004 436.953H150.022Z" fill="black"/>
<path d="M139.695 441.853C140.605 443.427 142.24 446.434 143.856 445.567C145.026 444.931 142.853 442.278 141.757 440.81C141.088 441.146 140.401 441.499 139.695 441.853Z" fill="#E5EEEF"/>
<path d="M147.793 443.604C148.908 443.179 147.645 440.155 146.511 438.51C145.768 438.846 144.951 439.235 144.078 439.66C145.36 441.765 146.028 444.294 147.793 443.622V443.604Z" fill="#E5EEEF"/>
<path d="M141.479 305.72C208.38 311.839 233.514 299.601 233.514 299.601C235.066 303.412 225.361 397.827 224.742 431.736C209.595 435.988 205.512 432.918 193.131 431.923L188.329 338.679L172.9 429.383C158.832 432.575 148.227 432.796 137.881 426.865L141.491 305.72H141.479Z" fill="#3E5282"/>
<path d="M243.699 322.871C241.544 303.321 237.686 277.337 235.5 257C241.934 257.832 251.238 255.857 252.5 254C251.284 244.611 247.086 232.713 241.221 224.35C239.251 221.542 236.034 217.903 230.431 213.936C217.5 206 185.5 201 148 210.5C135.101 214.155 125.943 225.687 123.758 231.436C120.894 238.967 117.554 249.514 117 254C120.648 259.006 130.667 263.53 135.5 263.5C134.469 268.224 126.975 302.058 125.358 321.445C125.358 321.445 166.781 335.661 243.684 322.871H243.699Z" fill="#90DCFF"/>
<path d="M230.031 443.234C227.468 445.428 226.205 448.753 226.836 451.689C221.282 452.484 207.314 453.245 198.082 449.725C198.194 451.883 199.271 453.086 200.943 453.652C205.902 454.872 215.004 455.721 223.734 455.314C231.944 454.943 237.349 453.758 239.133 451.299C241.12 448.54 235.994 445.038 230.05 443.234H230.031Z" fill="#F2F2F2"/>
<path d="M141.348 451.598C141.088 449.74 138.06 444.877 135.107 444.364C133.621 444.824 132.042 445.92 130.816 446.822C125.448 450.713 124.705 454.817 135.441 455.489C145.397 456.108 158.622 454.304 169.229 450.678C170.213 450.342 170.38 448.874 170.157 446.999C161.613 449.74 147.459 452.836 141.348 451.615V451.598Z" fill="#F2F2F2"/>
<path d="M237 270C237 268 236.995 268.11 236.5 266C220 270 165.232 269.869 134.216 268.588C133.834 270.179 133.463 271.758 133.114 273.327C164.793 275.823 205.939 275.147 237 270Z" fill="#6ACDFB"/>
<path d="M133.126 273.315C132.631 275.547 132.159 277.756 131.709 279.91C163.916 281.986 205.972 281.65 238 277C237.516 274.758 237.495 272.22 237 270C205.939 275.147 164.805 275.801 133.126 273.304V273.315Z" fill="white"/>
<path d="M238.366 280.876C238.366 280.535 238.055 277.257 238 277C205.972 281.661 163.905 281.986 131.709 279.91C131.461 281.102 131.225 282.295 131 283.466C159.586 286.824 207.08 285.703 238.366 280.876Z" fill="#6ACDFB"/>
<g clip-path="url(#clip0_660_24253)">
<path d="M164.189 207.386C164.189 207.386 172.966 214.543 184.517 218.539C190.553 216.742 201.777 205.188 201.777 205.188C201.777 205.188 181.071 208.751 164.189 207.386Z" fill="#FFD3A6"/>
<g style="mix-blend-mode:multiply" opacity="0.4">
<path d="M193.331 212.973C197.809 209.278 201.777 205.188 201.777 205.188C201.777 205.188 181.071 208.751 164.189 207.386C164.189 207.386 167.775 210.296 173.366 213.453C180.001 214.54 186.668 213.962 193.331 212.973Z" fill="#FFAA7E"/>
</g>
<g style="mix-blend-mode:multiply" opacity="0.5">
<path d="M164.904 204.878C164.904 204.878 153.887 206.74 151.402 209.451C153.479 214.333 162.432 228.219 171.296 234.204C175.188 233.375 184.398 218.502 184.398 218.502C184.398 218.502 172.497 212.284 164.904 204.878Z" fill="#B8B9CF"/>
</g>
<g style="mix-blend-mode:multiply" opacity="0.5">
<path d="M201.089 205.227C201.089 205.227 211.959 195.828 215.507 201.012C214.333 210.263 205.053 228.325 199.942 232.427C186.541 224.072 184.283 218.732 184.283 218.732C184.283 218.732 193.689 214.622 201.089 205.227Z" fill="#B8B9CF"/>
</g>
<path d="M164.277 203.944C164.277 203.944 154.145 206.455 151.646 209.079C154.492 213.321 160.419 221.381 171.454 231.485C175.348 230.673 184.529 218.502 184.529 218.502C184.529 218.502 171.852 211.103 164.258 203.946L164.277 203.944Z" fill="white"/>
<path d="M200.922 204.481C200.922 204.481 212.283 194.855 215.826 199.879C214.057 205.638 203.957 224.99 199.555 228.942C187.899 224.371 184.401 218.519 184.401 218.519C184.401 218.519 193.498 213.593 200.924 204.499L200.922 204.481Z" fill="white"/>
</g>
<defs>
<clipPath id="clip0_660_24253">
<rect width="68.7862" height="38.3489" fill="white" transform="translate(151 198)"/>
</clipPath>
</defs>
</svg>
