<svg width="370" height="490" viewBox="0 0 370 490" fill="none" xmlns="http://www.w3.org/2000/svg">
<ellipse opacity="0.08" cx="183" cy="452.5" rx="63" ry="17.5" fill="black"/>
<path d="M119.5 253C119.5 253 118.739 271.59 124.296 284.974C133.794 307.822 155.313 315.428 155.313 315.428C155.313 315.428 155.482 303.172 167.119 300.483L149.571 278.869L148.617 253.065C148.617 253.065 134.323 246.597 119.5 253Z" fill="#FFD3A6"/>
<path d="M119.551 257.896C119.551 254.896 119.691 253.906 120.051 251.896L139.211 259.288C139.211 259.288 130.943 296.628 130.711 296.396C130.479 296.164 128.211 292.896 127.211 290.896C131.833 275.389 133.394 266.379 119.551 257.896Z" fill="#FBC08F"/>
<path d="M250 253C250 253 250.749 273.343 244.084 287.411C233.463 309.798 213.144 314.076 213.144 314.076C213.144 314.076 213.668 303.038 202 300.513L220.779 278.839L222.642 251.951C222.642 251.951 235.084 246.805 250 253Z" fill="#FFD3A6"/>
<path d="M250 257C250 254 250.36 252.51 250 250.5L231 257.892C231 257.892 239.268 295.232 239.5 295C239.732 294.768 242 291.5 243 289.5C238.378 273.992 236.157 265.483 250 257Z" fill="#FBC08F"/>
<path d="M221.009 385.611C221.009 385.611 217.702 434.585 216.87 437.976C216.049 441.378 224.169 445.631 228.937 450.502C231.67 453.296 223.741 456.113 218.523 454.555C211.652 452.501 203.882 451.297 200.913 450.104C197.944 448.911 198.517 443.742 201.149 440.108C203.139 437.347 191.331 394.005 191.714 382.717L221.009 385.611Z" fill="#FFD3A6"/>
<path d="M147.35 385.611C147.35 385.611 150.656 434.585 151.488 437.976C152.309 441.378 144.19 445.631 139.421 450.502C136.689 453.296 144.617 456.113 149.835 454.555C156.706 452.501 164.477 451.297 167.446 450.104C170.414 448.911 169.841 443.742 167.209 440.108C165.219 437.347 177.027 394.005 176.645 382.717L147.35 385.611Z" fill="#FFD3A6"/>
<path d="M141.479 305.72C208.38 311.839 233.514 299.601 233.514 299.601C235.066 303.412 225.361 397.827 224.742 431.736C209.595 435.988 205.512 432.918 193.131 431.923L188.329 338.679L172.9 429.383C158.832 432.575 148.227 432.796 137.881 426.865L141.491 305.72H141.479Z" fill="#A97C50"/>
<path d="M243.699 322.871C241.544 303.321 237.686 277.337 235.5 257C241.934 257.832 251.238 255.857 252.5 254C251.284 244.611 247.086 232.713 241.221 224.35C239.251 221.542 236.034 217.903 230.431 213.936C217.5 206 185.5 201 148 210.5C135.101 214.155 125.943 225.687 123.758 231.436C120.894 238.967 117.554 249.514 117 254C120.648 259.006 130.667 263.53 135.5 263.5C134.469 268.224 126.975 302.058 125.358 321.445C125.358 321.445 166.781 335.661 243.684 322.871H243.699Z" fill="#009444"/>
<path d="M184.134 226.88C196.999 228.503 204.05 217.966 207.255 206.711C202.622 205.695 197.269 204.855 192.523 205.021C183.47 205.319 170.156 205.231 160.912 206.104C164.128 217.292 173.102 225.643 184.134 226.88Z" fill="white"/>
<path d="M166 207.5C166 207.5 174.5 222 186.5 222C196.5 222 202.206 205.441 202.206 205.441C202.206 205.441 182 205.441 166 207.5Z" fill="#FFD3A6"/>
<g style="mix-blend-mode:multiply" opacity="0.4">
<path d="M193.5 216C196.796 213.986 202 205.5 202 205.5C202 205.5 184 205.5 166 207.5C166 207.5 172.002 214.439 176 216C183.296 218.848 186.889 220.041 193.5 216Z" fill="#FBC08F"/>
</g>
</svg>
