<?xml version="1.0" encoding="utf-8"?>
<!-- Generator: Adobe Illustrator 26.1.0, SVG Export Plug-In . SVG Version: 6.00 Build 0)  -->
<svg version="1.1" id="Layer_1" xmlns="http://www.w3.org/2000/svg" xmlns:xlink="http://www.w3.org/1999/xlink" x="0px" y="0px"
	 viewBox="0 0 4000 4000" style="enable-background:new 0 0 4000 4000;" xml:space="preserve">
<style type="text/css">
	.st0{display:none;}
	.st1{display:inline;fill:#E9C1FF;}
	.st2{opacity:0.2;}
	.st3{fill:#020076;}
	.st4{fill:#C12D1E;}
	.st5{fill:#E0452F;}
	.st6{fill:#5353A0;}
	.st7{fill:#30A8F9;}
	.st8{fill:#2ECFFF;}
	.st9{fill:#FFC41F;}
	.st10{fill:#E58C0C;}
	.st11{opacity:0.68;}
	.st12{fill:#FFFFFF;}
	.st13{fill:#DB3531;}
</style>
<g>
	<g class="st0">
		<rect class="st1" width="4000" height="4000"/>
	</g>
	<g>
		<g class="st2">
			<ellipse class="st3" cx="2070.89" cy="3224.46" rx="1393.81" ry="121.85"/>
		</g>
		<g>
			<g>
				<path class="st4" d="M1931.21,1089.86c2.85-102.61,29.94-187.08,29.94-187.08s-96.42-7.48-124.71,37.44
					c-28.29,44.92-44.18,141.8-44.18,141.8"/>
			</g>
			<g>
				<path class="st5" d="M1666.84,1104.18c0,0,31.35-229.52,152.49-266.57c121.14-37.05,456.05-4.28,513.06,51.31
					c57.01,55.58,49.17,279.33,45.61,276.48c-3.56-2.85-208.07-28.5-208.07-28.5s37.77-167.46-68.41-206.65
					c-106.18-39.19-255.82-40.62-280.76,19.95s-41.8,151.84-41.8,151.84L1666.84,1104.18z"/>
			</g>
			<g>
				<path class="st4" d="M2332.39,888.91c0,0-54.42,31.42-89.34,50.71c-15.5,8.56-23.34,26.36-19.26,43.59
					c8.2,34.64,19.27,90.93,12.4,118.82c-10.34,41.97,130.4,28.44,130.4,28.44s11.05-104.1,3.56-119.74"/>
			</g>
			<g>
				<path class="st3" d="M2378.02,1194.12c-3.03,0-6.06-0.47-8.98-1.42c-14.9-3.08-114.47-16.22-202.7-27.29
					c-8.04-1.01-15.29-5.37-19.94-12c-4.66-6.64-6.3-14.93-4.52-22.84c0.31-1.39,30.86-143.4-50.32-173.36
					c-106.48-39.3-229.86-30.97-244.23,3.93c-23.48,57.03-39.96,145.24-40.12,146.13c-2.49,13.42-14.07,23.25-27.71,23.51
					l-112.11,2.14c-8.53,0.28-16.45-3.36-22.03-9.63c-5.58-6.27-8.14-14.68-7-22.99c1.38-10.12,35.42-248.22,172.56-290.17
					c123.1-37.66,472.97-8.64,541.53,58.21c28.76,28.04,46.88,87.09,53.88,175.52c2.91,36.85,3.03,68.84,2.84,84.63
					c-0.53,43.61-2.85,48.42-9.48,55.92C2394.03,1190.81,2386.04,1194.12,2378.02,1194.12z M2202.91,1112.07
					c77.24,9.74,122.28,15.64,149.12,19.69c1.26-60.71-6.36-189.76-39.7-222.27c-44.94-43.82-366.21-80.61-484.59-44.4
					c-71.69,21.93-111.08,138.68-126.41,209.69l54.01-1.03c6.8-31.87,20.63-90.28,38.83-134.49
					c35.23-85.57,209.98-75.59,317.29-35.97C2209.41,939.43,2209.26,1055.6,2202.91,1112.07z"/>
			</g>
			<g>
				<path class="st6" d="M3198.89,2345.43c0,0-12.11,313.54,151.07,456.05l-151.27,91.21c0,0-134.9-110.2-145.16-352.02"/>
			</g>
			<g>
				<path class="st3" d="M3198.7,2921.44c-6.48,0-12.93-2.19-18.19-6.48c-5.91-4.83-145.01-121.25-155.7-373.06
					c-0.67-15.86,11.64-29.26,27.5-29.93c15.79-0.71,29.26,11.64,29.94,27.5c7.58,178.71,87.55,281.91,120.58,317.19l100.62-60.67
					c-142.82-157.68-133.75-439.05-133.27-451.65c0.62-15.86,14.1-28.24,29.83-27.61c15.86,0.61,28.22,13.97,27.61,29.83
					c-0.14,3.9-9.29,301.82,141.25,433.3c6.91,6.04,10.53,15.02,9.73,24.16c-0.81,9.15-5.93,17.36-13.79,22.1l-151.27,91.21
					C3208.95,2920.07,3203.81,2921.44,3198.7,2921.44z"/>
			</g>
			<g>
				<path class="st6" d="M3054.95,2133.8c0,0,11.75,359.43-156.41,399.37c-168.17,39.94,0,174.26,0,174.26
					c204.09-46.39,342.22-204.42,355.58-573.63L3054.95,2133.8z"/>
			</g>
			<g>
				<path class="st3" d="M2898.54,2736.17c-6.46,0-12.79-2.18-17.94-6.28c-16.64-13.29-98.87-83.02-83.69-150.81
					c8.06-35.96,40.01-60.82,94.99-73.87c119.21-28.31,137.39-277.02,134.33-370.46c-0.25-7.78,2.66-15.33,8.07-20.93
					c5.42-5.6,12.87-8.75,20.65-8.75h199.17c7.8,0,15.27,3.17,20.69,8.79c5.42,5.62,8.32,13.19,8.03,20.99
					c-12.64,349.22-136.26,545.69-377.93,600.62C2902.79,2735.93,2900.66,2736.17,2898.54,2736.17z M3083.82,2162.53
					c-1.29,91.31-18.79,360.63-178.64,398.59c-30.43,7.23-49.45,18.35-52.18,30.51c-4.69,20.92,25.25,59.27,53.01,84.41
					c199.75-51.56,301.36-215.47,318.02-513.51H3083.82z"/>
			</g>
			<g>
				<path class="st7" d="M3216.71,2133.8h-222.33c0,0,21.73-617.81-21.73-717.22c-43.47-99.41-152.49-141.09-152.49-141.09
					s163.54-17.1,237.29-14.96c73.75,2.14,159.26,73.62,159.26,108.96s37.41,734.94,37.41,734.94L3216.71,2133.8z"/>
			</g>
			<g>
				<path class="st3" d="M3216.71,2162.53h-222.33c-7.8,0-15.26-3.17-20.68-8.78c-5.42-5.61-8.32-13.18-8.05-20.97
					c8.64-245.72,10.62-636.16-19.34-704.69c-37.93-86.74-135.5-125.41-136.48-125.79c-12.37-4.8-19.89-17.46-18.13-30.62
					c1.76-13.16,12.27-23.41,25.47-24.79c6.75-0.71,166.35-17.28,241.11-15.11c82.22,2.38,187.17,79.59,187.17,137.69
					c0,27.35,24.44,491.7,37.37,733.41c0.5,9.35-3.59,18.36-10.95,24.14l-37.41,29.37
					C3229.39,2160.37,3223.14,2162.53,3216.71,2162.53z M3024.08,2105.05h182.7l17.84-14.01c-5.54-103.89-36.42-683.99-36.65-721.16
					c-3.18-18.07-68.63-78.81-131.36-80.63c-36.09-1.02-95.47,2.76-145.3,6.78c32.23,25.07,66.59,60.83,87.67,109.03
					C3039.63,1498.04,3028.22,1970.72,3024.08,2105.05z M3187.97,1369.48c0,0.01,0,0.03,0,0.05
					C3187.97,1369.51,3187.97,1369.5,3187.97,1369.48z"/>
			</g>
			<g>
				<path class="st8" d="M2650.2,1300.07c0,0,358.07-31,461.75,34.2c103.68,65.2,104.75,799.52,104.75,799.52h102.61
					c0,0,18.17-707.6-99.41-869c-117.58-161.4-803.17-111.81-803.17-111.81L2650.2,1300.07z"/>
			</g>
			<g>
				<path class="st3" d="M3319.32,2162.53h-102.61c-15.85,0-28.72-12.84-28.74-28.7c0-1.83-0.42-185.05-13.45-373.64
					c-24.22-350.86-69.11-396.09-77.87-401.6c-78.29-49.24-347.04-38.28-443.97-29.9c-6.23,0.56-12.49-0.97-17.8-4.32
					l-233.46-147.09c-10.51-6.62-15.57-19.24-12.56-31.29c3.01-12.05,13.42-20.8,25.81-21.69c1.73-0.12,175.18-12.42,360.77-4.67
					c259.78,10.86,412.76,52.8,467.71,128.22c121.92,167.37,105.65,857.37,104.9,886.66
					C3347.65,2150.11,3334.91,2162.53,3319.32,2162.53z M3245.22,2105.05h45.95c3.57-212.83-6.89-703.08-94.49-823.33
					c-24.38-33.46-111.76-91.55-423.17-104.62c-100.52-4.22-197.48-2.45-264.54,0.02l148.43,93.51
					c66.61-5.27,367.57-25,469.85,39.31c32,20.12,54.53,73,73.06,171.45c13.19,70.12,23.82,162.68,31.57,275.11
					C3241.98,1902.75,3244.57,2045.7,3245.22,2105.05z"/>
			</g>
			<g>
				<path class="st7" d="M2804.12,2443.78l-50.58,462.49l-913.96-43.11l-774.14-36.5L961.4,2177.64c0,0,3.11-79.61,15.14-194.29
					c19.54-186.82,62.75-466.75,154.77-647.15c-71.28,187.3-156.64,589.09-154.77,768.24c0,0,188.35-57.87,564.18-31.14
					c270.64,19.21,435.28,72.09,514.75,135.37c30.9,24.62,48.91,50.78,55.28,77.17l237.3,59.11c0,0-4.26-516.86-17.1-633.74
					c-12.79-116.83,4.31-325.63-175.99-484.52c-31.47-27.74-74.49-48.72-124.11-64.38c-229.54-72.76-599.92-32.91-615.77-31.19
					c62.61-12.65,134.36-20.64,210.91-24.96c120.18-6.85,252.15-4.65,378.71,2.78c248.85,14.56,476.81,49.19,553.74,74.97
					c165.88,55.61,230.02,316.39,228.59,545.84C2785.58,1959.21,2804.12,2443.78,2804.12,2443.78z"/>
			</g>
			<g>
				<path class="st8" d="M2348.05,2344.96l-237.3-59.11c-6.37-26.39-24.38-52.55-55.28-77.17
					c-79.47-63.28-244.11-116.16-514.75-135.37c-375.84-26.73-564.18,31.14-564.18,31.14c-1.87-179.15,83.49-580.95,154.77-768.24
					c0-0.05,0.05-0.1,0.05-0.14c26.63-52.17,57.29-95.95,92.69-126.8c11.26-9.82,22.99-18.3,35.21-25.34
					c6.08-3.5,12.5-6.9,19.21-10.11c37.03-17.92,83.25-31.9,136.09-42.59c0,0,0.19,0,0.53-0.1c15.86-1.72,386.23-41.58,615.77,31.19
					c49.63,15.66,92.64,36.64,124.11,64.38c180.3,158.89,163.2,367.69,175.99,484.52
					C2343.79,1828.1,2348.05,2344.96,2348.05,2344.96z"/>
			</g>
			<g>
				<path class="st9" d="M2348.05,2344.96l-237.3-59.11c-6.37-26.39-24.38-52.55-55.28-77.17
					c-79.47-63.28-244.11-116.16-514.75-135.37c-375.84-26.73-564.18,31.14-564.18,31.14c-1.87-179.15,83.49-580.95,154.77-768.24
					c0-0.05,0.05-0.1,0.05-0.14c21.41-56.19,55.47-97.1,92.69-126.8c17.77-14.23,36.26-25.91,54.42-35.45
					c70.46-37.12,136.09-42.59,136.09-42.59s0.19,0,0.53-0.1c15.86-1.72,386.23-41.58,615.77,31.19
					c49.63,15.66,92.64,36.64,124.11,64.38c180.3,158.89,163.2,367.69,175.99,484.52
					C2343.79,1828.1,2348.05,2344.96,2348.05,2344.96z"/>
			</g>
			<g>
				<path class="st10" d="M2348.05,2344.96l-237.3-59.11c-6.37-26.39-24.38-52.55-55.28-77.17
					c266.43-71.37,196.68-321.95,168.9-619.99c-21.56-231.75-129.62-366.06-193.52-426.37c49.63,15.66,92.64,36.64,124.11,64.38
					c180.3,158.89,163.2,367.69,175.99,484.52C2343.79,1828.1,2348.05,2344.96,2348.05,2344.96z"/>
			</g>
			<g class="st11">
				<path class="st12" d="M2041.38,1172.5c0,0-531.66-38.13-731.55,60.21c-199.89,98.34-324.92,771.41-324.92,771.41l-8.38-20.79
					c27.02-258.09,99.16-693.85,282.71-799.43c79.61-45.79,213.64-69.12,366.73-77.74
					C1844.65,1128.72,2041.38,1172.5,2041.38,1172.5z"/>
			</g>
			<g>
				<path class="st5" d="M2188.79,1123.5c0,0,225.2,93.2,261.54,419.21s18.88,762.82,18.88,762.82l129.31,8.55
					c0,0-1.76-615.67-16.72-776.72c-14.96-161.04-61.45-308.43-165.05-384.38"/>
			</g>
			<g>
				<path class="st3" d="M2598.52,2335.63c-0.47,0-0.95-0.01-1.42-0.05l-129.31-8.55c-11.66-0.77-20.59-10.69-20.12-22.37
					c0.18-4.35,16.97-438.97-18.77-759.58c-17.98-161.31-84.46-261.84-137.06-317.77c-57.11-60.73-110.81-83.71-111.35-83.93
					c-10.95-4.6-16.15-17.21-11.57-28.18c4.58-10.97,17.15-16.18,28.11-11.63c9.68,4,237.39,101.92,274.71,436.74
					c31.58,283.3,22.59,653.75,19.72,745.08l85.41,5.65c-0.51-113.43-3.47-611.07-16.54-751.69
					c-16.83-181.13-69.43-305.28-156.33-368.99c-9.6-7.04-11.68-20.53-4.64-30.13c7.04-9.6,20.53-11.68,30.13-4.64
					c97.28,71.32,155.74,205.82,173.77,399.77c14.88,160.17,16.74,753.47,16.81,778.65c0.01,5.97-2.45,11.69-6.81,15.78
					C2609.26,2333.56,2603.98,2335.63,2598.52,2335.63z"/>
			</g>
			<g>
				<path class="st3" d="M2348.04,2368.89c-13.13,0-23.84-10.59-23.95-23.75c-0.04-5.16-4.39-516.96-16.94-631.29
					c-2-18.23-3.29-38.51-4.65-59.98c-7.52-118.55-17.82-280.92-163.39-409.22c-170.24-150.06-716.36-90.26-721.86-89.64
					c-13.18,1.49-25-7.96-26.49-21.11c-1.48-13.14,7.96-25,21.1-26.49c23.3-2.64,572.81-62.75,758.92,101.3
					c160.44,141.41,171.92,322.38,179.52,442.13c1.33,20.9,2.58,40.65,4.46,57.79c12.81,116.72,17.05,614.97,17.22,636.12
					c0.11,13.23-10.53,24.04-23.75,24.15C2348.18,2368.89,2348.11,2368.89,2348.04,2368.89z"/>
			</g>
			<g>
				<path class="st3" d="M2753.55,2934.99c-0.45,0-0.91-0.01-1.37-0.03l-1688.11-79.6c-15.85-0.75-28.11-14.21-27.36-30.06
					c0.75-15.85,14.37-28.11,30.06-27.35l1661.12,78.33l47.43-433.53c-1.33-35.27-18.41-493.44-17.04-713.16
					c0.75-120.98-16.94-237.51-49.83-328.14c-25.81-71.12-74.37-161.87-159.14-190.27c-82.38-27.6-344.97-64.96-604.55-76.57
					c-324.4-14.5-562.77,11.86-671.2,74.23c-100.73,57.95-181.74,242.47-234.26,533.62c-40.56,224.82-49.11,434.19-49.19,436.28
					c-0.62,15.86-14.06,28.24-29.84,27.6c-15.86-0.62-28.22-13.98-27.6-29.84c0.08-2.12,8.75-214.95,49.95-443.64
					c56.42-313.11,144.66-506.18,262.28-573.85c275.42-158.44,1154.04-58.85,1322.67-2.34c84.31,28.25,151.71,106.11,194.91,225.16
					c35.15,96.86,54.07,220.49,53.28,348.1c-1.41,226.19,16.89,707.9,17.08,712.73c0.05,1.41,0,2.82-0.15,4.22l-50.59,462.48
					C2780.5,2924.01,2768.12,2934.99,2753.55,2934.99z"/>
			</g>
			<g>
				<path class="st13" d="M2894.31,2428.86c-0.05-0.38-0.05-0.67-0.05-0.77l0.05-0.1V2428.86z"/>
			</g>
			<g>
				<g>
					<path class="st9" d="M2956.54,2796.14c-27.5,13.32-68.31,21.46-124.26,23.76c19.97,121.53,28.79,216.32-11.07,270.55
						c-77.46,105.33-264.08,98.77-455.59,88.57c-11.02-6.08-21.56-10.87-31.57-14.08c-141.55-45.6-112.81-290.76-112.81-290.76
						s-1.53-339.38,0-469.58c0.86-73.34,51.35-101.22,95.28-111.51c-10.83,1.44-16.91,2.49-16.91,2.49h-188.11
						c0,0,0.05-0.29,0.05-0.86h188.06c0,0,76.26-13.56,171.01-7.14c94.8,6.42,394.76,5.7,416.17,46.32
						c6.47,12.22,6.75,47.28,7.52,93.26v1.01c0.29,18.39,0.67,38.51,1.53,59.59c0.05,0.05,0.05,0.14,0,0.19
						c3.78,89.82,16.57,197.26,70.56,264.56C2977.86,2766.78,2972.97,2788.19,2956.54,2796.14z"/>
				</g>
				<g>
					<path class="st8" d="M2365.63,3179.02c-15.95-0.81-31.9-1.72-47.85-2.54c-26.15-1.34-52.26-2.63-78.03-3.5H1066.11
						c-213.78-8.53-234.96-131.3-243.53-200.99c-0.05-0.38-0.1-0.72-0.14-1.05c-8.29-67.3,8.14-333.87,9.2-350.49v-0.29
						c0.05-0.33,0.05-0.53,0.05-0.53c-0.05-0.05-0.05-0.14-0.1-0.19c-85.36-196.59-14.13-397.39,35.73-461.53
						c49.87-64.14,394.76-112.62,825.2-68.4c37.51,3.83,71.61,8.57,102.7,14.03c73.62,12.89,130.15,29.7,173.5,48.05
						c139.82,59.11,142.94,133.79,142.84,142.32c0,0.53-0.05,0.81-0.05,0.81h0.05c0,0.58-0.05,0.86-0.05,0.86h188.11
						c0,0,6.08-1.05,16.91-2.49c-43.93,10.3-94.41,38.18-95.28,111.51c-1.53,130.2,0,469.58,0,469.58s-28.74,245.16,112.81,290.76
						C2344.07,3168.14,2354.61,3172.93,2365.63,3179.02z"/>
				</g>
				<g class="st11">
					<path class="st12" d="M1968.71,2151.56c-306.86-26.25-966.03-41.05-1059.1,54.22c-97.86,100.16-79.37,393.8-78.03,413.63
						c-85.36-196.59-14.13-397.39,35.73-461.53c49.87-64.14,394.76-112.62,825.2-68.4c37.51,3.83,71.61,8.57,102.7,14.03
						C1868.84,2116.4,1925.36,2133.22,1968.71,2151.56z"/>
				</g>
				<g class="st11">
					<path class="st12" d="M2894.31,2427.14v0.91c-0.05,0.05-0.05,0.05-0.05,0.05s-35.02-48.48-61.98-58.92
						c-26.92-10.44-392.5-34.68-484.24-24.24c-91.68,10.49-123.68,116.88-123.68,116.88s-4.02-41.87,0-80.47
						c4.02-38.56,55.28-85.79,55.28-85.79s0-0.29,0-0.86h19.97c0,0,76.26-13.56,171.01-7.14c94.8,6.42,394.76,5.7,416.17,46.32
						C2893.26,2346.09,2893.55,2381.15,2894.31,2427.14z"/>
				</g>
				<g>
					<path class="st10" d="M2956.54,2796.99c-27.5,13.32-68.31,21.46-124.26,23.76c19.98,121.53,28.79,216.32-11.07,270.55
						c-83.92,114.1-295.89,96.9-503.44,86.03c-101.65-77.6-93.22-175.03-93.22-175.03c28.98,117.41,278.16,141.21,424.02,80.67
						c145.91-60.55,104.95-176.71,104.95-176.71c-381.25-3.59-351.79-156.45-351.79-156.45s254.17,40.29,385.27-12.45
						c91.01-36.6,107.4-169.33,108.83-248.56c3.78,89.82,16.57,197.26,70.56,264.56
						C2977.85,2767.62,2972.97,2789.03,2956.54,2796.99z"/>
				</g>
				<g>
					<path class="st7" d="M2367.45,3180.02c-42.68-2.25-85.65-4.74-127.71-6.18H1066.11c-214.84-8.57-235.15-132.54-243.67-202.05
						c0.05,0.05,0.1,0.14,0.14,0.19c93.65,141.6,542.29,111.71,906.97,90.34c364.87-21.41,286.45-385.51,273.61-642.79
						c-12.6-253.21-201.9-313.28-207.8-315.1c304.32,53.22,315.96,173.88,316.2,189.45v0.81c0,0.58-0.05,0.86-0.05,0.86h188.11
						c0,0,6.08-1.05,16.91-2.49c-43.93,10.3-94.41,38.18-95.28,111.51c-1.53,130.2,0,469.58,0,469.58s-28.74,245.16,112.81,290.76
						c10.01,3.21,20.55,8,31.57,14.08C2366.25,3179.35,2366.83,3179.69,2367.45,3180.02z"/>
				</g>
				<g>
					<path class="st3" d="M2518.33,3213.86c-56.16,0-114.76-3.15-172.79-6.26c-35.07-1.88-71.34-3.83-106.28-5.05H1066.13
						c-0.38,0-0.76-0.01-1.14-0.02c-244.32-9.73-263.08-162.14-271.08-227.23c-8.12-65.97,5.95-305.15,8.68-349.8
						c-47.05-112.48-43.61-219.58-32.23-290.17c14.82-91.86,48.09-160.57,74.28-194.24c66.2-85.12,447.85-120.71,850.79-79.35
						c184.67,18.96,314.94,61.48,387.17,126.39c32.89,29.55,47.13,58.09,53.22,78.68h161.4c14.69-2.4,86.92-13.05,175.36-7.06
						c20.24,1.37,50.49,2.42,85.53,3.64c258.78,9,334.9,21.46,354.12,57.97c8.96,17.04,9.8,44.66,10.7,100.55
						c1.52,93.99,3.82,236.04,65.92,313.48c10.95,13.65,15.01,31.31,11.14,48.44c-3.87,17.17-15.15,31.39-30.95,39.04
						c-25.85,12.52-59.87,20.61-103.39,24.52c15.99,104.49,22.88,200.86-21.26,260.92
						C2780.91,3194.65,2657.08,3213.86,2518.33,3213.86z M1066.7,3145.07h1173.05c0.33,0,0.66,0,0.99,0.02
						c35.64,1.23,72.36,3.2,107.87,5.11c186.19,10.01,378.68,20.34,449.45-75.95c35.26-47.97,22.23-149.25,5.87-248.86
						c-1.34-8.12,0.88-16.43,6.07-22.81c5.2-6.38,12.88-10.23,21.11-10.57c50.55-2.08,88.53-9.1,112.87-20.89
						c-74.4-92.57-76.89-246.45-78.54-348.28c-0.44-27.08-0.97-60.21-3.58-72.41c-7.15-3.72-32.13-12.68-113.57-19.73
						c-61.31-5.31-133.88-7.83-192.19-9.86c-35.54-1.24-66.23-2.3-87.41-3.74c-89.8-6.07-163.34,6.63-164.08,6.75
						c-1.65,0.29-3.33,0.44-5,0.44h-188.12c-8.28,0-16.25-2.7-21.7-8.93c-5.36-6.11-7.95-13.36-7.02-21.38
						c-0.44-8.11-13.96-136.14-393.21-175.06c-195.15-20.03-390.29-22.31-549.49-6.41c-171.86,17.17-238.72,49.28-250.06,63.87
						c-44.22,56.85-113.66,244.72-31.96,432.65c1.82,4.18,2.61,8.73,2.32,13.27c-6.1,96.56-15.92,293.13-9.42,345.98
						C858.73,3031.44,871.73,3137.11,1066.7,3145.07z M2864.13,2351.82L2864.13,2351.82L2864.13,2351.82z M2082.82,2293.52
						L2082.82,2293.52L2082.82,2293.52z"/>
				</g>
				<g>
					<path class="st3" d="M2869.03,2838.09c-134.03,16.37-310.83,21.56-438.76-24.06c-26.2-11.52-45.89-35.13-54.38-62.18
						c-15.32-42.54-25.02-87.22-29.95-131.73c-7.73-71.22-3.71-142.97,10.76-211.92c1.3-6.19,7.37-10.15,13.55-8.85
						c5.53,1.16,9.29,6.13,9.09,11.58c-2.39,112.35,4.36,224.5,45.37,329.12c6.05,15.39,19.76,26.6,35.75,30.26
						c96.8,27.54,200.46,28.53,300.86,26.37c34.18-1.09,68.87-3.23,102.37-6.18C2894.36,2788.57,2899.7,2832.96,2869.03,2838.09
						L2869.03,2838.09z"/>
				</g>
				<g>
					<path class="st3" d="M2305.42,2318.79c-41.95,11.76-63.77,51.37-66.29,93.35c-4.6,48.72-6.9,98.63-5.3,147.39
						c0.68,16.2-22.99,18.41-25.21,2.2c-5.5-50.75-6.95-100.85-6.03-151.7c0.03-12.77,1.75-28.19,4.56-41.11
						c10.1-43.75,43.2-82.82,86.66-96.61C2324.74,2265.6,2335.91,2310.14,2305.42,2318.79L2305.42,2318.79z"/>
				</g>
				<g>
					<path class="st3" d="M2507.36,3209.11c-81.73-4.28-181.98-4.54-246.08-63.48c-14.22-12.89-25.52-28.67-34.45-45.31
						c-3.68-6.26-7.52-15.03-9.35-22.47c-13.73-59.17-11.47-117.7-12.83-177.15c-0.27-54.59,0.63-108.98,1.53-163.36
						c0.11-6.91,5.81-12.42,12.72-12.3c6.75,0.11,12.17,5.6,12.3,12.3c1,54.3,2.01,108.6,4.18,162.67
						c2.6,52.38,4.01,108.19,14.96,158.67c1.33,5.6,2.81,10.78,5.14,15.84c1.48,3.92,6.56,11.22,8.77,15.32
						c20.37,30.91,50.98,49.18,87.49,58.28c49.99,12.66,104.2,12.74,156.34,13.08C2540.26,3162.18,2539.82,3209.03,2507.36,3209.11
						L2507.36,3209.11z"/>
				</g>
				<g>
					<path class="st3" d="M900.49,2381.99c6.65-35.35,13.51-68.63,30.23-101.55c6.53-12.28,16.78-25.29,32.81-27.35
						c23.58-4.03,47.88-6.24,71.49-8.33c102.5-8.67,204.94-12.93,307.69-14.44c102.36-1.21,206.48-0.19,308.74,8.5
						c52.52,5.08,105.41,9.49,156.67,26.41c7.98,2.51,16.72,6.57,24.24,10.34c125.87,71.46,104.09,505.89,93.2,641.21
						c-1.62,13.24-21.01,13.02-21.46-0.95c0.48-67.86-0.63-136.05-3.65-203.82c-4.99-88.64-16.12-343.9-88.67-394.91
						c-1.86-1.41-6.4-3.03-8.63-4.08c-2.25-1.34-7.47-2.89-10.14-3.75c-46.34-14.22-96.52-18.68-145.55-23.07
						c-202.93-14.38-407.11-12.29-610.42-7.7c-23.38,0.98-46.81,1.28-69.96,3.81c-19.58,4.64-42.63,83.05-48.37,103.52
						C915.83,2397.16,898.67,2393.85,900.49,2381.99L900.49,2381.99z"/>
				</g>
				<g>
					<path class="st3" d="M2128.31,2270.36l-4.47,690.77c-0.04,6.82-5.61,12.32-12.43,12.27c-6.68-0.04-12.08-5.4-12.27-12.02
						l-18.73-690.53C2080.64,2238.8,2127.29,2237.98,2128.31,2270.36L2128.31,2270.36z"/>
				</g>
				<g>
					<path class="st12" d="M831.63,2620.13c0.05,0.19,0.05,0.33,0.05,0.33l-0.05-0.05V2620.13z"/>
				</g>
			</g>
			<g>
				<ellipse class="st6" cx="1645.46" cy="1491.34" rx="104.75" ry="121.85"/>
			</g>
			<g>
				<path class="st3" d="M1645.46,1634.74c-69.64,0-126.3-64.33-126.3-143.41s56.66-143.41,126.3-143.41s126.31,64.33,126.31,143.41
					S1715.1,1634.74,1645.46,1634.74z M1645.46,1391.04c-45.87,0-83.19,44.99-83.19,100.3c0,55.3,37.32,100.3,83.19,100.3
					c45.87,0,83.19-44.99,83.19-100.3C1728.65,1436.03,1691.33,1391.04,1645.46,1391.04z"/>
			</g>
			<g>
				<path class="st3" d="M3244.85,2281.54h-180.28c-45.9,0-83.25-37.35-83.25-83.25v-64.49c0-15.87,12.87-28.74,28.74-28.74
					s28.74,12.87,28.74,28.74v64.49c0,14.21,11.56,25.77,25.77,25.77h180.28c14.21,0,25.78-11.56,25.78-25.77v-59.5
					c0-15.87,12.87-28.74,28.74-28.74s28.74,12.87,28.74,28.74v59.5C3328.11,2244.19,3290.76,2281.54,3244.85,2281.54z"/>
			</g>
			<g>
				<path class="st3" d="M1931.22,1118.6c-0.27,0-0.54,0-0.82-0.01c-15.86-0.44-28.37-13.66-27.93-29.53
					c2.93-105.49,30.15-191.45,31.3-195.06c4.84-15.11,21-23.44,36.15-18.59c15.11,4.85,23.43,21.02,18.59,36.13
					c-0.33,1.04-25.89,82.29-28.58,179.12C1959.5,1106.25,1946.72,1118.6,1931.22,1118.6z"/>
			</g>
		</g>
	</g>
</g>
</svg>
