<?xml version="1.0" encoding="utf-8"?>
<!-- Generator: Adobe Illustrator 26.1.0, SVG Export Plug-In . SVG Version: 6.00 Build 0)  -->
<svg version="1.1" id="Capa_1" xmlns="http://www.w3.org/2000/svg" xmlns:xlink="http://www.w3.org/1999/xlink" x="0px" y="0px"
	 viewBox="0 0 2122 2122" style="enable-background:new 0 0 2122 2122;" xml:space="preserve">
<style type="text/css">
	.st0{fill:#404249;}
	.st1{fill:#E23B53;}
	.st2{fill:#CD2E4C;}
	.st3{fill:#B62543;}
</style>
<path class="st0" d="M846.43,520.76l213.97-45.62l211.57,53.56c2.55-11.42,3.7-20.69,4.22-26.49l-212.43-53.77
	c-1.81-8.69-4.08-22.39-4.05-36.44c-0.02-10.25,1.22-20.6,4.19-29.03c1.48-4.22,3.36-7.96,5.65-11.13c2.3-3.17,4.98-5.8,8.3-7.97
	c13.31-8.7,31.68-20.79,47.2-37.68c7.76-8.46,14.83-18.18,20.01-29.39c5.18-11.19,8.4-23.92,8.39-37.8
	c0.01-19.69-6.42-41.3-20.91-64.5c-12.03-19.35-27.64-32.87-44.59-41.21c-16.95-8.37-35.05-11.65-52.43-11.65
	c-17.98,0.01-35.26,3.47-50.47,8.7c-15.21,5.27-28.31,12.22-38.18,20c-12.6,9.94-20.2,22.84-24.46,35.42
	c-4.28,12.63-5.44,25.07-5.45,35.49c0.01,15.51,2.63,26.65,2.78,27.32c1.69,7.18,8.88,11.63,16.06,9.94
	c7.18-1.69,11.63-8.88,9.94-16.06c0,0,0,0,0,0c0,0,0,0,0,0c-0.13-0.55-2.08-9.55-2.07-21.19c-0.01-8.36,1.01-18.04,4.03-26.89
	c3.05-8.89,7.86-16.82,15.73-23.06c6.78-5.4,17.63-11.35,30.32-15.7c12.7-4.38,27.26-7.25,41.76-7.24c14.06,0,27.98,2.65,40.6,8.89
	c12.62,6.27,24.14,16.03,33.75,31.4c12.46,20.03,16.84,36.52,16.86,50.36c-0.01,9.8-2.19,18.48-5.93,26.61
	c-5.59,12.16-14.93,23.02-25.51,32.37c-10.57,9.36-22.22,17.13-32.02,23.5c-6.22,4.05-11.35,9.13-15.38,14.73
	c-6.06,8.41-9.72,17.88-11.93,27.4c-2.2,9.53-2.96,19.2-2.97,28.4c0.01,14.13,1.82,27.2,3.62,36.88c0.25,1.36,0.51,2.63,0.75,3.85
	l-192.67,42.87C844.71,495.61,844.3,505.47,846.43,520.76z"/>
<path class="st1" d="M1568.95,553.94c-45.83-25-292.34-58.33-292.34-58.33s-0.05,2.39-0.43,6.6c-0.52,5.79-1.68,15.07-4.22,26.49
	c-12.09,54.22-55.52,156.62-211.31,162.73c-171.96-8.54-207.15-119.75-214.23-170.67c-2.13-15.29-1.73-25.15-1.73-25.15
	s-7.04,0.95-18.93,2.65c-58.57,8.36-235.31,34.9-273.41,55.68c-45.83,25-360.77,304.28-360.77,304.28
	c16.74,37.81,43.14,77.81,72.52,115.97c6.31-4.66,12.83-9.07,19.7-13.32c2.08-1.29,4.18-2.52,6.28-3.77
	c-40.47-49.95-71.56-91.27-71.59-91.3l0,0c-1.96-2.6-1.44-6.3,1.17-8.26c2.6-1.96,6.3-1.44,8.26,1.17c0,0.01,1.33,1.76,3.8,5.01
	c2.47,3.25,6.09,7.99,10.65,13.91c9.13,11.85,22.04,28.47,37.2,47.52c6.56,8.24,13.59,16.99,20.86,25.96
	c23.1-13,47.22-24.14,71.72-34.2c52.9-21.73,108.66-46.17,166.38-51.24c-2.87-77.11-5.43-161.37-5.43-217.28
	c0.01-24,0.46-42.71,1.61-53.85c0.4-3.75,0.83-6.6,1.58-9.03c0.97-3.11,4.28-4.84,7.39-3.87c3.11,0.97,4.84,4.28,3.87,7.39
	c-0.3,0.91-0.76,3.38-1.1,6.73c-0.35,3.38-0.65,7.72-0.88,12.88c-0.46,10.31-0.67,23.86-0.67,39.74
	c0,111.24,10.2,336.54,12.75,391.05c0.36,7.79,0.57,12.09,0.57,12.1l0,0c0.16,3.26-2.36,6.02-5.61,6.18
	c-0.25,0.01-0.46-0.09-0.71-0.11c-1.29,2.82-2.58,5.64-3.88,8.45l4.31-3.83l-3.47,125.69c1.98-0.79,3.98-1.49,5.97-2.24
	c8.41,2.88,18.35,0.93,23.23-7.69c24.72-7,50.26-10.38,76.88-7.84c54.89,5.24,108.38,30.47,152.48,62.62
	c40.8,29.74,74.9,67.97,107.31,106.37c33.29,39.44,66.5,78.53,101.34,116.6c33.83,36.97,70.76,74.83,117,95.98
	c46.71,21.36,99.07,23.46,146.54,3.09c88.9-38.15,120.67-130.92,159.79-211.2c18.76-38.49,40.31-79.64,74.98-106.29
	c17.85-13.72,37.86-21,58.71-23.91l-4.18-151.18l6,5.33v0l-0.64-0.57c-2.01-8.53-3.81-17.08-5.46-25.63
	c-0.16,6.77-0.25,10.59-0.25,10.59h0c-0.08,3.26-2.79,5.84-6.05,5.76c-3.26-0.08-5.84-2.79-5.76-6.05c0-0.01,0.07-2.96,0.2-8.43
	c0.13-5.47,0.31-13.43,0.52-23.44c0.36-16.59,0.82-38.85,1.29-64.55c-0.74-18.82-0.42-37.68,0.96-56.4
	c0.9-57.18,1.64-122.13,1.64-179.43c0-53.4-0.66-100.22-2.43-127.6c-0.58-9.1-1.31-16.1-2.09-20.11c-0.62-3.2,1.48-6.29,4.68-6.91
	c3.2-0.62,6.29,1.48,6.91,4.68c0.96,5.01,1.67,12.22,2.28,21.58c0.6,9.34,1.08,20.75,1.44,33.82c0.73,26.13,1.01,58.86,1.01,94.54
	c0,49.11-0.55,103.79-1.27,154.4c48.4,16.41,90.9,51.33,130.4,82.01c22.97,17.84,46.87,34.45,69.54,52.64
	c69.23-84.26,107.87-151.35,113.91-162.13c0.57-1.02,0.84-1.51,0.84-1.52h0c1.56-2.86,5.14-3.92,8.01-2.36
	c2.86,1.56,3.92,5.15,2.36,8.01c-0.14,0.23-39.54,72.45-115.94,165.43c8.23,6.79,16.42,13.62,24.6,20.46
	c48.12-54.39,97.84-118.97,124.04-178.17C1929.72,858.21,1614.79,578.93,1568.95,553.94z"/>
<path class="st2" d="M1592.05,1897.67l-18.92-684.26c-20.85,2.91-40.86,10.19-58.71,23.91c-34.66,26.65-56.22,67.8-74.98,106.29
	c-39.12,80.28-70.89,173.05-159.79,211.2c-47.47,20.37-99.84,18.27-146.54-3.09c-46.25-21.15-83.17-59.01-117-95.98
	c-34.84-38.08-68.05-77.16-101.34-116.6c-32.42-38.4-66.51-76.63-107.31-106.37c-44.1-32.15-97.59-57.38-152.48-62.62
	c-26.62-2.54-52.17,0.84-76.88,7.84c-4.88,8.62-14.82,10.57-23.23,7.69c-1.99,0.75-3.99,1.45-5.97,2.24h0l-20.6,745.19l-0.92,33.21
	v0h1066.58v0L1592.05,1897.67z"/>
<path class="st2" d="M546.47,1052.1c0-0.03-4.22-87.32-7.91-186.44c-57.72,5.07-113.48,29.51-166.38,51.24
	c-24.51,10.07-48.63,21.21-71.72,34.2c26.33,32.46,56.44,68.35,84.43,98.73c23.78,25.83,46.09,47.69,62.64,59.7
	c2.64,1.92,3.22,5.61,1.3,8.25c-1.92,2.64-5.61,3.22-8.24,1.3c-17.83-12.99-40.3-35.14-64.37-61.25
	c-24.04-26.1-49.55-56.12-72.9-84.56c-4.49-5.46-8.89-10.87-13.19-16.18c-2.09,1.25-4.2,2.48-6.28,3.77
	c-6.87,4.25-13.39,8.66-19.7,13.32c-0.02,0.01-0.03,0.02-0.05,0.03c2.02,2.62,4.06,5.23,6.1,7.83c0.75,0.95,1.49,1.9,2.24,2.85
	c2.08,2.63,4.17,5.26,6.28,7.86c0.2,0.25,0.41,0.51,0.62,0.76c4.65,5.75,9.34,11.44,14.06,17.06c0.2,0.24,0.4,0.48,0.6,0.72
	c2.32,2.76,4.64,5.49,6.96,8.2c0.41,0.48,0.83,0.96,1.24,1.45c7.24,8.44,14.5,16.69,21.69,24.68c0.17,0.18,0.33,0.37,0.49,0.55
	c9.92,11.01,19.7,21.54,29.12,31.45c0.14,0.15,0.29,0.3,0.43,0.46c4.05,4.26,8.02,8.38,11.92,12.39
	c5.18,5.34,10.23,10.48,15.07,15.34c0.07,0.07,0.15,0.15,0.22,0.22c6.23,6.26,12.13,12.09,17.63,17.46
	c0.23,0.22,0.46,0.45,0.68,0.67c1.77,1.72,3.49,3.4,5.17,5.02c0.07,0.07,0.13,0.13,0.2,0.19c3.49,3.37,6.77,6.52,9.83,9.43
	c0.02,0.02,0.04,0.04,0.06,0.05c1.36,1.3,2.66,2.53,3.93,3.72c0.43,0.41,0.85,0.8,1.27,1.2c1.16,1.1,2.31,2.18,3.38,3.18
	c0.05,0.05,0.1,0.1,0.16,0.15c2.16,2.03,4.1,3.83,5.88,5.47c0.49,0.45,0.98,0.9,1.43,1.33c0.69,0.64,1.35,1.24,1.96,1.81
	c0.53,0.48,1,0.92,1.47,1.35c0.43,0.39,0.89,0.81,1.27,1.16c0.81,0.74,1.5,1.36,2.09,1.9c0.24,0.22,0.43,0.38,0.63,0.57
	c0.45,0.41,0.81,0.73,1.08,0.97c0.05,0.05,0.12,0.11,0.16,0.15c0.27,0.25,0.46,0.41,0.46,0.41l108.19-96.16
	c1.3-2.82,2.59-5.64,3.88-8.45C549.02,1057.38,546.62,1055.11,546.47,1052.1z"/>
<path class="st2" d="M1559.79,898.86c-1.39,18.72-1.7,37.57-0.96,56.4c0.1-5.3,0.2-10.69,0.29-16.27
	C1559.34,926.22,1559.57,912.76,1559.79,898.86z"/>
<path class="st2" d="M1677.22,1128.96c-2.34,2.27-6.08,2.22-8.35-0.12c-2.27-2.34-2.22-6.08,0.12-8.35
	c39.6-38.45,73.92-76.72,102.91-112.01c-22.67-18.19-46.58-34.8-69.54-52.64c-39.5-30.69-81.99-65.6-130.4-82.01
	c-1.08,75.91-2.54,142.53-3.11,167.53c1.65,8.55,3.46,17.1,5.46,25.63l89.37,79.44l17.76,15.79c0,0,0.2-0.18,0.51-0.45
	c0.02-0.01,0.03-0.02,0.04-0.04c0.29-0.26,0.71-0.64,1.25-1.12c0.2-0.18,0.43-0.39,0.66-0.6c0.53-0.48,1.12-1.02,1.82-1.65
	c0.36-0.33,0.78-0.71,1.18-1.08c0.43-0.39,0.89-0.81,1.37-1.25c0.88-0.81,1.84-1.69,2.88-2.65c0.4-0.37,0.81-0.74,1.23-1.14
	c1.36-1.26,2.83-2.63,4.41-4.11c0.26-0.24,0.5-0.46,0.76-0.71c2.99-2.79,6.33-5.95,10-9.44c0.06-0.06,0.13-0.12,0.19-0.18
	c2.42-2.3,4.97-4.75,7.65-7.34c0.06-0.05,0.11-0.11,0.17-0.16c4.85-4.68,10.11-9.82,15.69-15.34c5.51-5.46,11.34-11.3,17.42-17.5
	c0.02-0.02,0.05-0.05,0.07-0.07c8.72-8.88,17.95-18.47,27.46-28.63c0.15-0.16,0.29-0.32,0.44-0.47c3.45-3.69,6.95-7.46,10.47-11.29
	c0.53-0.58,1.07-1.16,1.6-1.75c3.11-3.4,6.25-6.86,9.4-10.36c0.72-0.8,1.43-1.59,2.15-2.4c1.8-2.01,3.6-4.04,5.41-6.08
	c-0.01,0-0.01-0.01-0.02-0.01c-8.18-6.84-16.37-13.68-24.6-20.46C1751.84,1051.52,1717.19,1090.14,1677.22,1128.96z"/>
<path class="st3" d="M1060.66,767.94c61.04,0.01,109.03-15.3,146.34-38.39c56.01-34.65,87.83-86.43,105.68-129.34
	c17.85-42.94,21.82-77.18,21.87-77.54c0.37-3.24-1.95-6.17-5.18-6.54c-3.24-0.37-6.17,1.95-6.54,5.18l0,0l-0.02,0.13
	c-0.37,3.15-8.19,62.4-44.79,120.23c-18.29,28.93-43.69,57.5-78.91,78.86c-35.22,21.35-80.3,35.59-138.46,35.6
	c-101.36-0.06-167.13-34.27-208.07-79.66c-40.92-45.41-56.95-102.6-56.93-148.52c0-1.95,0.03-3.88,0.09-5.77
	c0.1-3.26-2.46-5.98-5.71-6.09c-3.26-0.1-5.98,2.45-6.09,5.71c-0.07,2.03-0.09,4.08-0.09,6.14c0.02,48.55,16.77,108.4,59.96,156.42
	C886.99,732.4,956.67,768,1060.66,767.94z"/>
<path class="st3" d="M1669,1120.49c-2.34,2.27-2.39,6.01-0.12,8.35c2.27,2.34,6.01,2.39,8.35,0.12
	c39.97-38.81,74.61-77.44,103.86-113.04c76.4-92.99,115.81-165.2,115.94-165.43c1.56-2.86,0.51-6.45-2.36-8.01
	c-2.86-1.56-6.45-0.51-8.01,2.36h0c0,0-0.27,0.5-0.84,1.52c-6.05,10.78-44.68,77.87-113.91,162.13
	C1742.92,1043.77,1708.6,1082.04,1669,1120.49z"/>
<path class="st3" d="M1573.23,719.43c0-35.68-0.29-68.41-1.01-94.54c-0.36-13.07-0.84-24.48-1.44-33.82
	c-0.61-9.36-1.32-16.57-2.28-21.58c-0.62-3.2-3.71-5.3-6.91-4.68c-3.2,0.62-5.3,3.71-4.68,6.91c0.78,4.01,1.51,11.01,2.09,20.11
	c1.77,27.39,2.43,74.2,2.43,127.6c0,57.3-0.75,122.24-1.64,179.43c-0.22,13.9-0.44,27.36-0.67,40.13c-0.1,5.58-0.2,10.97-0.29,16.27
	c-0.48,25.7-0.94,47.95-1.29,64.55c-0.22,10.01-0.4,17.98-0.52,23.44c-0.13,5.47-0.2,8.42-0.2,8.43c-0.08,3.26,2.5,5.97,5.76,6.05
	c3.26,0.08,5.97-2.5,6.05-5.76h0c0,0,0.09-3.83,0.25-10.59c0.57-25,2.03-91.63,3.11-167.53
	C1572.69,823.22,1573.23,768.54,1573.23,719.43z"/>
<path class="st3" d="M551.94,1057.6c0.24,0.02,0.46,0.12,0.71,0.11c3.26-0.16,5.77-2.92,5.61-6.18l0,0c0-0.01-0.21-4.31-0.57-12.1
	c-2.55-54.52-12.76-279.81-12.75-391.05c0-15.88,0.21-29.43,0.67-39.74c0.23-5.15,0.53-9.5,0.88-12.88c0.34-3.35,0.8-5.83,1.1-6.73
	c0.97-3.11-0.76-6.42-3.87-7.39c-3.11-0.97-6.42,0.76-7.39,3.87c-0.74,2.43-1.17,5.27-1.58,9.03c-1.16,11.14-1.61,29.84-1.61,53.85
	c0,55.9,2.56,140.17,5.43,217.28c3.69,99.12,7.91,186.41,7.91,186.44C546.62,1055.11,549.02,1057.38,551.94,1057.6z"/>
<path class="st3" d="M376.2,1057.83c24.07,26.11,46.55,48.27,64.37,61.25c2.64,1.92,6.33,1.34,8.24-1.3
	c1.92-2.64,1.34-6.33-1.3-8.25c-16.55-12.01-38.86-33.87-62.64-59.7c-27.99-30.39-58.1-66.27-84.43-98.73
	c-7.27-8.96-14.31-17.72-20.86-25.96c-15.15-19.05-28.07-35.67-37.2-47.52c-4.56-5.93-8.18-10.66-10.65-13.91
	c-2.47-3.25-3.79-5.01-3.8-5.01c-1.96-2.6-5.66-3.13-8.26-1.17c-2.6,1.96-3.13,5.66-1.17,8.26l0,0c0.03,0.04,31.13,41.36,71.59,91.3
	c4.3,5.31,8.71,10.71,13.19,16.18C326.65,1001.71,352.16,1031.73,376.2,1057.83z"/>
<path class="st3" d="M546.46,1924.66c0,3.26,2.64,5.9,5.9,5.9H1562.7c3.26,0,5.9-2.64,5.9-5.9c0-3.26-2.64-5.9-5.9-5.9H552.37
	C549.11,1918.76,546.46,1921.4,546.46,1924.66z"/>
</svg>
