<svg xmlns="http://www.w3.org/2000/svg" fill="none" viewBox="103.74 360.23 170.37 117.07">
<ellipse opacity="0.08" cx="183" cy="452.5" rx="63" ry="17.5" fill="black"/>
<g clip-path="url(#clip0_660_24253)">
<path d="M161.758 442.74L149.388 444.897C149.388 444.897 142.445 459.162 126.273 461.978C110.102 464.794 104.745 469.233 104.745 469.233L103.742 477.301C103.742 477.301 120.731 467.995 131.357 466.183C141.983 464.37 153.875 457.383 161.758 442.74Z" fill="#F4BE38"/>
<path d="M206.128 416.945L239.452 411.102L182.23 396.825L107.718 410.04L139.761 418.513L182.23 410.976L206.128 416.945Z" fill="#367187"/>
<path d="M206.129 416.945L182.23 410.976L139.761 418.513L162.644 424.558L206.129 416.945Z" fill="#285869"/>
<path d="M150.909 424.274L157.734 419.188L179.844 419.582L173.019 424.668L150.909 424.274Z" fill="#9A71AE"/>
<path d="M172.6 445.476L179.425 440.39L179.843 419.582L173.019 424.668L172.6 445.476Z" fill="#78559E"/>
<path d="M150.896 424.237L150.48 445.041L172.586 445.433L173.002 424.629L150.896 424.237Z" fill="#8C61A5"/>
<path opacity="0.64" d="M158 441.047C157.899 441.262 157.721 441.417 157.48 441.501C157.239 441.584 156.998 441.584 156.77 441.489C156.541 441.393 156.377 441.226 156.275 441.011C156.186 440.784 156.186 440.557 156.288 440.331C156.757 439.328 157.848 437.203 159.548 433.956C161.121 430.923 161.92 429.383 161.933 429.336C162.009 429.133 162.161 428.966 162.364 428.858C162.681 428.703 162.998 428.703 163.315 428.882C163.455 428.978 163.582 429.097 163.683 429.252C163.734 429.336 163.785 429.455 163.835 429.61C163.911 429.837 164.026 430.171 164.165 430.625C164.406 431.449 164.711 432.547 165.078 433.92C165.903 437.06 166.461 439.328 166.727 440.725C166.766 440.963 166.727 441.178 166.575 441.369C166.423 441.56 166.233 441.68 165.979 441.727C165.725 441.763 165.497 441.727 165.281 441.584C165.078 441.441 164.952 441.262 164.901 441.023C164.774 440.307 164.52 439.197 164.14 437.668C163.176 437.716 161.717 437.657 159.789 437.477C158.926 439.149 158.33 440.343 158 441.035V441.047ZM162.643 431.974C162.529 432.225 162.3 432.666 161.983 433.275C161.653 433.896 160.829 435.472 160.651 435.806C161.945 435.926 162.96 435.973 163.708 435.937C163.569 435.4 162.846 432.654 162.643 431.974Z" fill="white"/>
<path d="M152.127 401.651L159.269 396.064H182.926L175.747 401.651H152.127Z" fill="#D6EA59"/>
<path d="M175.747 423.88L182.926 418.305V396.064L175.747 401.651V423.88Z" fill="#CDD120"/>
<path d="M175.747 401.651H152.127V423.88H175.747V401.651Z" fill="#DAC13D"/>
<path opacity="0.75" d="M169.138 419.033C169.113 419.296 168.998 419.511 168.796 419.678C168.593 419.845 168.352 419.928 168.098 419.917C167.895 419.905 167.717 419.845 167.565 419.726C166.081 420.024 164.749 420.108 163.557 419.964C162.39 419.845 161.502 419.487 160.88 418.914C160.056 418.162 159.776 417.147 160.03 415.846C160.144 415.189 160.55 414.616 161.235 414.151C160.956 414.043 160.69 413.912 160.436 413.78C159.789 413.41 159.269 412.957 158.876 412.408C158.483 411.87 158.292 411.273 158.305 410.641C158.305 409.96 158.559 409.339 159.053 408.778C159.548 408.217 160.233 407.752 161.108 407.382C162.973 406.594 165.624 406.283 169.062 406.319C169.252 406.319 169.417 406.367 169.557 406.45C169.709 406.427 169.861 406.427 170.013 406.45C170.28 406.51 170.483 406.653 170.622 406.868C170.762 407.083 170.812 407.322 170.762 407.573C170.622 408.193 170.495 408.838 170.407 409.519C170.318 410.187 170.229 410.975 170.153 411.882C170.077 412.79 170.013 413.482 169.95 413.959C169.886 414.449 169.734 415.32 169.493 416.574C169.29 417.624 169.176 418.436 169.138 419.033ZM165.053 412.742C165.218 412.706 165.409 412.658 165.612 412.61C165.751 412.587 167.121 412.312 167.273 412.276C167.578 412.217 167.857 412.276 168.111 412.443C168.326 410.342 168.491 408.922 168.631 408.181C165.675 408.146 163.442 408.444 161.92 409.101C160.842 409.554 160.284 410.068 160.271 410.665C160.271 410.903 160.373 411.154 160.563 411.429C160.753 411.703 161.058 411.954 161.464 412.181C162.44 412.73 163.595 412.909 164.939 412.742H165.053ZM167.933 414.031C167.933 414.031 167.819 414.079 167.755 414.103C167.59 414.139 166.157 414.413 166.03 414.437C165.231 414.592 164.584 414.759 164.064 414.926C163.379 415.141 162.859 415.368 162.504 415.595C162.187 415.81 162.009 416.001 161.971 416.192C161.844 416.837 161.946 417.302 162.263 417.577C162.555 417.851 163.062 418.03 163.785 418.114C164.812 418.221 165.979 418.15 167.273 417.875C167.324 417.457 167.413 416.908 167.552 416.252C167.755 415.141 167.882 414.401 167.933 414.031Z" fill="white"/>
<path d="M151.76 380.211L158.571 374.886H181.113L174.275 380.211H151.76Z" fill="#51AE44"/>
<path d="M174.275 401.401L181.112 396.089V374.887L174.275 380.211V401.401Z" fill="#1CA538"/>
<path d="M174.275 380.211H151.759V401.401H174.275V380.211Z" fill="#26A639"/>
<path opacity="0.64" d="M168.77 384.151C169.023 384.21 169.214 384.342 169.353 384.556C169.48 384.771 169.518 384.998 169.455 385.237C169.391 385.476 169.252 385.655 169.023 385.786C168.808 385.905 168.567 385.941 168.313 385.882C165.674 385.261 163.569 385.702 161.958 387.195C161.285 387.827 160.765 388.58 160.41 389.451C160.055 390.334 159.89 391.206 159.903 392.089C159.928 392.949 160.106 393.665 160.448 394.238C160.791 394.823 161.247 395.205 161.806 395.384C162.478 395.599 163.34 395.516 164.431 395.157C165.51 394.787 166.803 394.035 168.237 392.829C168.427 392.662 168.655 392.591 168.922 392.603C169.188 392.627 169.404 392.722 169.569 392.901C169.734 393.08 169.81 393.295 169.797 393.546C169.772 393.785 169.67 393.987 169.467 394.155C166.22 396.829 163.455 397.808 161.184 397.067C160.486 396.841 159.903 396.459 159.408 395.921C158.913 395.384 158.558 394.799 158.355 394.155C158.14 393.51 158.025 392.829 158.013 392.113C158.013 391.003 158.216 389.893 158.66 388.783C159.104 387.684 159.763 386.729 160.638 385.917C161.273 385.32 161.983 384.855 162.77 384.509C163.569 384.162 164.469 383.948 165.497 383.852C166.524 383.757 167.603 383.852 168.77 384.139V384.151Z" fill="white"/>
<path d="M178.539 433.266C178.539 433.266 186.696 423.731 193.203 423.136C193.203 415.675 193.926 408.062 193.926 408.062C193.926 408.062 183.994 409.782 181.064 412.653C178.438 415.233 178.527 433.278 178.527 433.278L178.539 433.266Z" fill="#E53815"/>
<g opacity="0.5">
<path d="M178.539 433.266C178.539 433.266 186.696 423.731 193.203 423.136C193.203 415.675 193.926 408.063 193.926 408.063C193.926 408.063 184.767 407.987 184.501 411.464C184.361 413.235 186.252 420.291 185.046 423.693C184.12 426.285 180.822 428.144 178.628 428.195C178.539 431.116 178.552 433.279 178.552 433.279L178.539 433.266Z" fill="#E42813"/>
</g>
<path d="M217.457 433.202C217.457 433.202 209.275 423.693 202.755 423.111C202.755 415.65 201.994 408.037 201.994 408.037C201.994 408.037 211.939 409.732 214.869 412.59C217.508 415.157 217.457 433.202 217.457 433.202Z" fill="#E53815"/>
<g opacity="0.5">
<path d="M217.457 433.202C217.457 433.202 209.276 423.693 202.755 423.111C202.755 415.65 201.994 408.037 201.994 408.037C201.994 408.037 203.44 418.141 206.371 420.999C207.677 422.276 216.392 427.954 217.153 423.718C217.483 428.599 217.47 433.202 217.47 433.202H217.457Z" fill="#E42813"/>
</g>
<g opacity="0.13">
<path d="M205.33 428.777C210.049 420.999 212.852 409.34 212.84 397.592C212.802 377.042 201.537 360.248 197.897 360.248C193.698 360.248 183.03 376.84 183.068 397.63C183.081 407.127 185.034 416.662 188.408 424.148C189.157 425.805 189.969 427.36 190.857 428.802L190.971 428.979H205.229L205.343 428.777H205.33Z" fill="#1D0403"/>
</g>
<path d="M205 428.587C208.983 422.011 212.472 410.718 212.446 397.579C212.421 376.662 201.119 360.615 197.884 360.627C194.231 360.627 183.41 376.713 183.436 397.629C183.461 410.769 187.14 422.023 191.161 428.587H204.988H205Z" fill="#ECDFE8"/>
<path d="M197.148 418.837C201.436 418.837 205.647 418.546 209.491 418.04C209.643 417.534 209.795 417.016 209.947 416.497C206.002 417.054 201.613 417.357 197.148 417.37C193.304 417.37 189.639 417.142 186.15 416.737C186.302 417.256 186.455 417.762 186.619 418.268C189.981 418.634 193.482 418.849 197.148 418.849V418.837Z" fill="#A31816"/>
<path d="M207.22 373.109C204.442 373.754 201.537 374.083 198.518 374.095C195.093 374.095 191.719 373.665 188.586 372.831C188.497 373.033 188.408 373.248 188.32 373.45C191.529 374.323 195.005 374.766 198.518 374.766C201.626 374.766 204.632 374.411 207.499 373.741C207.41 373.526 207.309 373.324 207.22 373.109Z" fill="#E53815"/>
<path d="M197.326 421.416C201.22 421.416 205.051 421.176 208.603 420.746C208.692 420.481 208.793 420.24 208.882 419.962C205.254 420.417 201.322 420.658 197.326 420.67C193.825 420.67 190.476 420.481 187.254 420.139C187.343 420.405 187.444 420.645 187.546 420.911C190.679 421.227 193.926 421.416 197.326 421.416Z" fill="#A31816"/>
<path d="M198.328 372.628C201.233 372.628 203.973 372.148 206.383 371.313C203.148 364.661 199.495 360.627 197.884 360.627C196.083 360.627 192.544 364.548 189.41 371.022C192.036 372.047 195.081 372.641 198.328 372.628Z" fill="#E53815"/>
<path d="M205.292 429.168H190.843L190.488 428.081H205.736L205.292 429.168Z" fill="#E53815"/>
<path d="M205.837 428.953H190.311V431.483H205.837V428.953Z" fill="#A31816"/>
<path d="M199.876 422.011C199.876 429.902 198.785 436.023 198.074 436.023C197.415 436.023 196.248 429.902 196.235 422.011C196.235 414.12 197.58 408.05 198.036 408.05C198.442 408.05 199.863 414.107 199.876 422.011Z" fill="#E53815"/>
<g opacity="0.13">
<path d="M197.288 360.374C204.062 366.154 208.045 382.378 206.56 401.094C205.508 414.436 201.892 426.07 197.161 433.354C197.478 435.036 197.821 436.023 198.087 436.023C198.467 436.023 198.949 434.277 199.317 431.483H205.85V428.953L205.305 428.928V428.814L205.33 428.764C206.078 427.524 206.763 426.146 207.423 424.73C212.624 427.588 217.47 433.203 217.47 433.203C217.47 433.203 217.355 427.638 217.343 427.322C217.343 427.069 217.152 423.718 217.152 423.718C216.835 418.925 216.188 413.867 214.882 412.59C214.159 411.881 213.017 411.262 211.698 410.705C212.459 406.482 212.852 402.043 212.852 397.579C212.814 377.029 201.55 360.235 197.909 360.235C197.719 360.235 197.516 360.311 197.3 360.374H197.288Z" fill="#1D0403"/>
</g>
<path opacity="0.29" d="M194.193 365.521C195.043 365.825 194.739 368.885 193.508 372.363C192.278 375.84 190.578 378.408 189.728 378.104C188.878 377.801 189.182 374.74 190.413 371.263C191.643 367.785 193.343 365.218 194.193 365.521Z" fill="white"/>
<path d="M204.937 385.262C204.937 389.043 201.841 392.103 198.036 392.091C194.23 392.091 191.135 389.018 191.148 385.249C191.148 381.468 194.243 378.408 198.049 378.42C201.854 378.42 204.949 381.493 204.937 385.262Z" fill="#E53815"/>
<path d="M203.504 385.262C203.504 388.246 201.055 390.674 198.036 390.662C195.017 390.662 192.582 388.234 192.582 385.249C192.582 382.265 195.03 379.837 198.049 379.849C201.068 379.862 203.504 382.277 203.504 385.262Z" fill="#5DA0CB"/>
<path opacity="0.36" d="M195.842 380.304L193.711 388.537C194.041 388.967 194.434 389.334 194.878 389.65L197.402 379.875C196.857 379.938 196.324 380.077 195.842 380.292V380.304ZM202.616 382.303L200.611 390.029C200.916 389.865 201.22 389.675 201.487 389.448L203.098 383.226C202.971 382.897 202.806 382.593 202.616 382.303ZM198.988 379.925L196.286 390.371C196.844 390.56 197.427 390.662 198.049 390.662C198.544 390.662 199.026 390.586 199.495 390.472L201.854 381.379C201.081 380.646 200.104 380.127 199 379.938L198.988 379.925Z" fill="white"/>
<path d="M155.106 413.952C155.106 413.952 155.589 410.651 155.734 410.005C155.879 409.359 156.817 408.522 157.332 409.586C157.842 410.662 159.466 415.893 159.466 415.893L159.27 417.914C159.27 417.914 153.69 417.114 155.106 413.952Z" fill="#E95A0D"/>
<path d="M156.793 409.09C156.337 409.01 155.836 409.559 155.734 410.005C155.589 410.651 155.106 413.952 155.106 413.952C154.493 415.319 155.19 416.246 156.173 416.857L156.793 409.09Z" fill="#DE584B"/>
<path d="M126.036 402.818L113.806 385.264C113.806 385.264 112.076 382.796 114.66 382.4C117.244 382.005 122.35 385.117 123.897 386.382C125.46 387.639 145.903 409.567 145.903 409.567L126.024 402.814L126.036 402.818Z" fill="#00A0D9"/>
<path d="M129.3 403.934C126.527 400.338 116.74 387.67 113.411 383.049C112.853 383.912 113.793 385.259 113.793 385.259L126.023 402.814L129.305 403.922L129.3 403.934Z" fill="#0081B1"/>
<path d="M161.651 421.788C159.587 426.036 146.122 425.573 131.741 419.163C117.36 412.752 109.617 405.113 111.545 400.791C113.47 396.48 124.329 397.131 138.715 403.529C153.096 409.94 163.393 418.191 161.655 421.776L161.651 421.788Z" fill="#454597"/>
<path d="M111.534 400.787C110.346 403.452 112.842 407.38 118.319 411.507C119.59 410.102 120.713 408.392 121.578 406.457C122.774 403.767 123.309 401.007 123.244 398.506C116.95 397.403 112.672 398.224 111.534 400.787Z" fill="#FBBE00"/>
<path d="M111.533 400.787C110.474 403.162 112.36 406.569 116.677 410.209C117.798 408.886 118.79 407.318 119.576 405.57C120.685 403.09 121.222 400.558 121.246 398.222C116.053 397.625 112.543 398.514 111.533 400.787Z" fill="#454597"/>
<path d="M129.604 407.791C129.604 407.791 128.203 408.721 129.571 410.727C130.935 412.745 153.28 438.34 153.28 438.34C153.28 438.34 154.933 440.338 157.988 440.442C162.189 440.572 161.809 438.201 159.18 433.651C157.943 431.504 149.32 416.162 149.32 416.162C149.32 416.162 130.168 404.947 129.604 407.791Z" fill="#00A0D9"/>
<path d="M157.884 440.432C150.722 432.783 135.716 414.136 130.272 407.341C129.886 407.367 129.648 407.512 129.588 407.799C129.588 407.799 128.187 408.729 129.555 410.735C130.919 412.752 153.264 438.347 153.264 438.347C153.264 438.347 154.878 440.305 157.879 440.444L157.884 440.432Z" fill="#0081B1"/>
<path d="M157.969 416.293L163.073 418.146C163.073 418.146 165.098 415.813 167.062 413.311C169.026 410.809 171.349 407.201 171.349 407.201C171.349 407.201 170.948 404.623 167.673 406.263C164.397 407.904 156.736 412.097 156.736 412.097C156.736 412.097 153.63 413.677 157.965 416.305L157.969 416.293Z" fill="#8C61A5"/>
<path d="M167.677 406.252C164.402 407.893 156.74 412.085 156.74 412.085C156.74 412.085 154.684 413.121 156.255 414.93L169.732 407.024C169.732 407.024 170.32 406.801 171.345 407.213C171.349 407.201 171.354 407.189 171.354 407.189C171.354 407.189 170.952 404.611 167.677 406.252Z" fill="#473E76"/>
<path d="M157.193 415.553L162.952 417.836L166.139 424.323C166.139 424.323 166.652 426.659 164.544 426.002C162.435 425.345 156.014 417.271 156.014 417.271C156.014 417.271 155.206 415.93 157.209 415.545L157.193 415.553Z" fill="#E95A0D"/>
<path d="M164.544 426.002C164.88 426.119 165.144 426.131 165.365 426.115L156.565 415.735C155.391 416.249 156.014 417.271 156.014 417.271C156.014 417.271 162.436 425.345 164.544 426.002Z" fill="#DE584B"/>
<path d="M156.891 414.496C156.279 408.829 141.59 398.037 137.808 395.401C133.931 392.692 132.617 394.068 131.196 394.71C130.159 395.177 126.273 397.529 124.307 398.73C128.224 401.4 132.284 404.24 137.405 407.157C144.162 411.008 154.858 416.772 156.879 414.492L156.891 414.496Z" fill="#E95A0D"/>
<path d="M142.461 402.458C142.78 401.744 142.457 400.906 141.741 400.586C141.024 400.267 140.185 400.587 139.866 401.301C139.547 402.015 139.869 402.853 140.586 403.173C141.303 403.492 142.142 403.172 142.461 402.458Z" fill="#F3F0D5"/>
<path d="M145.862 404.609C146.119 404.029 145.864 403.337 145.27 403.076C144.676 402.814 143.994 403.072 143.734 403.664C143.473 404.256 143.732 404.936 144.326 405.197C144.92 405.459 145.601 405.201 145.862 404.609Z" fill="#F3F0D5"/>
<path d="M148.551 406.796C148.75 406.343 148.549 405.804 148.095 405.605C147.64 405.405 147.1 405.605 146.901 406.058C146.702 406.511 146.904 407.05 147.358 407.249C147.812 407.449 148.353 407.249 148.551 406.796Z" fill="#F3F0D5"/>
<path d="M139.564 396.645C138.857 396.13 138.265 395.709 137.825 395.394C133.948 392.684 132.633 394.06 131.213 394.702C130.176 395.17 126.289 397.521 124.323 398.723C127.689 401.012 131.156 403.431 135.301 405.912C136.795 403.139 139.113 398.202 139.564 396.645Z" fill="#FBBE00"/>
<path d="M243.078 382.786L242.105 381.505L241.237 382.729L242.775 384.02L243.078 382.786Z" fill="#9B9A9A"/>
<path d="M191.938 434.376C192.298 434.772 192.796 435.039 193.338 435.013L223.627 433.665C224.953 433.605 226.026 432.792 226.439 431.531L242.391 383.085C242.42 382.995 242.441 382.904 242.453 382.812C242.496 382.492 242.905 382.476 243.078 382.786L243.085 382.798C243.333 383.235 243.424 383.755 243.267 384.235L227.315 432.681C226.902 433.942 225.829 434.755 224.503 434.815L194.214 436.163C193.632 436.191 193.091 435.89 192.728 435.443C192.45 435.102 192.658 435.532 191.938 434.376Z" fill="#9B9A9A"/>
<path d="M242.391 383.085L226.439 431.531C226.026 432.792 224.953 433.605 223.627 433.665L193.338 435.013C192.796 435.039 192.298 434.772 191.938 434.376C191.492 433.886 191.261 433.194 191.468 432.562L207.422 384.109C207.833 382.855 208.906 382.042 210.232 381.983L240.523 380.627C241.165 380.6 241.749 380.977 242.108 381.503C242.425 381.968 242.566 382.549 242.391 383.085Z" fill="#D9D9D9"/>
<path d="M207.031 433.266L208.639 433.19C208.962 433.175 209.31 432.912 209.413 432.605L209.979 430.907C210.138 430.43 209.857 430.059 209.355 430.083L207.749 430.158C207.424 430.173 207.075 430.437 206.972 430.745L206.407 432.441C206.248 432.918 206.529 433.289 207.031 433.266Z" fill="#9B9A9A"/>
<path d="M207.666 433.028L208.292 432.999C208.59 432.985 208.832 432.802 208.926 432.519L209.292 431.423C209.451 430.947 209.17 430.577 208.669 430.6L208.167 430.624C207.843 430.639 207.493 430.903 207.391 431.211L207.054 432.22C206.898 432.688 207.173 433.051 207.666 433.028Z" fill="#606060"/>
<path d="M241.194 384.013L227.116 426.754C226.726 427.945 225.712 428.714 224.459 428.77L195.837 430.044C195.326 430.069 194.855 429.816 194.514 429.442C194.093 428.979 193.875 428.325 194.071 427.728L208.15 384.981C208.539 383.796 209.553 383.028 210.806 382.971L239.429 381.691C240.035 381.665 240.588 382.021 240.927 382.518C241.227 382.957 241.36 383.506 241.194 384.013Z" fill="#3C3C3B"/>
<path d="M208.303 434.731L208.55 435.058L207.425 435.108L207.302 434.944L207.356 434.773L208.303 434.731Z" fill="#D9D9D9"/>
<path d="M208.427 434.894L208.551 435.058L207.425 435.108L207.302 434.944L208.427 434.894Z" fill="#FF5E5E"/>
<path d="M207.357 434.773L207.302 434.944L207.179 434.782L207.357 434.773Z" fill="#282828"/>
<path d="M221.105 434.431C221.173 434.53 221.324 434.606 221.441 434.601C221.559 434.596 221.6 434.511 221.532 434.412C221.465 434.313 221.314 434.237 221.196 434.242C221.079 434.247 221.038 434.332 221.105 434.431Z" fill="#606060"/>
<path d="M220.252 434.469C220.32 434.568 220.47 434.644 220.588 434.639C220.706 434.634 220.747 434.549 220.679 434.45C220.611 434.351 220.461 434.275 220.343 434.28C220.225 434.286 220.184 434.37 220.252 434.469Z" fill="#606060"/>
<path d="M219.398 434.507C219.466 434.607 219.616 434.683 219.734 434.677C219.852 434.672 219.893 434.587 219.825 434.489C219.758 434.389 219.607 434.313 219.489 434.319C219.371 434.324 219.33 434.408 219.398 434.507Z" fill="#606060"/>
<path d="M218.545 434.546C218.612 434.645 218.762 434.72 218.88 434.716C218.998 434.71 219.039 434.626 218.971 434.527C218.904 434.427 218.753 434.351 218.635 434.357C218.518 434.362 218.477 434.447 218.545 434.546Z" fill="#606060"/>
<path d="M217.691 434.584C217.758 434.683 217.909 434.759 218.027 434.754C218.145 434.749 218.185 434.664 218.118 434.565C218.05 434.466 217.9 434.39 217.782 434.395C217.664 434.4 217.623 434.485 217.691 434.584Z" fill="#606060"/>
<path d="M216.837 434.623C216.904 434.721 217.055 434.797 217.173 434.792C217.291 434.787 217.331 434.702 217.264 434.604C217.196 434.504 217.045 434.428 216.928 434.434C216.81 434.439 216.769 434.523 216.837 434.623Z" fill="#606060"/>
<path d="M215.983 434.66C216.051 434.759 216.201 434.835 216.319 434.83C216.437 434.825 216.478 434.74 216.41 434.641C216.343 434.542 216.192 434.466 216.074 434.471C215.956 434.477 215.916 434.561 215.983 434.66Z" fill="#606060"/>
<path d="M215.129 434.698C215.197 434.797 215.347 434.873 215.465 434.868C215.583 434.863 215.624 434.778 215.556 434.679C215.489 434.58 215.338 434.504 215.22 434.51C215.102 434.515 215.062 434.599 215.129 434.698Z" fill="#606060"/>
<path d="M201.137 435.324C201.205 435.424 201.355 435.5 201.473 435.494C201.591 435.489 201.632 435.404 201.564 435.305C201.496 435.207 201.346 435.13 201.228 435.136C201.11 435.141 201.069 435.225 201.137 435.324Z" fill="#606060"/>
<path d="M200.283 435.363C200.351 435.462 200.501 435.538 200.619 435.532C200.737 435.527 200.778 435.443 200.71 435.344C200.643 435.245 200.492 435.168 200.374 435.174C200.256 435.179 200.216 435.264 200.283 435.363Z" fill="#606060"/>
<path d="M199.43 435.401C199.498 435.5 199.648 435.576 199.766 435.571C199.884 435.565 199.925 435.481 199.857 435.382C199.789 435.283 199.639 435.207 199.521 435.212C199.403 435.217 199.362 435.302 199.43 435.401Z" fill="#606060"/>
<path d="M198.576 435.439C198.643 435.538 198.794 435.614 198.912 435.609C199.03 435.604 199.07 435.519 199.003 435.42C198.935 435.321 198.785 435.245 198.667 435.25C198.549 435.255 198.508 435.34 198.576 435.439Z" fill="#606060"/>
<path d="M197.722 435.477C197.79 435.577 197.94 435.652 198.058 435.647C198.176 435.642 198.217 435.557 198.149 435.458C198.081 435.36 197.931 435.283 197.813 435.288C197.695 435.294 197.654 435.378 197.722 435.477Z" fill="#606060"/>
<path d="M196.868 435.516C196.936 435.615 197.087 435.691 197.204 435.685C197.322 435.68 197.363 435.596 197.295 435.496C197.228 435.397 197.077 435.322 196.959 435.327C196.841 435.332 196.801 435.416 196.868 435.516Z" fill="#606060"/>
<path d="M196.014 435.554C196.082 435.653 196.233 435.729 196.351 435.724C196.468 435.718 196.509 435.634 196.441 435.535C196.374 435.436 196.223 435.36 196.105 435.365C195.988 435.37 195.947 435.455 196.014 435.554Z" fill="#606060"/>
<path d="M195.161 435.592C195.228 435.691 195.379 435.768 195.496 435.762C195.615 435.757 195.655 435.672 195.588 435.573C195.52 435.474 195.37 435.398 195.252 435.404C195.134 435.409 195.093 435.493 195.161 435.592Z" fill="#606060"/>
<path d="M107.719 410.04V452.012L162.645 476.824V424.558L107.719 410.04Z" fill="#5BBDEF"/>
<path d="M162.645 424.558L239.452 411.103V454.39L162.645 476.824V424.558Z" fill="#4EA4C6"/>
<path d="M111.372 424.191L110.649 422.674L108.962 422.699L110.217 421.194L109.976 419.424L111.473 420.018L113.008 418.88L112.678 420.764L113.871 421.839L112.171 422.396L111.372 424.191Z" fill="white"/>
<path d="M115.494 449.129L114.01 448.547L112.691 449.445L112.78 447.864L111.524 446.891L113.059 446.486L113.604 444.981L114.467 446.322L116.052 446.372L115.05 447.599L115.494 449.129Z" fill="white"/>
<path d="M124.932 435.509L122.598 434.194L120.187 435.357L120.733 432.74L118.881 430.805L121.545 430.514L122.801 428.162L123.904 430.59L126.543 431.07L124.564 432.866L124.932 435.509Z" fill="white"/>
<path d="M135.182 452.758L133.799 452.05L132.442 452.796L132.683 451.266L131.554 450.204L133.089 449.964L133.748 448.56L134.459 449.938L135.993 450.141L134.903 451.228L135.182 452.758Z" fill="white"/>
<path d="M147.626 444.981L146.7 444.298L145.609 444.665L145.977 443.565L145.292 442.642L146.446 442.654L147.118 441.719L147.461 442.819L148.564 443.173L147.613 443.83L147.626 444.981Z" fill="white"/>
<path d="M154.653 465.683L152.293 464.228L149.756 465.341L150.416 462.66L148.577 460.599L151.342 460.397L152.737 458.006L153.777 460.561L156.492 461.155L154.374 462.938L154.653 465.683Z" fill="white"/>
<path d="M173.376 461.079L170.776 460.687L168.987 462.597L168.556 460.017L166.171 458.904L168.505 457.703L168.835 455.098L170.7 456.944L173.275 456.451L172.108 458.79L173.376 461.079Z" fill="#AEE4FF"/>
<path d="M181.038 443.35L178.729 442.528L176.75 443.944L176.827 441.503L174.848 440.062L177.207 439.379L177.981 437.065L179.351 439.088L181.799 439.101L180.302 441.023L181.038 443.35Z" fill="#AEE4FF"/>
<path d="M231.448 428.162L230.522 427.315L229.292 427.593L229.812 426.455L229.165 425.38L230.421 425.519L231.245 424.571L231.486 425.797L232.653 426.29L231.563 426.91L231.448 428.162Z" fill="#AEE4FF"/>
<path d="M213.067 424.849L212.395 423.938L211.266 423.963L211.926 423.053L211.545 421.978L212.623 422.332L213.524 421.637L213.537 422.775L214.475 423.407L213.385 423.761L213.067 424.849Z" fill="#AEE4FF"/>
<path d="M198.581 448.56L197.326 446.309L194.738 446.056L196.501 444.172L195.943 441.643L198.29 442.73L200.522 441.415L200.205 443.982L202.158 445.689L199.609 446.182L198.581 448.56Z" fill="#AEE4FF"/>
<path d="M205.241 437.065L203.757 436.167L202.171 436.875L202.564 435.193L201.397 433.916L203.135 433.764L203.985 432.259L204.67 433.853L206.37 434.207L205.051 435.345L205.241 437.065Z" fill="#AEE4FF"/>
<path d="M224.763 451.582L223.672 450.533L222.188 450.849L222.835 449.496L222.086 448.181L223.583 448.383L224.598 447.257L224.877 448.75L226.247 449.357L224.928 450.078L224.763 451.582Z" fill="#AEE4FF"/>
<path d="M233.998 438.064L233.351 437.634L232.64 437.925L232.843 437.179L232.349 436.597L233.122 436.559L233.528 435.901L233.795 436.622L234.543 436.812L233.947 437.292L233.998 438.064Z" fill="#AEE4FF"/>
<path d="M192.835 429.237L192.277 428.718L191.529 428.87L191.859 428.187L191.478 427.517L192.239 427.618L192.759 427.062L192.886 427.808L193.584 428.124L192.911 428.478L192.835 429.237Z" fill="#AEE4FF"/>
<path d="M190.933 465.126L188.738 462.572L185.389 462.926L187.152 460.055L185.782 456.995L189.055 457.779L191.554 455.528L191.82 458.867L194.738 460.548L191.63 461.838L190.933 465.126Z" fill="#AEE4FF"/>
<path d="M199.317 466.113L210.315 462.9C210.315 462.9 225.321 455.933 239.452 461.838C253.596 467.757 264.036 461.623 264.036 461.623L274.108 463.71C274.108 463.71 262.704 475.003 239.44 467.946C216.175 460.89 199.304 466.1 199.304 466.1L199.317 466.113Z" fill="#F4BE38"/>
<path d="M221.223 436.976L218.433 435.168L215.35 436.433L216.226 433.221L214.069 430.691L217.393 430.514L219.143 427.694L220.335 430.792L223.57 431.577L220.97 433.663L221.223 436.976Z" fill="#AEE4FF"/>
<path d="M263.221 451.919C262.079 451.704 260.874 451.906 259.796 452.323C258.705 452.741 257.716 453.386 256.79 454.081C253.796 456.332 251.31 459.266 249.597 462.604C249.407 462.971 249.217 463.376 249.268 463.793C249.356 464.565 250.206 465.007 250.98 465.172C252.452 465.488 253.999 465.273 255.42 464.78C256.841 464.286 258.147 463.515 259.403 462.693C260.811 461.77 262.194 460.745 263.323 459.494C263.868 458.887 264.35 458.229 264.616 457.47C264.807 456.926 264.883 456.345 264.921 455.776C265.048 454.157 265.251 452.285 263.221 451.919Z" fill="#F4BE38"/>
<path d="M261.914 457.508C263.259 456.18 264.261 454.41 264.439 452.538C266.139 453.929 266.976 456.256 267.166 458.393C267.369 460.518 267.001 462.655 266.506 464.742C266.392 465.222 266.24 465.741 265.847 466.019C265.682 466.133 265.492 466.196 265.301 466.259C261.052 467.625 256.346 467.562 252.147 466.069C251.475 465.829 250.815 465.564 250.194 465.21C249.813 464.995 249.445 464.742 249.28 464.35C248.811 463.237 250.257 463.237 250.929 463.11C251.919 462.908 252.895 462.655 253.847 462.339C255.762 461.707 257.602 460.821 259.276 459.696C260.215 459.051 261.115 458.33 261.927 457.533L261.914 457.508Z" fill="#FFDE39"/>
<path d="M244.346 446.81C245.437 447.202 246.375 447.96 247.111 448.871C247.834 449.781 248.367 450.818 248.823 451.893C250.282 455.346 250.942 459.127 250.752 462.857C250.726 463.275 250.688 463.717 250.434 464.046C249.965 464.666 249.001 464.628 248.265 464.388C246.832 463.92 245.601 462.971 244.625 461.833C243.648 460.695 242.9 459.38 242.227 458.039C241.466 456.534 240.794 454.966 240.451 453.31C240.286 452.526 240.198 451.704 240.35 450.907C240.464 450.338 240.68 449.807 240.933 449.288C241.644 447.821 242.405 446.101 244.346 446.797V446.81Z" fill="#F4BE38"/>
<path d="M242.671 452.298C242.176 450.477 242.189 448.441 242.988 446.734C240.819 447.088 238.929 448.694 237.686 450.426C236.443 452.171 235.682 454.195 235.06 456.243C234.921 456.711 234.781 457.242 234.997 457.685C235.086 457.862 235.212 458.014 235.339 458.165C238.32 461.479 242.43 463.768 246.819 464.577C247.517 464.703 248.227 464.805 248.938 464.817C249.369 464.817 249.826 464.792 250.168 464.526C251.132 463.793 249.876 463.085 249.369 462.629C248.62 461.959 247.91 461.251 247.238 460.505C245.906 459 244.751 457.318 243.876 455.497C243.382 454.473 242.976 453.398 242.671 452.298Z" fill="#FFDE39"/>
<path d="M257.411 462.478C257.83 462.351 258.261 462.212 258.68 462.086C258.629 462.389 258.325 462.579 258.046 462.718C256.549 463.464 254.938 463.983 253.289 464.261C253.466 464.565 253.872 464.602 254.215 464.615C255.661 464.653 257.094 464.704 258.54 464.742C257.652 464.893 256.777 465.045 255.889 465.197C256.156 465.361 256.473 465.399 256.777 465.424C257.627 465.513 258.49 465.602 259.339 465.69C258.122 466.145 256.79 466.234 255.509 466.12C254.215 466.006 252.946 465.703 251.69 465.399C251.31 465.311 250.904 465.197 250.65 464.893C250.536 464.754 250.46 464.577 250.485 464.413C250.536 464.122 250.841 463.958 251.107 463.844C251.5 463.667 251.893 463.414 252.325 463.363C252.896 463.3 253.492 463.388 254.075 463.313C255.217 463.161 256.333 462.832 257.424 462.491L257.411 462.478Z" fill="#F4BE38"/>
<path d="M245.284 460.606C244.346 460.025 243.521 459.291 242.697 458.57C242.291 458.204 241.872 457.85 241.466 457.483C241.289 457.875 241.606 458.292 241.923 458.596C242.849 459.493 243.851 460.29 244.942 460.986C244.181 460.809 243.445 460.543 242.747 460.189C242.849 460.606 243.293 460.834 243.686 461.011C244.752 461.504 245.779 462.111 246.73 462.819C246.312 463.262 245.589 463.136 245.018 462.958C243.737 462.566 242.481 462.099 241.276 461.529C241.124 461.833 241.504 462.111 241.821 462.238C243.902 463.034 245.995 463.844 248.189 464.286C248.646 464.375 249.217 464.413 249.483 464.021C249.724 463.679 249.546 463.199 249.318 462.857C248.9 462.225 248.443 461.77 247.707 461.605C246.845 461.416 246.058 461.074 245.31 460.606H245.284Z" fill="#F4BE38"/>
<path d="M247.961 461.529C247.326 462.389 247.377 463.692 248.087 464.489C248.354 464.779 248.684 464.994 249.026 465.171C250.041 465.665 251.386 465.728 252.21 464.969C252.844 464.375 253.035 463.376 252.73 462.566C252.045 460.695 249.28 459.759 247.948 461.542L247.961 461.529Z" fill="#FFDE39"/>
<path opacity="0.33" d="M238.726 450.768C238.079 451.855 237.534 453.019 237.115 454.207C236.989 454.561 236.874 454.928 236.951 455.295C236.976 455.409 237.027 455.523 237.128 455.573C237.318 455.662 237.521 455.472 237.648 455.282C238.079 454.612 238.359 453.841 238.752 453.145C239.145 452.437 239.678 451.767 240.426 451.489C240.718 451.375 241.035 451.324 241.289 451.147C241.948 450.679 242.354 448.795 241.251 448.643C240.147 448.491 239.196 449.984 238.726 450.768Z" fill="white"/>
</g>
<defs>
<clipPath id="clip0_660_24253">
<rect width="180" height="117" fill="white" transform="translate(95 360)"/>
</clipPath>
</defs>
</svg>