<?xml version="1.0" encoding="utf-8"?>
<!-- Generator: Adobe Illustrator 26.1.0, SVG Export Plug-In . SVG Version: 6.00 Build 0)  -->
<svg version="1.1" id="Layer_1" xmlns="http://www.w3.org/2000/svg" xmlns:xlink="http://www.w3.org/1999/xlink" x="0px" y="0px"
	 viewBox="0 0 219 171" style="enable-background:new 0 0 219 171;" xml:space="preserve">
<style type="text/css">
	.st0{fill:#FFFFFF;}
	.st1{fill:#FFD848;}
	.st2{fill:#AFCCEC;}
	.st3{fill:#FEE278;}
	.st4{fill:#92B5E0;}
	.st5{fill:#DAA7CD;}
	.st6{fill:#F2D0E5;}
	.st7{fill:#DBEBED;}
	.st8{fill:#F0F3F6;}
	.st9{fill:#EC880A;}
	.st10{fill:#FFE27A;}
	.st11{fill:#93B6E0;}
	.st12{fill:#EFF3F6;}
	.st13{fill:#FECA06;}
	.st14{fill:#5F6364;}
</style>
<g>
	<g>
		<path class="st0" d="M113.53,170.96c-32.31,0-64.63-0.01-96.94,0.04c-1.33,0-1.49-0.36-1.49-1.55c0.03-54.18,0.03-108.36,0-162.54
			c0-1.22,0.2-1.54,1.5-1.54c64.57,0.04,129.14,0.04,193.71,0c1.37,0,1.58,0.37,1.58,1.63c-0.03,54.12-0.03,108.24,0,162.36
			c0,1.27-0.24,1.62-1.59,1.62C178.04,170.95,145.78,170.96,113.53,170.96z M80.83,20.79c-4.05,0.04-7.64,2.54-9.28,6.2
			c-0.95,2.12-0.9,4.29-0.86,6.49c0.06,3.79-1.13,7-3.96,9.64c-2.35,2.2-4.11,4.86-5.23,7.91c-0.68,1.86-0.9,3.81-1.29,5.73
			c-0.49,0.18-0.97,0.4-1.47,0.55c-6.29,1.81-9.22,9.59-4.75,15.32c0.79,1.01,2.1,1.47,2.74,2.63c-1.04,1.4-2.39,2.52-3.44,3.93
			c-4.26,5.67-6.75,11.97-7.04,19.09c0,2.83,0.01,5.66,0.01,8.49c-0.01,2.76-0.01,5.52-0.02,8.28c0,2.82,0,5.64,0.01,8.47
			c0,2.76,0.01,5.52,0.01,8.27c0,2.83-0.01,5.66-0.01,8.48c-0.16,2.34,0.17,4.58,1.01,6.79c1.93,5.08,7.67,9.51,12.83,9.57
			c6.91,0.07,13.82,0.01,20.73,0c7.1,0.01,14.19,0.03,21.29,0.03c0.94,0,1.83-0.24,2.7-0.6c9.8,1.26,19.64,0.4,29.47,0.59
			c2.73,0.02,5.46,0.06,8.19,0.04c8.28-0.05,15.3-3.23,21.07-9.03c9.19-9.23,10.83-22.81,4.34-34.56c-0.8-1.45-1.45-2.94-1.66-4.56
			c-0.2-1.59-0.42-3.25,0.82-4.62c11.59,0.3,21.38-8.99,21.37-20.27c0-2.92-1.59-4.53-4.52-4.54c-4.66-0.01-9.31,0-13.97,0
			c-0.47-0.73-0.96-1.44-1.39-2.19c-4.62-8.06-14.64-13.23-24.09-11.43c-3.74,0.71-7.29,1.87-10.18,4.51
			c-0.39,0.25-0.82,0.46-1.17,0.75c-8.9,7.61-11.18,20.19-4.81,30.41c0.34,0.54,0.73,1.05,0.83,1.71c-1.11,1.43-2.44,2.63-3.89,3.7
			c-2.84,2.08-5.86,3.72-9.46,4.01c-0.01-3.95,0.07-7.89-0.06-11.84c-0.11-3.36-0.73-6.66-1.82-9.86c-1.8-5.26-4.85-9.72-8.71-13.66
			c0.62-0.61,1.24-1.21,1.86-1.82c3.82-3.76,4.14-9,0.81-13.15c-1.57-1.96-3.83-2.72-6.07-3.52c-0.62-5.56-2.94-10.3-7.01-14.14
			c-1.44-1.36-2.32-2.98-2.99-4.81c-0.78-2.16-0.42-4.37-0.44-6.55C91.25,25.39,86.65,20.76,80.83,20.79z"/>
		<path class="st1" d="M167.04,103.93c-1.24,1.36-1.02,3.02-0.82,4.62c0.2,1.62,0.86,3.11,1.66,4.56
			c6.49,11.76,4.85,25.33-4.34,34.56c-5.77,5.79-12.78,8.97-21.07,9.03c-2.73,0.02-5.46-0.03-8.19-0.04
			c0-5.47-0.02-10.94,0.02-16.41c0.01-1.18-0.39-1.67-1.54-1.3c-3.93,1.24-7.97,1.47-12.05,1.29c-4.63-0.2-8.87-1.64-12.62-4.36
			c-4.27-3.1-7.33-7.22-9.73-11.87c-2.33-4.53-2.92-9.09-0.39-13.74c0.38-0.7,0.67-1.53,1.72-1.46c1.15,0.38,2.29,0.8,3.45,1.14
			c4.15,1.19,8.33,1.79,12.61,0.67c3.6-0.29,6.62-1.93,9.46-4.01c1.45-1.07,2.79-2.27,3.89-3.7c1.7-0.36,3.38-1.03,5.16-0.38
			c0,10.46-0.01,20.92,0.03,31.38c0.01,1.47-0.71,3.67,0.37,4.23c1.16,0.6,2.82-0.89,4.12-1.73c4.86-3.13,7.61-7.51,7.72-13.39
			c0.1-5.54-1.38-10.7-4.18-15.4c-1.75-2.94-4.5-4.79-8.07-5.09c0-10.83,0-21.66-0.01-32.5c2.89-2.64,6.43-3.79,10.18-4.51
			c9.45-1.8,19.47,3.37,24.09,11.43c0.43,0.75,0.93,1.46,1.39,2.19c0.08,0.28,0.14,0.56,0.24,0.83c2.75,7.67,2.23,15-2.3,21.91
			C167.45,102.48,167.03,103.13,167.04,103.93z M148.27,85.88c-0.04,2.34,1.81,4.28,4.1,4.31c2.23,0.02,4.22-1.97,4.22-4.22
			c0-2.18-1.88-4.15-4.05-4.23C150.3,81.65,148.3,83.59,148.27,85.88z"/>
		<path class="st2" d="M80.82,156.63c-6.91,0.01-13.82,0.07-20.73,0c-5.16-0.05-10.91-4.49-12.83-9.57
			c-0.84-2.22-1.17-4.46-1.01-6.79c4.88-0.02,9.76-0.02,14.65-0.06c2.79-0.02,4.97-1.86,4.82-4.2c-0.12-1.91-1.46-4.26-4.81-4.19
			c-4.88,0.1-9.76-0.01-14.65-0.03c0-2.76-0.01-5.52-0.01-8.28c5-0.02,9.99-0.01,14.99-0.05c3.42-0.03,5.45-3.26,3.89-6.15
			c-0.9-1.67-2.46-2.2-4.24-2.21c-4.88-0.03-9.76-0.03-14.64-0.05c0.01-2.76,0.01-5.52,0.02-8.28c5.05-0.02,10.1-0.06,15.15-0.03
			c1.96,0.01,3.14-1,3.91-2.64c0.8-1.7,0.27-3.08-1.03-4.36c-1.03-1.02-2.19-1.41-3.59-1.41c-4.82,0-9.64-0.03-14.45-0.05
			c0.29-7.12,2.78-13.42,7.04-19.09c1.05-1.4,2.4-2.52,3.44-3.93c1.44,0.18,2.71,1.05,4.19,1.05c6.64-0.02,13.27-0.04,19.91-0.05
			c0,0,0,0.09,0,0.09c0,7.26-0.01,14.52-0.01,21.78c0,0.56-0.18,1.18,0.37,1.62c-0.9,1.23-1.14,2.6-1.12,4.11
			c0.06,4.65,0.03,9.3,0.02,13.95c-0.01,5.28-0.23,10.57,1.11,15.76c-0.61,0.49-0.38,1.18-0.38,1.79
			C80.82,142.44,80.82,149.54,80.82,156.63z"/>
		<path class="st3" d="M81.21,133.56c-1.34-5.18-1.13-10.48-1.11-15.76c0.01-4.65,0.04-9.3-0.02-13.95
			c-0.02-1.51,0.23-2.88,1.12-4.11c2.7-1.88,4.29-1.81,6.56,0.55c3.45,3.59,7.47,6.34,11.94,8.49c-1.05-0.07-1.34,0.77-1.72,1.46
			c-2.53,4.65-1.95,9.21,0.39,13.74c2.4,4.66,5.46,8.78,9.73,11.87c3.75,2.72,8,4.16,12.62,4.36c4.07,0.18,8.12-0.04,12.05-1.29
			c1.15-0.36,1.55,0.13,1.54,1.3c-0.04,5.47-0.02,10.94-0.02,16.41c-9.82-0.19-19.67,0.67-29.47-0.59
			c-5.76-1.57-10.89-4.24-15.18-8.47C85.61,143.62,83,138.84,81.21,133.56z"/>
		<path class="st4" d="M99.69,108.77c-4.47-2.15-8.49-4.9-11.94-8.49c-2.27-2.36-3.85-2.43-6.56-0.55
			c-0.55-0.44-0.37-1.06-0.37-1.62c-0.01-7.26,0-14.52,0.01-21.78c5.1-0.01,10.19-0.04,15.29-0.03c3.06,0,6.13,0.2,9.03-1.07
			c3.86,3.94,6.92,8.39,8.71,13.66c1.09,3.2,1.71,6.5,1.82,9.86c0.13,3.94,0.05,7.89,0.06,11.84c-4.28,1.12-8.46,0.52-12.61-0.67
			C101.98,109.58,100.84,109.15,99.69,108.77z"/>
		<path class="st5" d="M105.16,75.24c-2.9,1.27-5.98,1.07-9.03,1.07c-5.1-0.01-10.19,0.02-15.29,0.03c0,0,0-0.09,0-0.09
			c0-6.48,0-12.97,0-19.45c0.24-0.04,0.47-0.07,0.71-0.11c6.27,0,12.54,0,18.81,0c0.47,0.02,0.93,0.03,1.4,0.05
			c2.24,0.8,4.5,1.56,6.07,3.52c3.33,4.15,3.01,9.39-0.81,13.15C106.39,74.02,105.78,74.63,105.16,75.24z"/>
		<path class="st6" d="M80.83,56.8c0,6.48,0,12.97,0,19.45c-6.64,0.02-13.27,0.04-19.91,0.05c-1.49,0-2.75-0.87-4.19-1.05
			c-0.64-1.16-1.96-1.62-2.74-2.63c-4.47-5.73-1.55-13.51,4.75-15.32c0.5-0.14,0.98-0.36,1.47-0.55c6.88-0.02,13.75-0.04,20.63-0.05
			L80.83,56.8z"/>
		<path class="st7" d="M101.76,56.74c-0.47-0.02-0.93-0.03-1.4-0.05c-0.32-0.34-0.74-0.28-1.14-0.29c-5.51,0-11.02,0-16.53,0
			c-0.4,0-0.82-0.06-1.14,0.28c-0.24,0.03-0.47,0.07-0.71,0.11c0,0,0-0.1,0-0.1c0-11.97,0-23.94-0.01-35.91
			c5.82-0.03,10.42,4.59,10.49,10.45c0.03,2.18-0.34,4.39,0.44,6.55c0.66,1.83,1.54,3.45,2.99,4.81
			C98.82,46.44,101.14,51.18,101.76,56.74z"/>
		<path class="st8" d="M80.83,20.79c0,11.97,0,23.94,0.01,35.91c-6.88,0.02-13.75,0.03-20.63,0.05c0.39-1.92,0.61-3.87,1.29-5.73
			c1.12-3.05,2.88-5.71,5.23-7.91c2.83-2.64,4.03-5.85,3.96-9.64c-0.04-2.2-0.09-4.37,0.86-6.49
			C73.18,23.33,76.77,20.84,80.83,20.79z"/>
		<path class="st9" d="M167.04,103.93c-0.02-0.8,0.4-1.45,0.81-2.08c4.53-6.91,5.05-14.23,2.3-21.91c-0.1-0.27-0.16-0.55-0.24-0.83
			c4.66,0,9.31-0.02,13.97,0c2.93,0.01,4.51,1.62,4.52,4.54C188.42,94.94,178.63,104.23,167.04,103.93z"/>
		<path class="st10" d="M134.26,70c0,10.83,0,21.66,0.01,32.5l0,0c-1.78-0.66-3.46,0.02-5.16,0.38c-0.09-0.66-0.49-1.17-0.83-1.71
			c-6.37-10.22-4.09-22.8,4.81-30.41C133.44,70.46,133.87,70.25,134.26,70z"/>
		<path class="st11" d="M81.21,133.56c1.79,5.29,4.4,10.07,8.42,14.03c4.29,4.23,9.42,6.9,15.18,8.47c-0.87,0.36-1.76,0.6-2.7,0.6
			c-7.1,0-14.19-0.02-21.29-0.03c0-7.09-0.01-14.19,0.01-21.28C80.83,134.74,80.6,134.05,81.21,133.56z"/>
		<path class="st12" d="M46.26,131.79c4.88,0.02,9.77,0.13,14.65,0.03c3.35-0.07,4.69,2.29,4.81,4.19c0.14,2.34-2.03,4.18-4.82,4.2
			c-4.88,0.04-9.76,0.04-14.65,0.06C46.26,137.44,46.26,134.61,46.26,131.79z"/>
		<path class="st8" d="M46.25,115.04c4.88,0.01,9.76,0.02,14.64,0.05c1.78,0.01,3.34,0.55,4.24,2.21c1.56,2.88-0.47,6.12-3.89,6.15
			c-5,0.05-9.99,0.04-14.99,0.05C46.25,120.69,46.25,117.87,46.25,115.04z"/>
		<path class="st12" d="M46.25,98.27c4.82,0.02,9.64,0.06,14.45,0.05c1.4,0,2.56,0.39,3.59,1.41c1.3,1.28,1.83,2.66,1.03,4.36
			c-0.77,1.64-1.95,2.65-3.91,2.64c-5.05-0.03-10.1,0.01-15.15,0.03C46.26,103.93,46.26,101.1,46.25,98.27z"/>
		<path class="st13" d="M134.27,102.5c3.57,0.3,6.32,2.15,8.07,5.09c2.8,4.7,4.28,9.86,4.18,15.4c-0.11,5.89-2.87,10.26-7.72,13.39
			c-1.3,0.84-2.96,2.33-4.12,1.73c-1.08-0.56-0.37-2.76-0.37-4.23C134.26,123.42,134.27,112.96,134.27,102.5
			C134.27,102.5,134.27,102.5,134.27,102.5z"/>
		<path class="st14" d="M148.27,85.88c0.04-2.29,2.03-4.22,4.27-4.14c2.17,0.08,4.05,2.04,4.05,4.23c0,2.26-1.99,4.25-4.22,4.22
			C150.08,90.16,148.23,88.21,148.27,85.88z"/>
		<path class="st8" d="M81.54,56.69c0.32-0.34,0.74-0.28,1.14-0.28c5.51,0,11.02,0,16.53,0c0.4,0,0.82-0.06,1.14,0.29
			C94.09,56.69,87.81,56.69,81.54,56.69z"/>
	</g>
</g>
</svg>
