<?xml version="1.0" encoding="utf-8"?>
<!-- Generator: Adobe Illustrator 26.1.0, SVG Export Plug-In . SVG Version: 6.00 Build 0)  -->
<svg version="1.1" id="Layer_1" xmlns="http://www.w3.org/2000/svg" xmlns:xlink="http://www.w3.org/1999/xlink" x="0px" y="0px"
	 viewBox="0 0 219 171" style="enable-background:new 0 0 219 171;" xml:space="preserve">
<style type="text/css">
	.st0{fill:#FEFEFF;}
	.st1{fill:#2C396D;}
	.st2{fill:#DA4D87;}
	.st3{fill:#EC7CA0;}
	.st4{fill:#D36B5D;}
	.st5{fill:#ADCB58;}
	.st6{fill:#F9DDBD;}
	.st7{fill:#6CC3CB;}
	.st8{fill:#8FA9D8;}
	.st9{fill:#90ABD9;}
	.st10{fill:#E5789D;}
	.st11{fill:#FEF8FB;}
	.st12{fill:#FEF9FB;}
	.st13{fill:#FEFAFB;}
	.st14{fill:#FFFAFC;}
</style>
<g>
	<g>
		<path class="st0" d="M102.39,151.9c-27.53,0-55.06-0.04-82.6,0.07c-2.33,0.01-2.8-0.47-2.79-2.79c0.09-42.79,0.09-85.59,0-128.38
			c0-2.32,0.47-2.79,2.79-2.79c55.32,0.08,110.65,0.08,165.97,0c2.32,0,2.8,0.47,2.79,2.79c-0.09,42.79-0.09,85.59,0,128.38
			c0,2.32-0.47,2.8-2.79,2.79C157.97,151.87,130.18,151.9,102.39,151.9z M136.43,124.94c1.31-0.08,2.72-0.17,4.13-0.25
			c0.89-0.05,1.5-0.6,1.69-1.34c0.26-1.03-0.48-1.81-1.34-2.09c-0.95-0.31-2.02-0.34-3.04-0.34c-8.83-0.02-17.66-0.01-26.48-0.01
			c-12.72,0-25.45,0.02-38.17-0.02c-3.62-0.01-5.51-1.83-5.53-5.02c-0.01-3.16,1.93-5.01,5.46-5.18c0.91-0.04,1.82-0.01,2.73-0.01
			c20.38,0,40.77-0.1,61.15,0.09c3.84,0.04,5.43-1.11,6.08-4.9c1.37-7.99,3.2-15.9,4.84-23.84c1.54-7.46,3.45-14.86,3.26-22.57
			c-0.04-1.8,0.61-4.04-0.74-5.24c-4.68-4.14-8.81-9.07-14.94-11.32c-0.59-0.22-1.31-0.38-1.91-0.26c-2.4,0.48-2.94-0.67-2.72-2.76
			c0.12-1.15-0.09-2.34,0.04-3.5c0.3-2.72-0.84-3.62-3.55-3.58c-8.7,0.13-17.4,0.11-26.09,0.01c-2.47-0.03-3.96,0.81-3.36,3.3
			c1.68,6.98-3.05,12.11-4.95,18.05c-0.33,1.02-0.88,1.73-1.87,0.7c-1.28-1.34-2.59-3.25-1.72-4.82c1.4-2.52,0.89-5.02,0.9-7.52
			c0.04-4.83-2.05-6.55-7.47-6.55c-5.56,0-7.46,1.53-7.39,6.49c0.08,5.99,1.64,12.28-4.44,16.63c-0.45,0.32-0.69,1.12-0.78,1.73
			c-0.37,2.45-2.25,1.58-3.65,1.71c-1.66,0.15-1.73-1.06-1.96-2.26c-0.73-3.8-1.62-7.56-2.33-11.36c-0.27-1.44-0.84-2.6-2.35-2.64
			c-4.28-0.1-8.57-0.08-12.85,0c-1.12,0.02-1.92,0.66-1.89,1.99c0.03,1.39,0.89,1.76,2.04,1.77c2.86,0.03,5.72,0.15,8.57-0.01
			c2.29-0.13,3.03,0.73,3.48,2.98c3.41,16.93,6.99,33.82,10.55,50.71c0.43,2.02,0.48,3.46-1.83,4.66c-3.44,1.79-4.92,6.01-4.03,9.67
			c0.88,3.6,4.26,6.42,8.15,6.69c1.6,0.11,3.22,0.02,5.11,0.02c-1.71,4.89-1.9,9.07,2.01,12.22c3.08,2.48,6.71,2.91,10.16,0.92
			c5.25-3.03,5.4-7.83,3.47-13.1c8.33,0,16.25,0.05,24.16-0.03c2.39-0.03,3.55,0.02,2.45,3.08c-1.31,3.62,0.48,7.73,3.79,9.79
			c3.08,1.93,6.42,1.95,9.57,0.12c3.34-1.94,4.88-5.78,4.17-9.67C136.81,127.08,135.91,126.25,136.43,124.94z"/>
		<path class="st1" d="M136.43,124.94c-0.52,1.31,0.38,2.15,0.56,3.14c0.71,3.89-0.83,7.74-4.17,9.67c-3.15,1.83-6.49,1.8-9.57-0.12
			c-3.31-2.07-5.09-6.17-3.79-9.79c1.1-3.06-0.06-3.11-2.45-3.08c-7.92,0.09-15.83,0.03-24.16,0.03c1.93,5.27,1.78,10.07-3.47,13.1
			c-3.45,1.99-7.09,1.56-10.16-0.92c-3.91-3.15-3.72-7.33-2.01-12.22c-1.89,0-3.51,0.09-5.11-0.02c-3.89-0.26-7.27-3.08-8.15-6.69
			c-0.89-3.66,0.59-7.88,4.03-9.67c2.32-1.2,2.26-2.64,1.83-4.66c-3.56-16.9-7.14-33.79-10.55-50.71c-0.45-2.25-1.2-3.11-3.48-2.98
			c-2.85,0.16-5.71,0.04-8.57,0.01c-1.16-0.01-2.01-0.38-2.04-1.77c-0.03-1.33,0.78-1.97,1.89-1.99c4.28-0.08,8.57-0.1,12.85,0
			c1.51,0.04,2.08,1.2,2.35,2.64c0.72,3.8,1.6,7.56,2.33,11.36c0.23,1.21,0.3,2.42,1.96,2.26c1.4-0.13,3.28,0.74,3.65-1.71
			c0.09-0.61,0.33-1.41,0.78-1.73c6.08-4.35,4.52-10.64,4.44-16.63c-0.07-4.96,1.83-6.5,7.39-6.49c5.43,0,7.51,1.72,7.47,6.55
			c-0.02,2.5,0.49,5-0.9,7.52c-0.87,1.57,0.44,3.48,1.72,4.82c0.99,1.04,1.55,0.32,1.87-0.7c1.9-5.94,6.62-11.07,4.95-18.05
			c-0.6-2.49,0.89-3.33,3.36-3.3c8.7,0.1,17.4,0.12,26.09-0.01c2.71-0.04,3.85,0.86,3.55,3.58c-0.13,1.15,0.08,2.34-0.04,3.5
			c-0.21,2.09,0.33,3.24,2.72,2.76c0.6-0.12,1.32,0.04,1.91,0.26c6.12,2.25,10.25,7.19,14.94,11.32c1.36,1.2,0.7,3.43,0.74,5.24
			c0.19,7.71-1.72,15.11-3.26,22.57c-1.64,7.94-3.47,15.85-4.84,23.84c-0.65,3.79-2.24,4.94-6.08,4.9
			c-20.38-0.19-40.76-0.09-61.15-0.09c-0.91,0-1.82-0.04-2.73,0.01c-3.53,0.17-5.48,2.02-5.46,5.18c0.01,3.2,1.9,5.01,5.53,5.02
			c12.72,0.04,25.45,0.02,38.17,0.02c8.83,0,17.66-0.01,26.48,0.01c1.02,0,2.09,0.03,3.04,0.34c0.86,0.28,1.6,1.05,1.34,2.09
			c-0.19,0.74-0.79,1.3-1.69,1.34C139.15,124.76,137.74,124.86,136.43,124.94z M118.35,106.54c5.96,0.06,11.93,0.03,17.89,0.22
			c1.84,0.06,2.56-0.67,2.89-2.28c2.41-11.61,4.82-23.22,7.28-34.82c0.51-2.42-0.33-3.19-2.79-3.08c-4.14,0.18-8.3-0.03-12.45,0.06
			c-8.41,0.19-16.84-0.51-25.25,0.37c-12.45-0.06-24.9-0.1-37.34-0.18c-1.59-0.01-2.26,0.21-1.85,2.17
			c2.52,11.86,4.9,23.74,7.27,35.63c0.37,1.88,1.55,2.07,3.11,2.07C90.86,106.61,104.6,106.58,118.35,106.54z M114.36,36.76
			c-3.11,0-6.21-0.05-9.32,0.03c-1.25,0.03-3.37-0.64-2.94,1.74c0.36,2.03-1.87,4.96,2.01,5.99c5.55,1.47,7.88,5.66,6.43,11.2
			c-0.42,1.61-1.07,3.17-1.53,4.77c-0.16,0.54-0.73,1.54-0.06,1.67c1.63,0.3,3.33,0.25,5.01,0.21c1.62-0.04,1.22-1.38,1.26-2.32
			c0.09-2.5,1.11-5,3.08-5.96c3.78-1.85,5.09-5.45,7.43-8.34c2.1-2.6,1.47-5.58,0.88-8.12c-0.44-1.89-3.17-0.69-4.86-0.82
			C119.29,36.62,116.82,36.76,114.36,36.76z M132.29,62.43c3.36,0,6.73-0.09,10.09,0.03c2.73,0.09,4.56-0.83,4.93-3.7
			c0.38-2.92-1.01-4.96-3.82-5.29c-2.32-0.27-3.24-1.39-4.16-3.29c-1.7-3.49-6.54-5.12-9.09-2.47c-3.45,3.58-5.6,8.23-10.12,11.1
			c-1.69,1.07-1.46,3.84,2.08,3.66C125.55,62.3,128.92,62.43,132.29,62.43z M99.74,62.43c1.3-0.66,3.73,1.34,4.6-1.63
			c0.65-2.21,1.57-4.35,2.16-6.58c0.69-2.63-0.37-4.69-2.91-5.54c-2.43-0.81-4.35,0.4-5.34,2.64c-0.93,2.1-1.55,4.34-2.27,6.53
			C94.47,62.43,94.48,62.43,99.74,62.43z M73.66,62.43c5.3,0,9.83,0.02,14.35-0.02c0.81-0.01,1.87,0.39,2.28-0.85
			c0.37-1.15-0.08-2.01-0.91-2.75c-2.2-1.95-3.7-4.31-4.22-7.23c-0.18-1-0.55-1.72-1.73-1.58c-0.98,0.11-2.68-0.41-2.77,0.68
			C80.25,55.47,76.34,58.14,73.66,62.43z M85.07,135.19c2.69-0.05,5.36-2.74,5.03-5.35c-0.37-2.92-2.18-4.67-5.15-4.81
			c-2.92-0.13-5.03,2.27-4.86,5.3C80.27,133.44,82.14,134.88,85.07,135.19z M128.24,135.16c2.63-0.49,4.82-1.71,4.89-4.89
			c0.07-3.11-1.79-4.79-4.72-5.14c-2.77-0.33-5.46,2.25-5.3,4.99C123.29,133.15,125.12,134.75,128.24,135.16z M82.71,45.85
			c1.98,0.15,3.88,0.47,3.76-2.69c-0.09-2.54-0.99-3.41-3.47-3.35c-2.19,0.05-3.64,0.22-3.72,3.06
			C79.21,45.64,80.33,46.28,82.71,45.85z"/>
		<path class="st2" d="M118.35,106.54c-13.75,0.04-27.49,0.07-41.24,0.14c-1.57,0.01-2.74-0.19-3.11-2.07
			c-2.37-11.89-4.75-23.77-7.27-35.63c-0.41-1.95,0.26-2.18,1.85-2.17c12.45,0.08,24.89,0.13,37.34,0.18
			c-1.28,6.16-2.63,12.36-0.75,18.6c1.29,4.28,1.55,9.18,6.03,11.89c0.3,0.52,0.6,1.04,0.9,1.55
			C112.67,102.8,115.97,104.28,118.35,106.54z M101.6,96.19c-0.4-6.45-0.8-12.9-1.22-19.34c-0.1-1.58-0.65-2.91-2.53-2.69
			c-1.62,0.19-1.96,1.49-1.86,2.9c0.45,6.44,0.92,12.88,1.38,19.33c0.11,1.58,0.61,2.9,2.52,2.69
			C101.55,98.89,101.78,97.57,101.6,96.19z M87.11,96.57c-1.51-6.85-3.01-13.63-4.5-20.42c-0.28-1.3-0.95-2.17-2.38-1.98
			c-1.5,0.2-1.87,1.37-1.62,2.6c1.44,6.93,2.95,13.84,4.47,20.76c0.26,1.16,1.05,1.78,2.28,1.55C86.77,98.8,87.22,97.84,87.11,96.57
			z"/>
		<path class="st3" d="M111.19,97.49c-4.47-2.71-4.74-7.6-6.03-11.89c-1.88-6.24-0.53-12.44,0.75-18.6
			c8.4-0.87,16.83-0.18,25.25-0.37c4.15-0.09,8.31,0.11,12.45-0.06c2.45-0.11,3.3,0.67,2.79,3.08c-2.45,11.6-4.87,23.21-7.28,34.82
			c-0.33,1.61-1.06,2.34-2.89,2.28c-5.96-0.19-11.92-0.16-17.89-0.22c-2.38-2.25-5.68-3.74-6.26-7.49c2.79,0.49,3.69-1.04,3.81-3.5
			c0.3-5.92,0.69-11.84,0.94-17.77c0.06-1.41,0.69-3.49-1.72-3.58c-2.56-0.11-2.12,2.05-2.26,3.65
			C112.3,84.4,111.75,90.95,111.19,97.49z M134.64,76.93c0.1-1.21-0.03-2.54-1.75-2.75c-1.66-0.2-2.33,1.09-2.6,2.37
			c-1.39,6.44-2.68,12.9-3.99,19.36c-0.28,1.39-0.15,2.68,1.5,3.07c1.74,0.42,2.29-0.81,2.58-2.16
			C131.8,90.25,133.2,83.68,134.64,76.93z"/>
		<path class="st4" d="M114.36,36.76c2.46,0,4.93-0.14,7.37,0.05c1.69,0.13,4.42-1.08,4.86,0.82c0.59,2.55,1.22,5.52-0.88,8.12
			c-2.34,2.89-3.65,6.49-7.43,8.34c-1.96,0.96-2.98,3.47-3.08,5.96c-0.04,0.94,0.36,2.28-1.26,2.32c-1.67,0.04-3.38,0.08-5.01-0.21
			c-0.67-0.12-0.1-1.12,0.06-1.67c0.46-1.6,1.11-3.16,1.53-4.77c1.45-5.55-0.88-9.73-6.43-11.2c-3.89-1.03-1.65-3.96-2.01-5.99
			c-0.42-2.38,1.69-1.71,2.94-1.74C108.15,36.71,111.26,36.76,114.36,36.76z"/>
		<path class="st5" d="M132.29,62.43c-3.36,0-6.73-0.13-10.09,0.04c-3.54,0.18-3.78-2.59-2.08-3.66c4.52-2.86,6.67-7.52,10.12-11.1
			c2.55-2.65,7.39-1.02,9.09,2.47c0.92,1.9,1.84,3.02,4.16,3.29c2.81,0.33,4.2,2.37,3.82,5.29c-0.37,2.87-2.2,3.79-4.93,3.7
			C139.02,62.34,135.65,62.43,132.29,62.43z"/>
		<path class="st6" d="M99.74,62.43c-5.26,0-5.27,0-3.76-4.58c0.72-2.19,1.34-4.43,2.27-6.53c0.99-2.24,2.91-3.45,5.34-2.64
			c2.54,0.84,3.6,2.91,2.91,5.54c-0.59,2.23-1.51,4.36-2.16,6.58C103.47,63.77,101.03,61.77,99.74,62.43z"/>
		<path class="st7" d="M73.66,62.43c2.68-4.3,6.59-6.96,6.99-11.76c0.09-1.1,1.79-0.57,2.77-0.68c1.19-0.13,1.55,0.58,1.73,1.58
			c0.52,2.92,2.03,5.28,4.22,7.23c0.83,0.74,1.29,1.6,0.91,2.75c-0.41,1.25-1.46,0.85-2.28,0.85
			C83.49,62.45,78.96,62.43,73.66,62.43z"/>
		<path class="st8" d="M85.08,135.19c-2.94-0.31-4.81-1.75-4.98-4.86c-0.17-3.03,1.94-5.43,4.86-5.3c2.97,0.13,4.79,1.89,5.15,4.81
			C90.43,132.45,87.76,135.14,85.08,135.19z"/>
		<path class="st9" d="M128.24,135.16c-3.12-0.41-4.95-2-5.13-5.04c-0.16-2.74,2.53-5.32,5.3-4.99c2.93,0.34,4.79,2.03,4.72,5.14
			C133.07,133.45,130.88,134.67,128.24,135.16z"/>
		<path class="st10" d="M82.71,45.85c-2.38,0.43-3.5-0.21-3.43-2.98c0.08-2.83,1.53-3,3.72-3.06c2.48-0.06,3.38,0.81,3.47,3.35
			C86.59,46.32,84.69,46.01,82.71,45.85z"/>
		<path class="st11" d="M101.6,96.19c0.18,1.38-0.06,2.7-1.72,2.89c-1.91,0.22-2.4-1.11-2.52-2.69c-0.46-6.44-0.92-12.88-1.38-19.33
			c-0.1-1.42,0.24-2.71,1.86-2.9c1.88-0.22,2.43,1.11,2.53,2.69C100.8,83.29,101.2,89.74,101.6,96.19z"/>
		<path class="st12" d="M87.11,96.57c0.11,1.27-0.34,2.24-1.75,2.5c-1.23,0.23-2.02-0.38-2.28-1.55
			c-1.52-6.91-3.03-13.83-4.47-20.76c-0.25-1.22,0.11-2.4,1.62-2.6c1.43-0.19,2.09,0.68,2.38,1.98
			C84.1,82.93,85.6,89.72,87.11,96.57z"/>
		<path class="st13" d="M111.19,97.49c0.55-6.55,1.11-13.09,1.67-19.64c0.14-1.6-0.3-3.76,2.26-3.65c2.4,0.1,1.78,2.18,1.72,3.58
			c-0.25,5.92-0.64,11.84-0.94,17.77c-0.12,2.46-1.02,3.98-3.81,3.5C111.79,98.53,111.49,98.01,111.19,97.49z"/>
		<path class="st14" d="M134.64,76.93c-1.44,6.75-2.83,13.32-4.26,19.88c-0.29,1.35-0.85,2.58-2.58,2.16
			c-1.65-0.39-1.78-1.68-1.5-3.07c1.31-6.46,2.6-12.92,3.99-19.36c0.27-1.27,0.95-2.57,2.6-2.37
			C134.61,74.39,134.74,75.73,134.64,76.93z"/>
	</g>
</g>
</svg>
