<?xml version="1.0" encoding="utf-8"?>
<!-- Generator: Adobe Illustrator 26.1.0, SVG Export Plug-In . SVG Version: 6.00 Build 0)  -->
<svg version="1.1" id="Layer_1" xmlns="http://www.w3.org/2000/svg" xmlns:xlink="http://www.w3.org/1999/xlink" x="0px" y="0px"
	 viewBox="0 0 219 171" style="enable-background:new 0 0 219 171;" xml:space="preserve">
<style type="text/css">
	.st0{fill:#FFFFFF;}
	.st1{fill:#E9E5F3;}
	.st2{fill:#8D481F;}
	.st3{fill:#7262A8;}
	.st4{fill:#F1ECF7;}
	.st5{fill:#E5E0F1;}
	.st6{fill:#262437;}
	.st7{fill:#5B4C90;}
	.st8{fill:#C0962F;}
	.st9{fill:#D9D3EA;}
	.st10{fill:#AC7826;}
	.st11{fill:#975721;}
	.st12{fill:#3E3660;}
	.st13{fill:#B7892A;}
	.st14{fill:#DFD9ED;}
	.st15{fill:#C3B8DB;}
</style>
<g>
	<g>
		<path class="st0" d="M116.21,165.53c-31.24,0-62.49-0.01-93.73,0.04c-1.29,0-1.44-0.36-1.44-1.5c0.03-52.38,0.03-104.77,0-157.15
			c0-1.18,0.2-1.48,1.45-1.48c62.43,0.04,124.86,0.04,187.29,0c1.33,0,1.52,0.36,1.52,1.58c-0.03,52.33-0.03,104.65,0,156.98
			c0,1.24-0.24,1.57-1.54,1.57C178.59,165.52,147.4,165.53,116.21,165.53z M173.46,125.05c1.41-0.2,2.03-1.05,2.01-2.42
			c-0.01-1.34-0.03-2.69-0.05-4.03c0.02-2.51,0.04-5.02,0.06-7.53c0.83-0.96,1.99-1.45,3.06-2.03c1.05-0.57,1.36-1.24,1.34-2.39
			c-0.06-4.37-0.03-8.75-0.02-13.12c0-0.67,0.04-1.35-0.33-1.96c-0.44-7.82-4.58-13.27-11.07-17.17c-3.32-1.99-6.69-3.9-10.06-5.8
			c-6.94-3.9-13.68-8.15-20.76-11.81c-1.37-1.45-3.3-1.98-4.93-3.01c-3.27-2.07-6.66-3.83-10.78-3.45c-1.08,0.1-2.06,1.04-3.21,0.39
			c-2.47-1.41-4.92-2.86-7.41-4.23c-2.39-1.31-4.54-3.08-7.2-3.89c0.03-4.15-0.02-8.31,0.14-12.46c0.08-2.24-0.75-3.65-2.82-4.4
			c-1.6-0.93-3.22-1.83-4.79-2.82c-1.45-0.91-2.78-0.87-4.26-0.01c-10.67,6.15-21.37,12.26-32.04,18.4
			c-1.27,0.73-2.47,1.56-3.1,2.98c-0.68,1.03-1.13,2.13-0.99,3.39c-0.02,0.28-0.07,0.56-0.07,0.84
			c-0.02,13.95-0.05,27.89-0.07,41.84c0,3.43,0.02,6.86-0.01,10.29c-0.01,1.51,0.61,2.55,1.94,3.27c1.68,0.9,3.33,1.87,4.99,2.81
			c1.79,1.45,3.6,1.43,5.49,0.14c0.96-0.65,1.99-1.19,2.99-1.78c0.72-0.02,1.26,0.43,1.84,0.76c14.49,8.35,28.98,16.69,43.45,25.07
			c4.71,2.73,9.52,5.28,14.07,8.27c-0.01,1.57-0.02,3.13-0.01,4.7c0,2.2,0.45,2.66,2.74,2.86c1.07,0.25,2.08,0.12,3.01-0.46
			c1.42-0.38,1.92-1.37,1.9-2.76c-0.02-1.45,0.03-2.91,0.05-4.36c9.39-5.42,18.79-10.84,28.18-16.27c0.35-0.2,0.69-0.39,1.1-0.17
			c0.07,2.18,0.34,2.47,2.54,2.88C171.47,125.7,172.56,125.89,173.46,125.05z"/>
		<path class="st1" d="M137.63,56.8c7.08,3.66,13.81,7.92,20.76,11.81c3.38,1.89,6.75,3.8,10.06,5.8
			c6.49,3.9,10.63,9.36,11.07,17.17c-0.92,0.07-1.03,0.7-1.02,1.44c0.01,0.81,0,1.62,0,2.43c-0.15,0.03-0.31,0.06-0.46,0.1
			c-0.86-1.47-1.89-2.86-2.53-4.41c-1.7-4.11-4.6-5.32-8.57-3.4c-3.33,1.62-6.68,3.21-10,4.85c-0.83,0.41-1.92,0.38-2.43,1.36
			c-5.85,2.35-11.39,5.15-15.2,10.47c-2.34,3.51-4.25,7.2-4.74,11.48c-1.27,0.06-1.32-1-1.3-1.74c0.06-1.69-0.44-3.21-1.04-4.72
			c-1.88-4.73-4.81-8.66-9.14-11.44c-1.44-1.27-3.2-2-4.83-2.96c-3.99-2.33-7.9-4.81-12.06-6.84c-0.19-0.45-0.53-0.67-1.01-0.67
			c-3.33-1.95-6.69-3.84-9.96-5.88c-1.02-0.64-1.33-0.3-1.74,0.55c-1.31,2.7-2.15,5.51-2.15,8.53c-0.01,6.34,0,12.68-0.01,19.02
			c-3.47-1.96-6.92-3.93-10.4-5.87c-0.76-0.43-0.66-1.09-0.67-1.75c-0.04-2.92-0.07-5.83-0.11-8.75c0.12-5.25-0.28-10.54,1.4-15.64
			l0.17,0l0.17,0c1.96-0.44,3.88-1.51,5.94-0.26c1.57,0.95,3.23,1.77,4.81,2.72c0.95,0.58,1.54,0.72,2.32-0.4
			c2.22-3.14,5.09-5.59,8.49-7.48c6.16-3.42,12.25-6.98,18.37-10.49c2.09-1.2,4.14-2.46,6.25-3.61
			C131.06,56.58,134.28,56.18,137.63,56.8z"/>
		<path class="st2" d="M80.16,93.37c0.04,2.92,0.07,5.83,0.11,8.75c0.01,0.67-0.1,1.33,0.67,1.75c3.48,1.94,6.94,3.91,10.4,5.87
			c0.61,0.49,1.24,0.93,2.01,1.14c5.76,3.55,11.64,6.9,17.57,10.16c1.23,0.76,2.44,1.56,3.69,2.29c5.76,3.36,11.54,6.7,17.31,10.05
			c-0.01,1.56-0.04,3.12-0.02,4.67c0.01,0.73-0.17,1.2-1.01,1.13c-4.55-2.99-9.36-5.54-14.07-8.27
			c-14.47-8.39-28.96-16.72-43.45-25.07c-0.58-0.33-1.11-0.78-1.84-0.76c-2.81-1.97-5.88-3.51-8.85-5.23c0.03-5.5,0.06-11,0.09-16.5
			C68.57,86.69,74.36,90.03,80.16,93.37z"/>
		<path class="st3" d="M101.43,25.74c2.07,0.75,2.9,2.17,2.82,4.4c-0.16,4.15-0.1,8.3-0.13,12.46c-2.17-0.35-3.72,0.93-5.33,2.05
			c-1.28,0.01-2.11-0.95-3.15-1.47c-0.87-0.43-1.64-0.62-2.53-0.09c-6.67,3.9-13.46,7.58-20,11.68c-1.08,0.87-1.79,1.92-1.66,3.38
			c0.23,2.33-1.56,3.02-3.14,3.89c-1.17,0.65-2.36,1.26-3.48,1.99c-0.67,0.44-1.62,0.58-1.88,1.52c-0.07,0.02-0.14,0.02-0.21,0
			c-0.03-4.93-0.05-9.87-0.08-14.8c0.61-0.94,0.35-2.2,1.14-3.07c0.96-1.26,2.17-2.23,3.53-3.01c10.05-5.76,20.09-11.53,30.17-17.23
			C98.72,26.74,99.8,25.56,101.43,25.74z"/>
		<path class="st4" d="M137.63,56.8c-3.35-0.61-6.57-0.21-9.57,1.43c-2.11,1.15-4.16,2.42-6.25,3.61
			c-6.12,3.51-12.2,7.07-18.37,10.49c-3.4,1.89-6.27,4.33-8.49,7.48c-0.79,1.12-1.37,0.97-2.32,0.4c-1.57-0.95-3.23-1.77-4.81-2.72
			c-2.06-1.25-3.98-0.19-5.94,0.26c0.85-2.38,1.96-4.6,3.82-6.38c0.51-0.49,1.19-0.88,1.26-1.7c2.59-1.7,5.17-3.39,7.76-5.09
			c2.66-1.02,4.87-2.85,7.42-4.07c1.91-1.12,3.83-2.25,5.74-3.37c0.96-0.47,1.94-0.91,2.7-1.69c1.68-0.62,3.19-1.55,4.69-2.49
			c1.15-0.72,2.6-1.01,3.42-2.24c1.15,0.66,2.13-0.29,3.21-0.39c4.12-0.38,7.51,1.38,10.78,3.45
			C134.33,54.82,136.27,55.35,137.63,56.8z"/>
		<path class="st5" d="M154.52,93.94c0.51-0.99,1.6-0.95,2.43-1.36c3.32-1.64,6.67-3.23,10-4.85c3.96-1.93,6.87-0.72,8.57,3.4
			c0.64,1.55,1.68,2.95,2.53,4.41c0.15-0.03,0.31-0.06,0.46-0.1c0-0.81,0.01-1.62,0-2.43c-0.01-0.74,0.1-1.37,1.02-1.44
			c0.37,0.61,0.33,1.28,0.33,1.96c0,4.37-0.04,8.75,0.02,13.12c0.02,1.14-0.29,1.82-1.34,2.39c-1.06,0.57-2.23,1.07-3.06,2.03
			c-2.32,1.06-4.55,2.31-6.73,3.64c-0.08-0.71,0.04-1.45-0.35-2.13c-1.64-2.83-3.26-5.66-4.89-8.49c-1.47-2.55-3.02-5.07-4.38-7.67
			C158.12,94.46,156.99,93.05,154.52,93.94z"/>
		<path class="st6" d="M62.66,50.74c0.03,4.93,0.05,9.87,0.08,14.8c-0.13,5.93-0.19,11.87,0.04,17.8c-0.03,5.5-0.06,11-0.09,16.51
			c0.09,2.29-0.25,4.61,0.37,6.87c-1.66-0.94-3.3-1.92-4.99-2.81c-1.33-0.71-1.95-1.76-1.94-3.27c0.03-3.43,0-6.86,0.01-10.29
			c0.02-13.95,0.04-27.89,0.07-41.84c0-0.28,0.04-0.56,0.07-0.84C58.75,47.95,60.35,50.08,62.66,50.74z"/>
		<path class="st7" d="M101.43,25.74c-1.62-0.17-2.71,1.01-3.93,1.7c-10.08,5.7-20.12,11.48-30.17,17.23
			c-1.37,0.78-2.57,1.75-3.53,3.01c-2.47-0.58-4.21-2.58-6.55-3.4c0.62-1.42,1.83-2.25,3.1-2.98c10.68-6.14,21.37-12.24,32.04-18.4
			c1.48-0.85,2.81-0.9,4.26,0.01C98.21,23.91,99.83,24.8,101.43,25.74z"/>
		<path class="st8" d="M168.76,114.7c2.18-1.33,4.41-2.57,6.73-3.64c-0.02,2.51-0.04,5.02-0.06,7.53c-0.75-0.04-1.46,0.03-1.98,0.67
			c-1.29,0.39-2.4,1.09-3.4,1.98c-0.86,0.3-1.76,0.54-2.18,1.48c-0.41-0.22-0.75-0.03-1.1,0.17c-9.39,5.42-18.79,10.85-28.18,16.27
			c-0.67-0.35-0.6-0.98-0.6-1.59c-0.01-1.65-0.03-3.31-0.05-4.96c0.33-0.21,0.65-0.43,0.98-0.62c4.66-2.73,9.33-5.45,14-8.17
			C158.26,120.9,163.54,117.87,168.76,114.7z"/>
		<path class="st9" d="M118.72,50.72c-0.82,1.23-2.27,1.51-3.42,2.24c-1.5,0.94-3.01,1.88-4.69,2.49c-0.16-1.52,0.61-3.3-1.26-4.35
			c-3.15-1.77-6.28-3.58-9.41-5.38c-0.46-0.26-1.11-0.34-1.15-1.06c1.61-1.12,3.15-2.4,5.33-2.05c2.66,0.81,4.81,2.58,7.2,3.89
			C113.8,47.86,116.25,49.3,118.72,50.72z"/>
		<path class="st7" d="M63.04,106.73c-0.62-2.26-0.27-4.58-0.37-6.87c2.96,1.72,6.03,3.25,8.85,5.23c-1,0.59-2.04,1.13-2.99,1.78
			C66.65,108.15,64.84,108.18,63.04,106.73z"/>
		<path class="st10" d="M136.62,146.29c-0.94,0.59-1.95,0.71-3.01,0.46c0-4.13,0.01-8.25,0.01-12.37c0.21,0.02,0.42,0.05,0.63,0.07
			c0.94,0,1.47-0.93,2.36-1.04C136.61,137.71,136.62,142,136.62,146.29z"/>
		<path class="st11" d="M133.62,134.38c-0.01,4.12-0.01,8.25-0.02,12.37c-2.29-0.2-2.73-0.67-2.74-2.86c0-1.57,0.01-3.13,0.01-4.7
			c0.84,0.07,1.03-0.4,1.01-1.13c-0.02-1.56,0.01-3.12,0.02-4.67C132.57,133.57,133.13,133.91,133.62,134.38z"/>
		<path class="st12" d="M57.24,44.28c2.34,0.82,4.08,2.81,6.55,3.4c-0.79,0.87-0.53,2.13-1.14,3.07c-2.31-0.66-3.91-2.79-6.4-3.07
			C56.12,46.41,56.56,45.31,57.24,44.28z"/>
		<path class="st13" d="M136.62,146.29c0-4.29-0.01-8.58-0.01-12.87c0.44-0.27,0.87-0.53,1.31-0.8c0.02,1.65,0.04,3.31,0.05,4.96
			c0,0.61-0.07,1.24,0.6,1.59c-0.02,1.45-0.06,2.91-0.05,4.36C138.54,144.92,138.04,145.91,136.62,146.29z"/>
		<path class="st10" d="M170.04,121.24c1-0.88,2.12-1.58,3.4-1.98c0.01,1.93,0.01,3.86,0.02,5.79c-0.9,0.84-1.99,0.65-3.06,0.56
			C170.24,124.15,170.82,122.64,170.04,121.24z"/>
		<path class="st13" d="M173.46,125.05c-0.01-1.93-0.01-3.86-0.02-5.79c0.52-0.64,1.23-0.71,1.98-0.67
			c0.02,1.34,0.04,2.69,0.05,4.03C175.49,124,174.87,124.85,173.46,125.05z"/>
		<path class="st11" d="M170.04,121.24c0.78,1.4,0.2,2.91,0.36,4.37c-2.2-0.41-2.47-0.71-2.54-2.88
			C168.28,121.78,169.18,121.54,170.04,121.24z"/>
		<path class="st14" d="M110.91,121.04c-5.93-3.26-11.81-6.61-17.57-10.16c0.95-0.81,2.38-0.79,3.1-2.1
			c3.15-5.67,6.35-11.33,9.67-16.91c0.8-1.35,0.83-2.43,0.1-3.68c4.16,2.03,8.07,4.51,12.06,6.84c1.63,0.95,3.39,1.69,4.83,2.96
			c0.93,1.96,0.29,3.65-0.78,5.37c-2.36,3.77-4.36,7.74-6.77,11.49c-1.29,2.01-1.89,4.54-4.4,5.6
			C111.02,120.51,110.99,120.84,110.91,121.04z"/>
		<path class="st14" d="M168.76,114.7c-5.21,3.16-10.5,6.2-15.86,9.11c-0.82-1.46-1.57-2.97-2.46-4.38
			c-2.44-3.86-4.74-7.81-6.81-11.88c-1.37-2.69-2.19-3.49-4.31-3.15c3.8-5.32,9.35-8.12,15.2-10.47c2.46-0.89,3.6,0.52,4.62,2.47
			c1.36,2.61,2.91,5.12,4.38,7.67c1.63,2.83,3.25,5.67,4.89,8.49C168.8,113.25,168.67,113.99,168.76,114.7z"/>
		<path class="st5" d="M110.91,121.04c0.08-0.2,0.1-0.54,0.24-0.6c2.51-1.06,3.1-3.59,4.4-5.6c2.41-3.74,4.41-7.72,6.77-11.49
			c1.07-1.72,1.71-3.4,0.78-5.37c4.34,2.79,7.26,6.71,9.14,11.44c0.6,1.5,1.1,3.03,1.04,4.72c-0.03,0.74,0.02,1.79,1.3,1.74
			c-0.71,6.18-0.15,12.38-0.34,18.56c-0.21-0.02-0.42-0.05-0.63-0.07c-0.49-0.47-1.05-0.81-1.71-0.99
			c-5.77-3.35-11.55-6.69-17.31-10.05C113.35,122.6,112.14,121.81,110.91,121.04z"/>
		<path class="st9" d="M134.25,134.45c0.19-6.19-0.37-12.39,0.34-18.56c0.48-4.28,2.4-7.96,4.74-11.48
			c2.11-0.34,2.93,0.46,4.31,3.15c2.07,4.07,4.37,8.02,6.81,11.88c0.89,1.41,1.64,2.92,2.46,4.38c-4.67,2.72-9.33,5.45-14,8.17
			c-0.33,0.2-0.65,0.41-0.98,0.62c-0.44,0.27-0.87,0.53-1.31,0.8C135.72,133.52,135.19,134.45,134.25,134.45z"/>
		<path class="st15" d="M62.77,83.35c-0.23-5.93-0.16-11.87-0.04-17.8c0.07,0.02,0.14,0.02,0.21,0c0.07,0.75-0.07,1.47,0.85,1.99
			c5.95,3.35,11.85,6.78,17.77,10.19c-1.68,5.11-1.28,10.4-1.4,15.64C74.36,90.03,68.57,86.69,62.77,83.35z"/>
		<path class="st9" d="M106.21,88.2c0.74,1.25,0.71,2.33-0.1,3.68c-3.32,5.58-6.51,11.23-9.67,16.91c-0.73,1.31-2.15,1.29-3.1,2.1
			c-0.77-0.21-1.4-0.65-2.01-1.14c0-6.34,0-12.68,0.01-19.02c0-3.02,0.84-5.83,2.15-8.53c0.41-0.84,0.72-1.18,1.74-0.55
			c3.27,2.04,6.64,3.93,9.96,5.88C105.23,88.21,105.72,88.21,106.21,88.2z"/>
		<path class="st9" d="M81.56,77.73c-5.92-3.4-11.82-6.83-17.77-10.19c-0.92-0.52-0.78-1.24-0.85-1.99
			c0.27-0.94,1.22-1.08,1.88-1.52c1.11-0.74,2.31-1.34,3.48-1.99c1.58-0.87,3.37-1.56,3.14-3.89c1.79,0.23,3.14,1.37,4.66,2.18
			c3.19,1.71,6.17,3.81,9.51,5.25c0.13,1.47-0.63,3.23,1.36,4.08c-0.08,0.82-0.76,1.21-1.26,1.7c-1.86,1.78-2.96,4-3.82,6.38
			l-0.17,0L81.56,77.73z"/>
		<path class="st14" d="M106.21,88.2c-0.49,0.01-0.98,0.01-1.01-0.67C105.69,87.53,106.02,87.75,106.21,88.2z"/>
		<path class="st1" d="M98.78,44.65c0.04,0.73,0.69,0.8,1.15,1.06c3.13,1.8,6.26,3.61,9.41,5.38c1.87,1.05,1.1,2.83,1.26,4.35
			c-0.77,0.78-1.74,1.22-2.7,1.69c0-1.28-0.04-2.57,0.01-3.85c0.05-1.13-0.54-1.47-1.44-1.11c-1.8,0.73-3.51,1.65-4.99,2.93
			c-2.52,1.09-4.91,2.38-7.09,4.05c-2.51,1.11-4.8,2.59-7.1,4.05c-3.33-1.92-6.71-3.78-9.98-5.81c-1.4-0.87-3.19-1.15-4.2-2.64
			c6.55-4.1,13.34-7.79,20-11.68c0.89-0.52,1.66-0.34,2.53,0.09C96.67,43.69,97.5,44.66,98.78,44.65z"/>
		<path class="st14" d="M73.1,54.77c1.01,1.49,2.8,1.77,4.2,2.64c3.27,2.03,6.65,3.88,9.98,5.81c-0.56,0.79-1.12,1.58-1.67,2.37
			c-3.34-1.44-6.32-3.54-9.51-5.25c-1.52-0.81-2.87-1.96-4.66-2.18C71.31,56.68,72.02,55.63,73.1,54.77z"/>
		<path class="st15" d="M85.61,65.58c0.56-0.79,1.12-1.58,1.67-2.37c2.3-1.46,4.6-2.94,7.1-4.05c0.7,1.77,0.16,3.61,0.35,5.41
			c-2.59,1.7-5.17,3.39-7.76,5.09C84.98,68.81,85.74,67.05,85.61,65.58z"/>
		<path class="st9" d="M94.73,64.57c-0.18-1.8,0.36-3.64-0.35-5.41c2.18-1.67,4.58-2.97,7.09-4.05c0.7,0.31,0.68,0.93,0.68,1.56
			c-0.01,1.28,0,2.56-0.01,3.84C99.61,61.72,97.39,63.55,94.73,64.57z"/>
		<path class="st14" d="M102.16,60.5c0-1.28,0-2.56,0.01-3.84c0-0.63,0.02-1.24-0.68-1.56c1.48-1.28,3.19-2.2,4.99-2.93
			c0.9-0.37,1.49-0.02,1.44,1.11c-0.06,1.28-0.01,2.57-0.01,3.85C105.99,58.26,104.07,59.38,102.16,60.5z"/>
	</g>
</g>
</svg>
