<?xml version="1.0" encoding="utf-8"?>
<!-- Generator: Adobe Illustrator 26.1.0, SVG Export Plug-In . SVG Version: 6.00 Build 0)  -->
<svg version="1.1" id="Layer_1" xmlns="http://www.w3.org/2000/svg" xmlns:xlink="http://www.w3.org/1999/xlink" x="0px" y="0px"
	 viewBox="0 0 219 171" style="enable-background:new 0 0 219 171;" xml:space="preserve">
<style type="text/css">
	.st0{fill:#FFFFFF;}
	.st1{fill:#FFE671;}
	.st2{fill:#FCC00F;}
	.st3{fill:#A0D5F5;}
	.st4{fill:#FCC21F;}
	.st5{fill:#FCC21D;}
	.st6{fill:#FCC11A;}
	.st7{fill:#FCC011;}
	.st8{fill:#8DC6ED;}
	.st9{fill:#8CC5ED;}
	.st10{fill:#94C8E7;}
	.st11{fill:#4DBBEC;}
	.st12{fill:#71B9E6;}
	.st13{fill:#70BAE6;}
	.st14{fill:#FFF3C9;}
	.st15{fill:#FCC10E;}
</style>
<g>
	<g>
		<path class="st0" d="M116.26,174.91c-34.91,0-69.81-0.01-104.72,0.04c-1.44,0-1.61-0.39-1.61-1.67
			c0.03-58.53,0.04-117.05,0-175.58c0-1.32,0.22-1.66,1.62-1.66c69.75,0.05,139.5,0.05,209.25,0c1.48,0,1.7,0.4,1.7,1.77
			c-0.04,58.46-0.04,116.93,0,175.39c0,1.38-0.26,1.75-1.72,1.75C185.95,174.9,151.11,174.91,116.26,174.91z M127.37,150.02
			c0.01-1.51,0.01-3.03,0.02-4.54c0-1.25,0-2.5,0.01-3.75c0.4-1.52,0.4-3.04,0-4.56c0-1.25,0-2.49,0-3.74
			c0.46-1.52,0.3-3.03-0.01-4.55c-0.02-0.62-0.05-1.24-0.07-1.86l0.11-0.15c3.48-0.54,5.26-2.66,6.09-6.01
			c1.49-5.99,3.76-11.7,6.84-17.07c3.88-6.78,5.84-14.03,5.08-21.84c-1.88-19.23-18.77-33.16-38.02-31.49
			c-0.49,0.1-0.97,0.21-1.46,0.29c-9.94,1.59-17.96,6.37-23.72,14.64c-7.67,11.03-8.74,22.79-2.94,34.91
			c3.35,7,6.84,13.89,8.74,21.46c0.75,3,2.97,4.32,5.75,5c0,0.7,0,1.41,0,2.11c0,1.51,0.01,3.03,0.01,4.54c0,1.25,0,2.51,0,3.76
			c0,1.51,0,3.03,0,4.54c0,1.25,0,2.51,0,3.76c0,1.51,0.01,3.03,0.01,4.54c0.67,2.4,2.26,3.75,4.64,3.76
			c5.37,0.03,10.74-0.01,16.1-0.02c2.74,0.01,5.47,0.06,8.21,0.03C125.08,153.76,126.69,152.4,127.37,150.02z M112.82,34.38
			c0-2.69,0.02-5.39-0.01-8.08c-0.02-2.06-0.79-3.07-2.25-3.08c-1.48-0.01-2.31,1-2.32,3.01c-0.03,5.45-0.03,10.9,0,16.36
			c0.01,1.98,0.88,3.07,2.35,2.97c1.79-0.12,2.21-1.38,2.22-2.9C112.82,39.89,112.81,37.14,112.82,34.38z M77.3,59.15
			c1.31,0.05,1.91-0.49,2.31-1.26c0.56-1.08,0.06-1.99-0.67-2.72c-4.07-4.11-8.17-8.19-12.27-12.27c-0.45-0.44-0.98-0.79-1.66-0.8
			c-0.89-0.01-1.6,0.36-2.03,1.13C62.55,44,62.5,44.9,63.1,45.54c4.28,4.6,8.7,9.06,13.34,13.31C76.72,59.11,77.24,59.13,77.3,59.15
			z M158.35,135.3c0.06-0.83-0.62-1.42-1.25-2.04c-2.75-2.74-5.5-5.49-8.25-8.23c-1.24-1.24-2.44-2.53-3.74-3.7
			c-1-0.9-2.17-1.05-3.19,0c-1.01,1.04-0.79,2.16,0.04,3.21c0.19,0.24,0.43,0.45,0.65,0.67c3.63,3.63,7.27,7.27,10.91,10.9
			c0.49,0.48,0.98,1,1.57,1.34C156.64,138.34,158.4,137.25,158.35,135.3z M143.55,59.15c0.91,0.04,1.52-0.51,2.11-1.09
			c3.87-3.86,7.73-7.73,11.61-11.58c1.11-1.1,1.62-2.29,0.53-3.64c-0.92-1.13-2.31-0.96-3.75,0.45c-2.12,2.06-4.19,4.16-6.28,6.25
			c-1.91,1.91-3.83,3.82-5.72,5.74c-0.78,0.79-1,1.75-0.5,2.77C141.93,58.84,142.65,59.19,143.55,59.15z M62.7,135.61
			c0.03,0.81,0.41,1.56,1.31,1.95c1.17,0.5,2.06-0.01,2.86-0.82c3.96-3.95,7.93-7.89,11.88-11.86c1.32-1.33,1.43-2.64,0.33-3.6
			c-1.26-1.09-2.43-0.7-3.49,0.37c-3.96,3.95-7.91,7.92-11.86,11.87C63.18,134.06,62.74,134.66,62.7,135.61z M55.09,87.71
			c-2.83,0-5.66,0.03-8.49-0.01c-1.53-0.02-2.69,0.48-2.79,2.11c-0.1,1.64,1.06,2.4,2.53,2.42c5.72,0.06,11.44,0.04,17.16,0
			c1.49-0.01,2.68-0.75,2.62-2.36c-0.06-1.55-1.16-2.21-2.74-2.18C60.62,87.75,57.86,87.71,55.09,87.71z M166.17,87.71
			c-2.89,0-5.78,0.01-8.67,0c-1.48-0.01-2.48,0.66-2.56,2.15c-0.08,1.43,0.92,2.15,2.23,2.34c0.86,0.12,1.75,0.08,2.63,0.08
			c4.84,0,9.67,0.03,14.51-0.02c2.01-0.02,2.99-0.92,2.89-2.43c-0.13-1.85-1.4-2.14-2.93-2.12
			C171.57,87.73,168.87,87.71,166.17,87.71z"/>
		<path class="st1" d="M93.78,126.77c-2.78-0.68-5-2-5.75-5c-1.9-7.57-5.39-14.47-8.74-21.46c-5.8-12.11-4.73-23.88,2.94-34.91
			c5.76-8.27,13.78-13.05,23.72-14.64c0.49-0.08,0.98-0.19,1.46-0.29c6.5,1.41,12.53,3.78,17.66,8.19
			c7.2,6.2,11.18,14.06,12.08,23.42c0.72,7.43-0.86,14.45-4.59,20.96c-2.97,5.19-5.38,10.64-6.82,16.43
			c-0.79,3.16-2.01,5.74-4.97,7.29c-4.1-0.04-8.2-0.09-12.3-0.13c-0.01-7.85,0.01-15.7-0.04-23.55c-0.01-1.22,0.01-2.1,1.56-2.4
			c1.43-0.27,1.75-1.54,1.48-2.83c-0.24-1.17-1.06-1.8-2.3-1.8c-0.75,0-1.51-0.01-2.26,0c-2.68,0.02-3.34,0.67-3.35,3.32
			c-0.02,9.11-0.03,18.21-0.04,27.32C100.27,126.72,97.03,126.75,93.78,126.77z M110.68,72.15c-0.95-3.79-1.81-7.43-2.8-11.04
			c-0.18-0.65-0.74-1.36-1.72-1.05c-4.39,1.41-8.45,3.43-12.03,6.37c-0.73,0.6-0.8,1.27-0.2,1.94c2.44,2.77,4.9,5.51,7.37,8.26
			c0.66,0.74,1.37,0.73,2.16,0.15c1.87-1.4,3.99-2.35,6.12-3.26C110.32,73.2,110.64,72.74,110.68,72.15z M94.15,88.11
			c1.14,0.08,1.68-0.19,1.9-1c0.63-2.27,1.86-4.24,3.23-6.11c0.75-1.02,0.44-1.77-0.33-2.45c-2.57-2.28-5.2-4.5-7.77-6.79
			c-1.09-0.97-1.91-0.67-2.68,0.34c-2.56,3.36-4.44,7.09-5.85,11.07c-0.47,1.32,0.01,2.01,1.31,2.34c2.85,0.72,5.68,1.48,8.53,2.22
			C93.15,87.9,93.82,88.03,94.15,88.11z M120.05,96.06c-0.97-0.07-2.28-0.14-3.02,1.2c-0.46,0.83-0.34,1.7,0.12,2.51
			c0.72,1.27,1.95,1.18,3.16,1.17c2.29-0.02,3.35-0.87,3.29-2.66C123.55,96.72,122.59,96.06,120.05,96.06z"/>
		<path class="st2" d="M120.77,126.78c2.96-1.55,4.18-4.14,4.97-7.29c1.44-5.79,3.85-11.25,6.82-16.43
			c3.73-6.51,5.31-13.53,4.59-20.96c-0.9-9.36-4.88-17.22-12.08-23.42c-5.13-4.42-11.16-6.79-17.66-8.19
			c19.25-1.67,36.14,12.26,38.02,31.49c0.76,7.8-1.19,15.06-5.08,21.84c-3.07,5.37-5.34,11.08-6.84,17.07
			c-0.83,3.35-2.62,5.47-6.09,6.01C125.2,126.84,122.99,126.81,120.77,126.78z"/>
		<path class="st3" d="M93.79,133.42c0-1.51-0.01-3.03-0.01-4.54c8.55,0,17.1,0,25.65,0c0,1.51,0.01,3.02,0.01,4.53
			C110.88,133.41,102.34,133.42,93.79,133.42z"/>
		<path class="st3" d="M93.79,141.72c0-1.51,0-3.03,0-4.54c8.55,0,17.1,0,25.65,0.01c0,1.51,0,3.02,0,4.53
			C110.88,141.71,102.33,141.72,93.79,141.72z"/>
		<path class="st3" d="M93.79,150.02c0-1.51-0.01-3.03-0.01-4.54c8.55,0,17.1,0,25.65,0.01c0.22,1.59-0.32,3.05-0.77,4.52
			c-0.12,0-0.24,0-0.36,0.01C110.13,150.02,101.96,150.02,93.79,150.02z"/>
		<path class="st4" d="M112.81,34.38c0,2.76,0,5.52,0,8.27c0,1.53-0.42,2.78-2.22,2.9c-1.47,0.1-2.34-0.99-2.35-2.97
			c-0.03-5.45-0.03-10.9,0-16.36c0.01-2.01,0.84-3.02,2.32-3.01c1.45,0.01,2.22,1.02,2.25,3.08
			C112.84,28.99,112.82,31.68,112.81,34.38z"/>
		<path class="st5" d="M77.3,59.15c-0.06-0.02-0.58-0.04-0.87-0.3c-4.63-4.25-9.06-8.7-13.34-13.31c-0.59-0.64-0.55-1.54-0.12-2.31
			c0.43-0.77,1.14-1.14,2.03-1.13c0.68,0.01,1.21,0.36,1.66,0.8c4.1,4.08,8.2,8.16,12.27,12.27c0.73,0.74,1.23,1.64,0.67,2.72
			C79.21,58.66,78.61,59.19,77.3,59.15z"/>
		<path class="st5" d="M158.35,135.3c0.04,1.95-1.72,3.04-3.26,2.15c-0.59-0.34-1.08-0.85-1.57-1.34
			c-3.64-3.63-7.27-7.26-10.91-10.9c-0.22-0.22-0.46-0.43-0.65-0.67c-0.83-1.06-1.05-2.17-0.04-3.21c1.02-1.05,2.19-0.89,3.19,0
			c1.3,1.17,2.5,2.46,3.74,3.7c2.75,2.74,5.5,5.49,8.25,8.23C157.73,133.89,158.41,134.48,158.35,135.3z"/>
		<path class="st6" d="M143.55,59.15c-0.9,0.04-1.62-0.3-2.01-1.12c-0.5-1.02-0.28-1.98,0.5-2.77c1.89-1.93,3.81-3.83,5.72-5.74
			c2.09-2.09,4.17-4.19,6.28-6.25c1.44-1.4,2.83-1.58,3.75-0.45c1.09,1.35,0.59,2.54-0.53,3.64c-3.88,3.85-7.74,7.72-11.61,11.58
			C145.07,58.64,144.46,59.19,143.55,59.15z"/>
		<path class="st6" d="M62.7,135.61c0.05-0.96,0.48-1.55,1.03-2.1c3.96-3.95,7.91-7.91,11.86-11.87c1.06-1.06,2.23-1.46,3.49-0.37
			c1.11,0.96,0.99,2.28-0.33,3.6c-3.94,3.97-7.92,7.91-11.88,11.86c-0.81,0.81-1.7,1.33-2.86,0.82
			C63.1,137.17,62.73,136.42,62.7,135.61z"/>
		<path class="st7" d="M55.09,87.71c2.77,0,5.53,0.04,8.3-0.02c1.58-0.03,2.67,0.63,2.74,2.18c0.07,1.6-1.13,2.34-2.62,2.36
			c-5.72,0.04-11.44,0.05-17.16,0c-1.47-0.01-2.63-0.77-2.53-2.42c0.1-1.63,1.26-2.13,2.79-2.11
			C49.43,87.74,52.26,87.71,55.09,87.71z"/>
		<path class="st7" d="M166.17,87.71c2.7,0,5.4,0.02,8.1-0.01c1.53-0.01,2.8,0.27,2.93,2.12c0.1,1.51-0.88,2.41-2.89,2.43
			c-4.84,0.05-9.67,0.02-14.51,0.02c-0.88,0-1.77,0.05-2.63-0.08c-1.31-0.19-2.31-0.91-2.23-2.34c0.08-1.49,1.08-2.16,2.56-2.15
			C160.39,87.72,163.28,87.71,166.17,87.71z"/>
		<path class="st8" d="M119.43,137.19c-8.55,0-17.1,0-25.65-0.01c0-1.25,0-2.51,0-3.76c8.55,0,17.1,0,25.65-0.01l0.02,0
			c0,1.26,0,2.52,0,3.78L119.43,137.19z"/>
		<path class="st8" d="M119.43,145.49c-8.55,0-17.1,0-25.65-0.01c0-1.25,0-2.51,0-3.76c8.55,0,17.1,0,25.65-0.01
			c0,0,0.02-0.01,0.02-0.01c0,1.26,0,2.52,0,3.78L119.43,145.49z"/>
		<path class="st9" d="M93.79,150.02c8.17,0,16.34,0,24.52,0c-0.57,1.94-2.48,2.53-3.77,3.74c-5.37,0.01-10.74,0.04-16.1,0.02
			C96.05,153.76,94.46,152.42,93.79,150.02z"/>
		<path class="st10" d="M119.43,128.88c-8.55,0-17.1,0-25.65,0c0-0.7,0-1.41,0-2.11c3.25-0.03,6.5-0.05,9.75-0.08
			c1.65,0.24,3.3,0.3,4.95-0.05c4.1,0.04,8.2,0.09,12.3,0.13c2.21,0.04,4.43,0.07,6.64,0.1c0,0-0.11,0.15-0.11,0.15
			c-2.01,0-4.02,0.09-6.02-0.04c-1.51-0.1-2.1,0.42-1.84,1.9L119.43,128.88z"/>
		<path class="st11" d="M119.43,141.71c0-1.51,0-3.02,0-4.53c0,0,0.02,0.01,0.02,0.01c2.65-0.01,5.29-0.01,7.94-0.02
			c0.4,1.52,0.4,3.04,0,4.56c-2.65-0.01-5.29-0.01-7.94-0.02L119.43,141.71z"/>
		<path class="st11" d="M119.43,133.41c0-1.51-0.01-3.02-0.01-4.53c0,0,0.02,0.01,0.02,0.01c2.64,0,5.28-0.01,7.93-0.01
			c0.31,1.51,0.47,3.03,0.01,4.55c-2.65-0.01-5.29-0.01-7.94-0.02L119.43,133.41z"/>
		<path class="st11" d="M118.66,150.01c0.45-1.48,0.99-2.94,0.77-4.52c0,0,0.02,0,0.02,0c2.64,0,5.29-0.01,7.93-0.01
			c-0.01,1.51-0.01,3.03-0.02,4.54C124.47,150.01,121.57,150.01,118.66,150.01z"/>
		<path class="st12" d="M118.66,150.01c2.9,0,5.8,0,8.71,0.01c-0.68,2.38-2.29,3.74-4.62,3.77c-2.74,0.03-5.47-0.02-8.21-0.03
			c1.29-1.21,3.2-1.8,3.77-3.74C118.43,150.01,118.54,150.01,118.66,150.01z"/>
		<path class="st13" d="M119.45,133.41c2.65,0.01,5.29,0.01,7.94,0.02c0,1.25,0,2.49,0,3.74c-2.65,0.01-5.29,0.01-7.94,0.02
			C119.45,135.93,119.45,134.67,119.45,133.41z"/>
		<path class="st13" d="M127.39,145.48c-2.64,0-5.29,0.01-7.93,0.01c0-1.26,0-2.52,0-3.78c2.65,0.01,5.29,0.01,7.94,0.02
			C127.39,142.98,127.39,144.23,127.39,145.48z"/>
		<path class="st12" d="M127.38,128.88c-2.64,0-5.29,0.01-7.93,0.01c-0.26-1.48,0.33-1.99,1.84-1.9c2,0.13,4.01,0.03,6.02,0.04
			C127.33,127.64,127.35,128.26,127.38,128.88z"/>
		<path class="st14" d="M110.68,72.15c-0.03,0.59-0.36,1.06-1.11,1.38c-2.13,0.91-4.25,1.87-6.12,3.26
			c-0.78,0.58-1.5,0.59-2.16-0.15c-2.46-2.75-4.93-5.49-7.37-8.26c-0.6-0.67-0.52-1.35,0.2-1.94c3.58-2.94,7.64-4.96,12.03-6.37
			c0.98-0.31,1.55,0.4,1.72,1.05C108.87,64.72,109.73,68.36,110.68,72.15z"/>
		<path class="st14" d="M94.15,88.11c-0.32-0.07-1-0.21-1.66-0.38c-2.84-0.74-5.68-1.5-8.53-2.22c-1.3-0.33-1.78-1.02-1.31-2.34
			c1.42-3.97,3.29-7.7,5.85-11.07c0.76-1,1.59-1.31,2.68-0.34c2.56,2.29,5.19,4.51,7.77,6.79c0.77,0.68,1.08,1.43,0.33,2.45
			c-1.37,1.87-2.6,3.84-3.23,6.11C95.83,87.92,95.28,88.19,94.15,88.11z"/>
		<path class="st15" d="M108.47,126.64c-1.65,0.34-3.3,0.28-4.95,0.05c0.01-9.11,0.03-18.21,0.04-27.32
			c0.01-2.65,0.66-3.3,3.35-3.32c0.75-0.01,1.51,0,2.26,0c1.24,0,2.06,0.63,2.3,1.8c0.27,1.29-0.05,2.56-1.48,2.83
			c-1.55,0.3-1.57,1.18-1.56,2.4C108.48,110.94,108.47,118.79,108.47,126.64z"/>
		<path class="st15" d="M120.05,96.06c2.54,0.01,3.5,0.66,3.55,2.22c0.06,1.79-1,2.65-3.29,2.66c-1.2,0.01-2.43,0.1-3.16-1.17
			c-0.47-0.81-0.58-1.68-0.12-2.51C117.77,95.92,119.08,95.99,120.05,96.06z"/>
	</g>
</g>
</svg>
